{"glyphs":{"0":{"ha":775,"x_min":61,"x_max":736,"o":"m 328 -17 q 131 78 201 -17 q 61 335 61 172 q 90 533 61 436 q 171 706 118 629 q 299 829 224 783 q 467 875 374 875 q 619 828 560 875 q 708 703 679 782 q 736 524 736 624 q 704 316 736 414 q 617 143 672 218 q 487 26 561 68 q 328 -17 413 -17 m 463 821 q 351 770 400 821 q 270 638 303 719 q 220 460 238 556 q 203 276 203 365 q 231 103 203 169 q 331 36 260 36 q 423 70 382 36 q 496 161 464 104 q 549 289 528 218 q 582 435 571 360 q 593 579 593 510 q 564 753 593 686 q 463 821 535 821 z "},"1":{"ha":517,"x_min":7,"x_max":476,"o":"m 476 846 q 438 781 456 819 q 410 685 421 742 l 307 165 q 298 124 301 142 q 294 93 294 107 q 317 56 294 63 q 417 43 340 49 q 413 21 415 33 q 408 -1 411 8 q 315 0 368 -1 q 214 1 263 1 q 104 0 163 1 q 7 -1 46 -1 q 8 21 7 8 q 14 43 10 33 q 105 55 76 49 q 144 82 133 61 q 164 149 156 103 l 265 678 q 269 711 269 699 q 263 731 269 722 q 240 739 257 739 q 108 719 208 739 q 103 764 106 739 q 232 799 175 782 q 344 835 289 815 q 461 878 399 854 q 476 846 472 864 z "},"2":{"ha":697,"x_min":-35,"x_max":642,"o":"m 142 713 q 129 727 136 719 q 115 746 122 735 q 256 844 182 814 q 401 875 329 875 q 575 815 513 875 q 638 668 638 756 q 599 533 638 600 q 493 398 561 465 q 336 260 425 331 q 146 115 247 190 l 378 117 q 476 122 440 117 q 537 154 511 128 q 594 240 563 181 q 617 240 606 240 q 642 238 629 240 q 595 99 611 154 q 565 -1 579 43 q 440 1 508 0 q 305 1 372 1 q 182 1 238 1 q 51 1 103 1 q -31 0 -1 1 q -35 38 -35 19 q 156 189 64 113 q 324 342 249 265 q 442 496 399 419 q 486 646 486 572 q 448 747 486 713 q 340 781 410 781 q 244 765 293 781 q 142 713 194 749 z "},"3":{"ha":719,"x_min":-51,"x_max":649,"o":"m 194 315 q 186 357 186 336 q 423 494 347 413 q 499 653 499 576 q 465 741 499 701 q 346 781 432 781 q 252 765 299 781 q 153 713 206 749 q 140 728 146 721 q 129 746 133 736 q 258 840 186 806 q 415 875 331 875 q 588 819 528 875 q 649 681 649 763 q 615 565 649 617 q 527 474 581 514 q 414 404 474 433 q 535 359 489 394 q 603 273 582 324 q 625 165 625 222 q 586 15 625 81 q 483 -98 547 -51 q 339 -169 418 -144 q 179 -193 260 -193 q 9 -153 69 -193 q -51 -62 -51 -114 q -34 -13 -51 -35 q 18 8 -17 8 q 88 -33 63 8 q 122 -137 113 -74 q 155 -142 138 -140 q 188 -143 172 -143 q 331 -106 264 -143 q 438 -6 397 -69 q 479 135 479 57 q 428 272 479 218 q 281 326 376 326 q 194 315 239 326 z "},"4":{"ha":793,"x_min":8,"x_max":739,"o":"m 714 151 l 567 151 l 506 -161 q 436 -162 471 -162 q 368 -161 401 -162 l 429 151 l 11 151 q 9 190 10 171 q 8 229 8 210 q 302 554 158 399 q 603 869 446 710 q 707 861 660 869 q 689 781 694 808 q 679 735 683 754 l 588 258 l 739 258 q 727 203 733 231 q 714 151 721 176 m 450 258 l 540 725 q 324 493 426 607 q 114 258 221 379 l 450 258 z "},"5":{"ha":721,"x_min":-22,"x_max":717,"o":"m 192 -193 q 63 -171 110 -193 q -3 -118 17 -149 q -22 -62 -22 -87 q -5 -10 -22 -31 q 46 11 13 11 q 150 -136 126 11 q 208 -140 186 -140 q 356 -100 293 -140 q 456 13 419 -60 q 492 179 492 85 q 435 342 492 297 q 281 388 378 388 q 199 382 242 388 q 125 365 157 376 l 117 369 l 261 851 l 717 861 q 695 794 707 829 q 669 726 683 758 l 288 726 l 219 496 q 277 503 250 501 q 329 506 304 506 q 505 468 438 506 q 603 367 572 431 q 635 224 635 303 q 601 60 635 136 q 508 -72 568 -15 q 367 -161 447 -129 q 192 -193 286 -193 z "},"6":{"ha":781,"x_min":65,"x_max":765,"o":"m 256 576 q 356 621 296 603 q 474 639 417 639 q 602 607 544 639 q 694 514 660 575 q 728 365 728 453 q 680 174 728 261 q 549 35 632 88 q 361 -17 467 -17 q 147 74 228 -17 q 65 338 65 165 q 101 552 65 449 q 199 743 136 656 q 347 896 263 831 q 530 997 431 961 q 736 1033 629 1033 q 748 1033 740 1033 q 765 1032 756 1033 q 758 979 765 1007 q 530 931 629 985 q 362 783 431 876 q 256 576 293 689 m 213 300 q 233 143 213 201 q 288 60 254 85 q 364 36 322 36 q 475 78 425 36 q 554 190 525 119 q 583 346 583 260 q 534 511 583 457 q 411 565 485 565 q 336 554 383 565 q 238 508 289 543 q 213 300 213 406 z "},"7":{"ha":678,"x_min":74,"x_max":724,"o":"m 260 -160 q 191 -162 228 -161 q 118 -161 154 -162 l 111 -143 q 261 155 178 3 q 435 454 344 307 q 615 735 525 601 q 465 735 522 735 q 374 736 407 736 q 322 735 340 736 q 288 735 304 735 q 221 725 250 733 q 167 688 192 717 q 119 593 143 658 q 99 594 110 593 q 74 600 89 594 q 114 733 96 667 q 146 861 132 799 q 326 856 236 857 q 500 854 415 854 q 581 855 539 854 q 659 856 624 856 q 711 858 694 857 q 724 818 722 842 q 589 580 657 704 q 459 328 521 456 q 346 76 397 200 q 260 -160 294 -47 z "},"8":{"ha":753,"x_min":36,"x_max":750,"o":"m 304 518 l 304 524 q 209 621 250 567 q 168 756 168 675 q 210 899 168 836 q 322 997 251 961 q 479 1033 393 1033 q 617 1005 556 1033 q 714 927 678 976 q 750 813 750 878 q 727 719 750 761 q 668 645 704 678 q 592 588 632 613 q 515 546 551 564 l 515 540 q 603 468 563 506 q 669 383 644 431 q 694 275 694 336 q 646 123 694 189 q 516 20 597 57 q 336 -17 435 -17 q 174 17 242 -17 q 72 106 107 50 q 36 225 36 161 q 77 353 36 299 q 180 447 118 407 q 304 518 242 488 m 347 490 q 226 377 272 439 q 181 229 181 315 q 199 133 181 178 q 254 61 217 89 q 347 33 292 33 q 447 58 400 33 q 524 128 494 83 q 554 231 554 172 q 525 331 554 288 q 449 413 496 375 q 347 490 401 450 m 468 574 q 576 683 542 622 q 610 808 610 743 q 594 894 610 854 q 547 959 578 935 q 469 983 515 983 q 388 961 426 983 q 325 899 349 939 q 301 804 301 858 q 324 712 301 751 q 385 640 347 672 q 468 574 424 607 z "},"9":{"ha":775,"x_min":10,"x_max":735,"o":"m 543 275 q 461 240 511 257 q 353 224 411 224 q 210 260 272 224 q 113 363 149 297 q 78 518 78 429 q 126 703 78 624 q 255 829 175 783 q 431 875 335 875 q 581 838 513 875 q 692 723 650 801 q 735 519 735 644 q 699 303 735 408 q 599 108 664 199 q 444 -49 535 18 q 244 -154 354 -117 q 10 -190 135 -192 q 11 -165 10 -178 q 15 -140 13 -153 q 256 -84 151 -140 q 433 67 361 -28 q 543 275 504 161 m 588 550 q 544 757 588 692 q 426 822 500 822 q 326 788 371 822 q 257 692 282 753 q 232 551 232 631 q 251 428 232 486 q 310 333 271 369 q 413 297 350 297 q 487 309 446 297 q 564 350 528 321 q 588 550 588 449 z "},"\u0000":{"ha":0,"x_min":0,"x_max":0,"o":""},"\r":{"ha":313,"x_min":0,"x_max":0,"o":""}," ":{"ha":361,"x_min":0,"x_max":0,"o":""}," ":{"ha":361,"x_min":0,"x_max":0,"o":""},"A":{"ha":911,"x_min":-117,"x_max":892,"o":"m 599 182 l 571 361 l 265 361 l 169 186 q 138 124 151 151 q 125 82 125 97 q 148 56 125 61 q 226 43 171 50 q 218 -1 226 19 q 163 0 199 0 q 90 1 126 0 q 33 1 54 1 q -40 1 -6 1 q -117 -1 -75 0 q -108 42 -117 21 q -40 51 -67 44 q 8 76 -14 57 q 58 137 31 94 q 131 256 86 179 q 221 414 169 324 q 329 603 272 504 q 440 797 386 701 q 540 971 494 893 q 576 978 560 975 q 607 982 592 981 l 750 189 q 769 110 760 139 q 792 69 778 82 q 829 52 806 57 q 892 43 853 47 q 883 -1 892 19 q 803 1 850 0 q 710 1 756 1 q 604 1 669 1 q 482 -1 539 0 q 485 22 483 10 q 490 43 486 33 q 565 53 540 49 q 599 70 590 57 q 608 113 608 83 q 607 134 608 119 q 599 182 606 149 m 299 419 l 561 419 l 503 792 l 299 419 z "},"B":{"ha":881,"x_min":-17,"x_max":839,"o":"m 414 -4 q 349 -3 389 -4 q 268 0 310 -1 q 192 1 226 1 q 126 1 167 1 q 47 -1 86 0 q -17 -1 7 -1 q -15 21 -17 8 q -10 43 -14 33 q 77 56 50 50 q 115 81 104 61 q 135 149 125 101 l 263 807 q 271 850 268 833 q 274 879 274 867 q 249 917 274 911 q 153 929 225 924 q 161 974 156 951 q 225 973 188 974 q 300 972 263 972 q 363 971 338 971 q 416 972 381 971 q 485 972 451 972 q 532 972 518 972 q 644 963 589 972 q 742 930 699 953 q 813 866 786 907 q 839 761 839 825 q 800 631 839 682 q 701 552 761 581 q 578 508 642 524 l 578 506 q 685 474 633 499 q 772 400 738 449 q 806 272 806 351 q 769 138 806 192 q 675 53 733 85 q 548 9 617 22 q 414 -4 479 -4 m 350 469 l 272 65 q 344 55 304 58 q 411 51 385 51 q 581 113 521 51 q 642 281 642 175 q 613 396 642 354 q 534 455 585 438 q 417 472 483 472 q 388 472 407 472 q 350 469 368 472 m 436 914 l 361 529 q 401 528 381 528 q 433 528 422 528 q 618 589 554 528 q 682 750 682 650 q 631 880 682 844 q 504 915 579 915 q 476 915 494 915 q 436 914 458 915 z "},"C":{"ha":978,"x_min":81,"x_max":978,"o":"m 499 -19 q 193 92 306 -19 q 81 404 81 203 q 123 635 81 529 q 241 821 165 742 q 420 944 317 900 q 644 988 524 988 q 770 976 715 988 q 867 953 825 965 q 940 942 910 942 q 960 943 949 942 q 978 946 971 944 q 962 822 969 886 q 947 686 954 757 q 923 684 935 685 q 899 683 911 683 q 833 868 892 806 q 656 931 775 931 q 497 895 565 931 q 381 800 429 860 q 303 666 333 740 q 260 514 274 592 q 247 365 247 436 q 309 127 247 217 q 507 38 371 38 q 703 99 615 38 q 838 286 792 160 q 863 286 849 286 q 889 285 878 286 q 857 164 871 225 q 832 39 843 103 q 663 -2 747 15 q 499 -19 579 -19 z "},"D":{"ha":1060,"x_min":-17,"x_max":1017,"o":"m -17 -1 q -15 21 -17 8 q -10 43 -14 33 q 74 55 47 49 q 113 81 101 61 q 135 149 125 101 l 263 807 q 271 851 268 833 q 274 881 274 868 q 249 919 274 913 q 153 929 225 925 q 161 974 154 950 q 223 973 186 974 q 295 972 260 972 q 349 971 331 971 q 410 972 368 971 q 493 973 451 972 q 556 974 535 974 q 797 933 693 974 q 958 804 900 892 q 1017 576 1017 717 q 969 327 1017 435 q 834 146 921 219 q 631 35 747 72 q 378 -1 514 -1 q 296 0 344 -1 q 203 1 247 1 q 131 1 172 1 q 51 -1 90 0 q -17 -1 11 -1 m 272 65 q 389 56 332 56 q 579 88 500 56 q 711 174 658 121 q 794 294 764 228 q 838 428 825 360 q 851 557 851 497 q 758 824 851 732 q 492 917 665 917 q 436 914 464 917 l 272 65 z "},"E":{"ha":864,"x_min":-17,"x_max":861,"o":"m -17 -1 q -15 21 -17 8 q -10 43 -14 33 q 77 55 50 49 q 115 81 104 61 q 135 149 126 101 l 263 807 q 271 850 268 832 q 274 879 274 868 q 249 917 274 911 q 153 929 225 924 q 156 951 154 940 q 163 974 157 961 q 233 973 189 974 q 328 972 276 972 q 425 971 379 971 l 615 971 q 760 972 700 971 q 860 974 821 972 l 860 913 q 860 836 860 875 q 861 753 861 797 q 819 753 839 749 q 781 853 799 818 q 728 901 763 888 q 626 914 694 914 l 440 914 l 367 535 l 451 535 q 531 538 501 535 q 578 555 560 542 q 610 597 596 568 q 642 676 624 625 q 693 676 668 681 q 672 590 683 639 q 651 501 660 542 q 635 413 643 461 q 621 319 626 364 q 568 319 593 315 q 572 351 571 335 q 572 379 572 368 q 560 446 572 426 q 519 470 547 465 q 439 475 490 475 l 356 475 l 275 60 l 472 60 q 599 77 551 60 q 679 136 646 94 q 750 247 713 178 q 803 247 776 254 q 753 104 772 165 q 724 0 735 43 q 449 1 588 0 q 175 1 310 1 q 80 0 136 1 q -17 -1 24 -1 z "},"F":{"ha":815,"x_min":-17,"x_max":871,"o":"m -17 -1 q -15 21 -17 8 q -10 43 -14 33 q 80 56 53 49 q 117 83 107 63 q 135 149 126 103 l 263 807 q 271 850 268 833 q 274 879 274 867 q 249 918 274 911 q 153 929 225 925 q 161 974 156 951 q 258 972 201 974 q 353 971 315 971 l 625 971 q 771 972 711 971 q 869 974 831 972 q 868 938 868 951 q 868 908 868 925 q 869 828 868 869 q 871 743 869 788 q 829 743 849 739 q 790 849 808 813 q 740 900 772 886 q 638 914 707 914 l 438 914 l 361 519 l 461 519 q 541 523 511 519 q 589 540 571 526 q 621 581 607 553 q 653 661 635 610 q 704 661 679 665 q 683 576 694 624 q 663 486 671 529 q 646 397 654 446 q 632 304 638 349 q 582 304 606 300 q 585 336 585 319 q 586 364 586 353 q 573 431 586 411 q 530 455 560 450 q 449 460 500 460 l 349 460 l 292 165 q 283 124 288 142 q 279 93 279 107 q 290 65 279 74 q 331 53 301 57 q 417 43 361 50 q 413 21 415 33 q 408 -1 411 8 q 301 0 357 -1 q 197 1 246 1 q 126 1 167 1 q 48 -1 86 0 q -17 -1 10 -1 z "},"G":{"ha":1069,"x_min":81,"x_max":1046,"o":"m 511 -21 q 197 88 313 -21 q 81 401 81 196 q 119 624 81 518 q 233 811 158 729 q 416 940 308 893 q 663 988 524 988 q 793 976 739 988 q 890 953 847 965 q 971 942 932 942 q 1008 946 992 942 q 993 822 1000 886 q 978 688 986 758 q 943 683 957 683 q 935 684 938 683 q 928 685 932 685 q 664 931 894 931 q 475 881 554 931 q 345 751 396 832 q 271 571 294 669 q 247 372 247 472 q 311 126 247 214 q 522 39 375 39 q 711 78 619 39 l 743 243 q 751 285 747 267 q 754 318 754 303 q 728 360 754 350 q 625 375 703 369 q 635 418 628 396 q 710 417 665 418 q 800 416 756 417 q 869 415 844 415 q 960 417 908 415 q 1046 418 1011 418 q 1044 398 1046 408 q 1038 376 1043 388 q 969 367 994 372 q 929 349 943 363 q 907 304 915 335 q 888 218 899 274 q 869 122 878 163 q 858 43 861 82 q 685 -2 775 17 q 511 -21 596 -21 z "},"H":{"ha":1128,"x_min":-17,"x_max":1197,"o":"m -17 -1 q -15 21 -17 8 q -10 43 -14 33 q 77 55 50 49 q 115 82 104 61 q 135 149 126 103 l 263 807 q 271 849 268 832 q 274 879 274 867 q 249 917 274 911 q 153 929 225 924 q 161 974 156 951 q 261 972 201 974 q 372 971 321 971 q 475 972 419 971 q 569 974 531 974 q 561 929 569 950 q 475 917 501 924 q 439 891 449 911 q 419 824 429 871 l 365 543 l 839 543 l 890 807 q 899 849 896 832 q 901 879 901 867 q 877 917 901 911 q 781 929 853 924 q 789 974 783 951 q 889 972 829 974 q 1000 971 949 971 q 1103 972 1047 971 q 1197 974 1158 974 q 1189 929 1197 950 q 1103 917 1129 924 q 1067 891 1076 911 q 1047 824 1057 871 l 919 165 q 911 124 915 142 q 907 93 907 107 q 929 56 907 63 q 1024 43 951 49 q 1020 21 1022 33 q 1015 -1 1018 8 q 922 0 975 -1 q 821 1 869 1 q 710 0 769 1 q 611 -1 650 -1 q 613 21 611 8 q 618 43 614 33 q 705 55 678 49 q 743 81 732 61 q 763 149 754 101 l 828 483 l 353 483 l 292 165 q 283 124 288 142 q 279 93 279 107 q 301 56 279 63 q 396 43 324 49 q 392 21 394 33 q 388 -1 390 8 q 294 0 347 -1 q 193 1 242 1 q 82 0 142 1 q -17 -1 22 -1 z "},"I":{"ha":500,"x_min":-17,"x_max":569,"o":"m -17 -1 q -15 21 -17 8 q -10 43 -14 33 q 77 55 50 49 q 115 82 104 61 q 135 149 126 103 l 263 807 q 271 849 268 832 q 274 879 274 867 q 249 917 274 911 q 153 929 225 924 q 161 974 156 951 q 261 972 201 974 q 372 971 321 971 q 475 972 419 971 q 569 974 531 974 q 561 929 569 950 q 475 917 501 924 q 439 891 449 911 q 419 824 429 871 l 292 165 q 283 124 286 140 q 279 93 279 107 q 301 56 279 63 q 396 43 324 49 q 392 21 394 33 q 388 -1 390 8 q 294 0 347 -1 q 193 1 242 1 q 82 0 142 1 q -17 -1 22 -1 z "},"J":{"ha":458,"x_min":-265,"x_max":557,"o":"m -142 -336 q -232 -312 -199 -336 q -265 -254 -265 -289 q -244 -197 -265 -222 q -175 -172 -222 -172 q -112 -197 -144 -172 q -61 -265 -79 -221 q 38 -165 1 -244 q 97 25 75 -86 l 249 807 q 257 849 254 832 q 260 879 260 867 q 235 917 260 911 q 139 929 211 924 q 147 974 142 951 q 245 972 183 974 q 358 971 307 971 q 463 972 407 971 q 557 974 518 974 q 549 929 557 950 q 462 917 489 924 q 425 892 435 911 q 406 824 415 872 l 263 90 q 200 -97 242 -17 q 106 -231 158 -178 q -14 -310 53 -283 q -142 -336 -81 -336 z "},"K":{"ha":964,"x_min":-17,"x_max":1039,"o":"m 640 0 q 529 219 589 111 q 400 443 469 326 q 365 408 382 425 q 332 376 347 390 l 292 165 q 283 124 288 142 q 279 93 279 107 q 301 56 279 63 q 396 43 324 49 q 392 21 394 33 q 388 -1 390 8 q 294 0 347 -1 q 193 1 242 1 q 82 0 142 1 q -17 -1 22 -1 q -15 21 -17 8 q -10 43 -14 33 q 77 55 50 49 q 115 81 104 61 q 135 149 126 101 l 263 807 q 271 849 268 832 q 274 879 274 867 q 249 917 274 911 q 153 929 225 924 q 161 974 156 951 q 261 972 201 974 q 372 971 321 971 q 475 972 419 971 q 569 974 531 974 q 561 929 569 950 q 475 918 501 925 q 439 891 449 911 q 419 824 429 871 l 353 478 l 679 783 q 772 894 772 871 q 757 917 772 908 q 685 929 742 925 q 688 951 686 940 q 693 974 689 963 q 753 973 717 974 q 827 972 790 972 q 886 971 864 971 q 967 972 931 971 q 1039 974 1004 974 q 1031 929 1039 953 q 931 906 976 928 q 835 842 886 885 q 710 731 783 799 l 510 549 q 622 359 572 446 q 724 181 671 272 q 766 110 749 136 q 801 71 783 85 q 847 51 819 57 q 921 43 875 46 q 913 0 921 19 q 849 1 886 0 q 774 1 811 1 q 711 1 736 1 q 678 1 696 1 q 640 0 660 0 z "},"L":{"ha":815,"x_min":-17,"x_max":796,"o":"m -17 -1 q -15 21 -17 8 q -10 43 -14 33 q 77 55 50 49 q 115 81 104 61 q 135 149 126 101 l 263 807 q 271 849 268 832 q 274 879 274 867 q 249 917 274 911 q 153 929 225 924 q 161 974 156 951 q 261 972 201 974 q 372 971 321 971 q 481 972 421 971 q 581 974 542 974 q 572 931 581 951 q 483 919 513 926 q 442 892 454 913 q 419 824 429 872 l 271 58 l 471 58 q 593 81 547 58 q 672 149 639 103 q 744 265 706 194 q 796 265 771 271 q 744 113 765 182 q 708 0 722 44 q 458 1 578 0 q 207 1 338 1 q 85 0 147 1 q -17 -1 22 -1 z "},"M":{"ha":1303,"x_min":-14,"x_max":1361,"o":"m 504 -4 l 343 846 l 201 171 q 192 100 192 124 q 216 59 192 69 q 310 43 240 49 q 308 22 308 33 q 304 0 307 10 q 228 1 274 0 q 151 1 182 1 q 74 1 121 1 q -14 0 26 0 q -12 21 -14 10 q -7 42 -11 32 q 73 56 49 49 q 107 85 97 64 q 126 154 117 106 l 260 801 q 269 868 269 849 q 242 912 269 900 q 147 929 215 924 q 149 951 147 940 q 154 974 150 961 q 243 972 194 974 q 322 971 292 971 q 381 971 350 971 q 437 972 411 971 q 472 972 463 972 l 618 206 l 1044 972 q 1110 971 1074 971 q 1168 971 1146 971 q 1273 972 1228 971 q 1361 974 1318 974 q 1360 951 1361 963 q 1353 929 1358 940 q 1269 915 1294 922 q 1233 888 1243 908 q 1214 818 1224 867 l 1097 171 q 1091 127 1092 144 q 1090 94 1090 110 q 1116 56 1090 64 q 1218 43 1142 49 q 1215 22 1217 33 q 1210 0 1214 10 q 1103 1 1167 0 q 986 1 1040 1 q 894 1 949 1 q 800 0 840 0 q 801 21 800 10 q 806 42 801 32 q 890 57 865 49 q 924 87 915 65 q 942 154 933 108 l 1074 893 l 578 1 q 544 -3 568 -1 q 504 -4 519 -6 z "},"N":{"ha":1060,"x_min":-31,"x_max":1163,"o":"m 767 -8 l 325 792 l 204 171 q 199 133 201 154 q 196 97 196 113 q 204 67 196 76 q 238 53 213 57 q 313 44 263 49 q 311 22 313 35 q 307 0 310 10 q 256 1 286 0 q 195 1 225 1 q 146 1 165 1 q 60 1 111 1 q -31 0 10 0 q -28 22 -29 10 q -22 43 -26 33 q 67 56 39 49 q 108 84 96 63 q 129 154 119 106 l 254 800 q 263 844 260 826 q 265 872 265 861 q 242 914 265 906 q 144 926 218 922 q 153 974 146 949 q 242 972 194 974 q 321 971 290 971 q 358 971 332 971 q 399 972 383 971 l 811 224 l 924 800 q 932 844 929 825 q 935 874 935 863 q 912 917 935 908 q 815 929 889 925 q 819 951 817 940 q 825 974 822 961 q 876 973 846 974 q 938 972 907 972 q 989 971 968 971 q 1072 972 1024 971 q 1163 974 1119 974 q 1160 952 1161 963 q 1154 931 1158 942 q 1062 918 1092 925 q 1021 890 1032 911 q 1000 818 1010 868 l 839 -3 q 803 -7 825 -6 q 767 -8 782 -8 z "},"O":{"ha":1094,"x_min":81,"x_max":1051,"o":"m 1051 572 q 1016 358 1051 464 q 910 167 981 253 q 736 31 840 82 q 496 -19 632 -19 q 298 18 378 -19 q 170 118 218 56 q 101 255 122 181 q 81 403 81 329 q 101 561 81 479 q 165 719 122 643 q 274 856 208 794 q 431 952 340 917 q 638 988 522 988 q 869 934 778 988 q 1006 787 961 881 q 1051 572 1051 693 m 885 601 q 827 841 885 751 q 642 931 769 931 q 476 883 549 931 q 351 756 403 836 q 274 577 300 676 q 247 372 247 478 q 306 128 247 221 q 496 36 365 36 q 665 86 592 36 q 787 219 738 136 q 860 401 836 301 q 885 601 885 501 z "},"P":{"ha":819,"x_min":-17,"x_max":840,"o":"m 483 433 q 420 437 454 433 q 347 453 386 440 l 292 171 q 283 126 286 146 q 279 90 279 106 q 290 62 279 71 q 330 50 300 53 q 417 43 360 47 q 408 0 417 19 q 333 1 375 0 q 254 1 292 1 q 196 1 217 1 q 127 1 167 1 q 49 -1 88 0 q -17 -1 11 -1 q -15 21 -17 8 q -10 43 -14 33 q 78 56 51 49 q 116 83 106 63 q 135 149 126 104 l 263 807 q 271 851 268 833 q 274 881 274 868 q 249 917 274 911 q 153 929 225 924 q 161 974 154 947 q 230 973 189 974 q 310 972 271 972 q 371 971 350 971 q 415 972 386 971 q 474 972 444 972 q 518 972 504 972 q 757 915 674 972 q 840 739 840 858 q 801 590 840 660 q 684 477 763 521 q 483 433 606 433 m 357 504 q 408 492 381 496 q 453 489 435 489 q 615 555 551 489 q 679 729 679 621 q 635 865 679 810 q 479 919 590 919 q 458 919 467 919 q 438 917 449 918 l 357 504 z "},"Q":{"ha":1094,"x_min":81,"x_max":1056,"o":"m 663 1 q 511 -50 568 -31 q 423 -80 454 -69 q 375 -96 392 -90 q 345 -106 358 -101 q 310 -117 332 -110 l 310 -122 q 488 -160 406 -136 q 648 -204 571 -185 q 803 -224 725 -224 q 922 -201 868 -224 q 1022 -108 975 -178 q 1056 -135 1043 -118 q 980 -245 1022 -194 q 880 -326 938 -296 q 743 -357 822 -357 q 627 -338 681 -357 q 520 -291 574 -319 q 407 -233 467 -262 q 273 -180 347 -203 q 103 -151 199 -157 q 111 -111 101 -129 q 267 -78 176 -104 q 442 -19 357 -53 l 442 -15 q 269 35 339 -6 q 158 137 199 76 q 99 267 117 197 q 81 403 81 336 q 101 561 81 479 q 165 719 122 643 q 274 856 208 794 q 431 952 340 917 q 638 988 522 988 q 869 934 778 988 q 1006 787 961 881 q 1051 571 1051 693 q 1010 343 1051 457 q 883 139 969 229 q 663 1 797 49 m 885 601 q 827 841 885 751 q 642 931 769 931 q 476 883 549 931 q 351 756 403 836 q 274 577 300 676 q 247 372 247 478 q 306 128 247 221 q 496 36 365 36 q 665 86 592 36 q 787 219 738 136 q 860 401 836 301 q 885 601 885 501 z "},"R":{"ha":924,"x_min":-15,"x_max":900,"o":"m 456 385 q 432 421 443 408 q 402 440 421 433 q 346 449 383 446 l 292 165 q 284 124 288 142 q 281 90 281 106 q 302 56 281 63 q 396 43 324 49 q 392 21 394 33 q 388 -1 390 8 q 291 1 344 0 q 190 1 238 1 q 92 1 143 1 q -15 -1 42 0 q -14 21 -15 8 q -8 43 -12 33 q 78 56 51 50 q 116 83 106 63 q 135 149 126 103 l 263 807 q 271 849 268 832 q 274 879 274 867 q 249 917 274 911 q 153 929 225 924 q 161 974 154 950 q 253 972 201 974 q 336 971 304 971 q 400 972 358 971 q 482 973 442 972 q 542 974 522 974 q 767 921 690 974 q 844 757 844 868 q 768 572 844 644 q 571 464 692 499 l 571 460 q 592 433 582 447 q 614 399 603 418 q 645 340 626 378 q 685 260 664 303 q 724 181 706 218 q 776 91 754 119 q 826 55 799 63 q 900 43 854 47 q 890 -1 900 21 q 832 -1 868 -1 q 761 1 796 0 q 706 1 726 1 q 670 1 683 1 q 635 0 657 0 q 584 123 613 57 q 523 257 556 189 q 456 385 490 325 m 357 506 q 395 501 375 503 q 435 499 415 499 q 578 532 522 499 q 660 621 633 565 q 686 743 686 676 q 673 824 686 785 q 624 890 660 864 q 522 917 589 917 q 484 916 510 917 q 436 914 458 915 l 357 506 z "},"S":{"ha":753,"x_min":13,"x_max":746,"o":"m 746 967 q 728 843 738 907 q 713 708 719 779 q 688 706 700 707 q 664 706 676 706 q 648 817 663 765 q 597 902 633 869 q 490 935 561 935 q 347 885 406 935 q 288 753 288 836 q 309 671 288 704 q 370 612 331 638 q 463 557 410 586 q 567 493 517 528 q 649 408 617 458 q 681 278 681 357 q 636 122 681 189 q 513 18 592 56 q 329 -19 433 -19 q 228 -10 274 -19 q 140 7 183 -1 q 47 15 97 15 q 28 15 38 15 q 13 14 19 15 q 40 141 26 72 q 67 290 53 210 q 113 292 88 294 q 111 276 111 282 q 111 268 111 271 q 172 97 111 157 q 333 36 232 36 q 435 55 386 36 q 514 115 483 74 q 544 219 544 156 q 520 314 544 276 q 452 381 496 351 q 350 442 408 410 q 251 504 299 471 q 172 585 203 538 q 142 706 142 633 q 188 855 142 792 q 315 953 233 918 q 503 988 397 988 q 626 975 579 988 q 707 963 674 963 q 727 964 715 963 q 746 967 739 965 z "},"T":{"ha":918,"x_min":101,"x_max":978,"o":"m 101 733 q 137 853 121 793 q 171 974 153 914 q 250 972 213 972 q 331 970 288 971 q 435 969 375 969 q 583 968 496 968 q 720 969 664 968 q 819 970 776 969 q 899 972 863 971 q 978 974 936 972 q 973 844 974 901 q 972 733 972 788 q 924 733 947 728 q 892 848 908 810 q 846 899 876 886 q 757 913 815 913 l 646 913 l 500 165 q 491 124 494 140 q 488 93 488 107 q 511 56 488 63 q 611 43 535 49 q 608 21 610 33 q 603 -1 606 8 q 506 0 563 -1 q 401 1 450 1 q 327 1 368 1 q 249 -1 286 0 q 185 -1 211 -1 q 186 21 185 8 q 192 43 188 33 q 284 55 256 49 q 324 82 313 61 q 343 149 335 103 l 492 913 l 407 913 q 313 906 349 913 q 253 880 278 899 q 207 826 229 861 q 153 733 185 790 q 101 733 126 728 z "},"U":{"ha":1021,"x_min":128,"x_max":1128,"o":"m 483 -15 q 291 24 367 -15 q 178 128 215 64 q 140 264 140 192 q 142 296 140 275 q 151 354 144 317 l 238 807 q 246 849 243 832 q 249 881 249 867 q 226 918 249 911 q 128 929 203 925 q 136 974 131 951 q 205 973 164 974 q 288 972 246 972 q 354 971 329 971 q 447 972 392 971 q 543 974 503 974 q 540 952 543 964 q 535 929 538 940 q 449 917 475 924 q 413 891 422 911 q 393 824 403 871 l 307 378 q 296 308 299 336 q 293 260 293 279 q 323 142 293 186 q 403 78 353 97 q 515 58 454 58 q 663 95 604 58 q 756 195 721 132 q 807 338 792 258 l 899 796 q 906 837 903 818 q 910 874 910 856 q 901 908 910 897 q 866 922 892 918 q 790 929 840 926 q 799 974 793 951 q 881 972 831 974 q 961 971 931 971 q 1039 972 992 971 q 1128 974 1086 974 q 1118 931 1128 950 q 1031 918 1058 925 q 994 890 1004 911 q 974 818 983 868 l 878 344 q 808 153 856 235 q 681 28 760 72 q 483 -15 601 -15 z "},"V":{"ha":908,"x_min":65,"x_max":1078,"o":"m 358 788 l 460 188 l 799 786 q 829 848 818 819 q 840 890 840 876 q 820 917 840 911 q 743 929 800 924 q 751 974 743 953 q 805 973 771 974 q 873 972 839 972 q 928 971 907 971 q 1002 972 968 971 q 1078 974 1036 972 q 1069 931 1078 951 q 1001 920 1028 926 q 953 894 975 914 q 905 833 932 875 q 835 717 878 792 l 424 0 q 386 -6 404 -4 q 353 -10 368 -8 l 207 783 q 188 862 197 833 q 165 903 179 890 q 128 920 151 915 q 65 929 104 925 q 74 974 65 953 q 154 972 107 972 q 247 971 201 971 q 353 972 288 971 q 475 974 419 972 q 472 952 474 964 q 467 929 471 940 q 392 920 418 925 q 358 902 367 915 q 349 860 349 889 q 358 788 349 850 z "},"W":{"ha":1365,"x_min":81,"x_max":1526,"o":"m 453 193 l 703 613 l 678 783 q 663 862 671 833 q 643 903 656 890 q 608 920 631 915 q 546 929 585 925 q 554 974 546 953 q 635 972 588 972 q 728 971 682 971 q 831 972 768 971 q 949 974 893 972 q 946 952 947 964 q 940 929 944 940 q 865 920 892 925 q 829 902 839 915 q 819 860 819 889 q 822 829 819 853 q 828 772 824 806 l 907 196 l 1238 786 q 1269 848 1257 819 q 1282 890 1282 876 q 1260 917 1282 911 q 1181 929 1238 924 q 1189 974 1181 953 q 1244 973 1208 974 q 1317 972 1281 972 q 1374 971 1353 971 q 1449 972 1414 971 q 1526 974 1485 972 q 1518 931 1526 951 q 1450 920 1476 926 q 1401 894 1424 914 q 1349 833 1378 875 q 1276 717 1321 792 q 1185 558 1236 649 q 1079 369 1135 468 q 969 174 1024 269 q 868 1 915 79 q 830 -6 849 -3 q 796 -10 811 -8 l 718 514 q 615 338 668 429 q 509 159 561 246 q 414 1 457 72 q 376 -6 394 -3 q 342 -10 357 -8 l 219 783 q 197 880 210 851 q 159 916 185 908 q 81 929 133 924 q 89 974 81 953 q 169 972 122 972 q 263 971 217 971 q 365 972 303 971 q 483 974 428 972 q 481 952 482 964 q 475 929 479 940 q 402 920 426 925 q 371 902 378 915 q 364 860 364 889 q 365 837 364 853 q 371 788 367 821 l 453 193 z "},"X":{"ha":929,"x_min":-94,"x_max":1042,"o":"m 449 0 q 450 21 449 10 q 456 42 451 32 q 542 56 513 49 q 571 86 571 63 q 567 108 571 94 q 556 140 564 122 l 440 408 l 204 146 q 176 111 186 125 q 167 85 167 97 q 185 57 167 67 q 268 43 204 47 q 267 22 268 33 q 263 0 265 10 q 220 0 249 0 q 159 1 192 0 q 99 1 126 1 q 56 1 71 1 q -19 1 21 1 q -94 0 -60 0 q -93 22 -94 11 q -87 43 -92 33 q -12 58 -46 47 q 63 101 22 69 q 161 196 103 132 l 413 472 l 267 808 q 227 883 246 858 q 181 916 208 907 q 104 929 154 925 q 106 952 104 940 q 113 974 107 964 q 224 972 161 974 q 338 971 288 971 q 429 972 383 971 q 524 974 475 974 q 522 952 524 964 q 515 929 521 940 q 435 914 463 924 q 407 881 407 904 q 410 860 407 869 q 422 829 413 850 l 528 586 l 743 826 q 771 861 761 847 q 781 888 781 875 q 762 915 781 906 q 679 929 743 925 q 681 951 679 940 q 685 972 682 963 q 728 972 700 972 q 788 972 756 972 q 849 971 821 971 q 892 971 878 971 q 967 972 926 971 q 1042 972 1007 972 q 1040 951 1042 963 q 1035 929 1039 940 q 959 914 993 925 q 885 872 925 903 q 786 776 844 840 l 556 521 l 700 186 q 747 98 726 126 q 798 59 768 69 q 876 43 828 49 q 873 22 875 33 q 868 0 871 10 q 769 1 818 0 q 668 1 719 1 q 553 1 613 1 q 449 0 493 0 z "},"Y":{"ha":835,"x_min":69,"x_max":1004,"o":"m 350 397 l 217 788 q 181 878 196 850 q 141 916 165 907 q 69 929 117 925 q 76 974 69 949 q 174 972 126 972 q 272 971 221 971 q 382 972 325 971 q 478 974 439 974 q 476 952 478 964 q 468 929 474 940 q 372 912 394 924 q 350 881 350 900 q 369 806 350 863 l 482 479 l 725 821 q 751 863 744 849 q 757 889 757 876 q 735 915 757 907 q 649 929 714 924 q 658 974 650 950 q 715 973 682 974 q 781 972 747 972 q 836 971 814 971 q 921 972 881 971 q 1004 974 961 972 q 1000 952 1003 964 q 994 929 997 940 q 927 919 954 925 q 878 899 900 913 q 833 856 857 885 q 772 776 808 826 l 506 407 l 458 165 q 449 124 453 140 q 446 93 446 107 q 469 56 446 63 q 569 43 493 49 q 566 21 568 33 q 561 -1 564 8 q 465 0 521 -1 q 360 1 408 1 q 285 1 326 1 q 207 -1 244 0 q 143 -1 169 -1 q 144 21 143 8 q 150 43 146 33 q 242 55 214 49 q 282 82 271 61 q 301 149 293 103 l 350 397 z "},"Z":{"ha":876,"x_min":-26,"x_max":931,"o":"m -26 26 l 719 913 l 429 913 q 342 905 376 913 q 285 878 308 897 q 239 821 261 858 q 188 724 217 783 q 136 724 161 721 q 169 849 154 786 q 199 974 185 911 q 302 971 256 972 q 403 969 349 969 q 539 968 458 968 q 733 969 640 968 q 926 972 826 969 q 931 939 931 958 l 192 60 l 485 60 q 608 81 564 60 q 685 147 653 101 q 757 267 717 193 q 807 267 783 271 q 758 114 776 181 q 726 0 740 47 q 558 1 636 0 q 426 1 481 1 q 353 1 372 1 q 165 1 261 1 q -22 -1 69 0 q -25 12 -24 4 q -26 26 -26 19 z "},"À":{"ha":911,"x_min":-117,"x_max":892,"o":"m 599 182 l 571 361 l 265 361 l 169 186 q 138 124 151 151 q 125 82 125 97 q 148 56 125 61 q 226 43 171 50 q 218 -1 226 19 q 163 0 199 0 q 90 1 126 0 q 33 1 54 1 q -40 1 -6 1 q -117 -1 -75 0 q -108 42 -117 21 q -40 51 -67 44 q 8 76 -14 57 q 58 137 31 94 q 131 256 86 179 q 221 414 169 324 q 329 603 272 504 q 440 797 386 701 q 540 971 494 893 q 576 978 560 975 q 607 982 592 981 l 750 189 q 769 110 760 139 q 792 69 778 82 q 829 52 806 57 q 892 43 853 47 q 883 -1 892 19 q 803 1 850 0 q 710 1 756 1 q 604 1 669 1 q 482 -1 539 0 q 485 22 483 10 q 490 43 486 33 q 565 53 540 49 q 599 70 590 57 q 608 113 608 83 q 607 134 608 119 q 599 182 606 149 m 299 419 l 561 419 l 503 792 l 299 419 m 407 1172 l 407 1176 q 459 1237 428 1210 q 510 1265 490 1264 q 590 1159 547 1213 q 674 1053 632 1106 q 662 1034 668 1042 q 646 1021 656 1026 q 526 1099 588 1060 q 407 1172 465 1138 z "},"Á":{"ha":911,"x_min":-117,"x_max":892,"o":"m 599 182 l 571 361 l 265 361 l 169 186 q 138 124 151 151 q 125 82 125 97 q 148 56 125 61 q 226 43 171 50 q 218 -1 226 19 q 163 0 199 0 q 90 1 126 0 q 33 1 54 1 q -40 1 -6 1 q -117 -1 -75 0 q -108 42 -117 21 q -40 51 -67 44 q 8 76 -14 57 q 58 137 31 94 q 131 256 86 179 q 221 414 169 324 q 329 603 272 504 q 440 797 386 701 q 540 971 494 893 q 576 978 560 975 q 607 982 592 981 l 750 189 q 769 110 760 139 q 792 69 778 82 q 829 52 806 57 q 892 43 853 47 q 883 -1 892 19 q 803 1 850 0 q 710 1 756 1 q 604 1 669 1 q 482 -1 539 0 q 485 22 483 10 q 490 43 486 33 q 565 53 540 49 q 599 70 590 57 q 608 113 608 83 q 607 134 608 119 q 599 182 606 149 m 299 419 l 561 419 l 503 792 l 299 419 m 789 1175 l 789 1171 q 653 1099 726 1139 q 507 1021 581 1060 q 492 1034 497 1026 q 479 1053 486 1042 q 692 1265 590 1157 q 741 1236 714 1264 q 789 1175 768 1208 z "},"Â":{"ha":911,"x_min":-117,"x_max":892,"o":"m 599 182 l 571 361 l 265 361 l 169 186 q 138 124 151 151 q 125 82 125 97 q 148 56 125 61 q 226 43 171 50 q 218 -1 226 19 q 163 0 199 0 q 90 1 126 0 q 33 1 54 1 q -40 1 -6 1 q -117 -1 -75 0 q -108 42 -117 21 q -40 51 -67 44 q 8 76 -14 57 q 58 137 31 94 q 131 256 86 179 q 221 414 169 324 q 329 603 272 504 q 440 797 386 701 q 540 971 494 893 q 576 978 560 975 q 607 982 592 981 l 750 189 q 769 110 760 139 q 792 69 778 82 q 829 52 806 57 q 892 43 853 47 q 883 -1 892 19 q 803 1 850 0 q 710 1 756 1 q 604 1 669 1 q 482 -1 539 0 q 485 22 483 10 q 490 43 486 33 q 565 53 540 49 q 599 70 590 57 q 608 113 608 83 q 607 134 608 119 q 599 182 606 149 m 299 419 l 561 419 l 503 792 l 299 419 m 604 1151 q 525 1103 568 1129 q 443 1054 482 1076 q 382 1021 404 1032 q 351 1049 364 1032 q 430 1120 389 1082 q 508 1194 471 1158 q 568 1256 544 1231 q 621 1261 588 1261 q 675 1256 654 1261 q 740 1142 704 1201 q 804 1040 775 1083 q 769 1021 788 1028 q 691 1080 738 1042 q 604 1151 644 1118 z "},"Ã":{"ha":911,"x_min":-117,"x_max":892,"o":"m 599 182 l 571 361 l 265 361 l 169 186 q 138 124 151 151 q 125 82 125 97 q 148 56 125 61 q 226 43 171 50 q 218 -1 226 19 q 163 0 199 0 q 90 1 126 0 q 33 1 54 1 q -40 1 -6 1 q -117 -1 -75 0 q -108 42 -117 21 q -40 51 -67 44 q 8 76 -14 57 q 58 137 31 94 q 131 256 86 179 q 221 414 169 324 q 329 603 272 504 q 440 797 386 701 q 540 971 494 893 q 576 978 560 975 q 607 982 592 981 l 750 189 q 769 110 760 139 q 792 69 778 82 q 829 52 806 57 q 892 43 853 47 q 883 -1 892 19 q 803 1 850 0 q 710 1 756 1 q 604 1 669 1 q 482 -1 539 0 q 485 22 483 10 q 490 43 486 33 q 565 53 540 49 q 599 70 590 57 q 608 113 608 83 q 607 134 608 119 q 599 182 606 149 m 299 419 l 561 419 l 503 792 l 299 419 m 822 1244 q 844 1238 833 1242 q 864 1229 854 1233 q 781 1100 832 1143 q 674 1057 731 1057 q 632 1065 651 1057 q 588 1088 613 1072 q 536 1117 557 1107 q 492 1128 515 1128 q 393 1049 432 1128 q 351 1064 374 1053 q 434 1189 385 1144 q 543 1233 483 1233 q 586 1226 567 1233 q 628 1203 606 1218 q 674 1174 653 1188 q 719 1161 694 1161 q 774 1182 747 1161 q 822 1244 801 1203 z "},"Ä":{"ha":911,"x_min":-117,"x_max":892,"o":"m 599 182 l 571 361 l 265 361 l 169 186 q 138 124 151 151 q 125 82 125 97 q 148 56 125 61 q 226 43 171 50 q 218 -1 226 19 q 163 0 199 0 q 90 1 126 0 q 33 1 54 1 q -40 1 -6 1 q -117 -1 -75 0 q -108 42 -117 21 q -40 51 -67 44 q 8 76 -14 57 q 58 137 31 94 q 131 256 86 179 q 221 414 169 324 q 329 603 272 504 q 440 797 386 701 q 540 971 494 893 q 576 978 560 975 q 607 982 592 981 l 750 189 q 769 110 760 139 q 792 69 778 82 q 829 52 806 57 q 892 43 853 47 q 883 -1 892 19 q 803 1 850 0 q 710 1 756 1 q 604 1 669 1 q 482 -1 539 0 q 485 22 483 10 q 490 43 486 33 q 565 53 540 49 q 599 70 590 57 q 608 113 608 83 q 607 134 608 119 q 599 182 606 149 m 299 419 l 561 419 l 503 792 l 299 419 m 451 1043 q 395 1066 417 1043 q 374 1122 374 1089 q 401 1189 374 1161 q 467 1217 428 1217 q 523 1194 503 1217 q 543 1138 543 1172 q 517 1071 543 1099 q 451 1043 492 1043 m 729 1043 q 673 1066 694 1043 q 651 1122 651 1089 q 678 1189 651 1161 q 744 1217 706 1217 q 801 1194 781 1217 q 821 1138 821 1172 q 795 1071 821 1099 q 729 1043 769 1043 z "},"Ā":{"ha":911,"x_min":-117,"x_max":892,"o":"m 599 182 l 571 361 l 265 361 l 169 186 q 138 124 151 151 q 125 82 125 97 q 148 56 125 61 q 226 43 171 50 q 218 -1 226 19 q 163 0 199 0 q 90 1 126 0 q 33 1 54 1 q -40 1 -6 1 q -117 -1 -75 0 q -108 42 -117 21 q -40 51 -67 44 q 8 76 -14 57 q 58 137 31 94 q 131 256 86 179 q 221 414 169 324 q 329 603 272 504 q 440 797 386 701 q 540 971 494 893 q 576 978 560 975 q 607 982 592 981 l 750 189 q 769 110 760 139 q 792 69 778 82 q 829 52 806 57 q 892 43 853 47 q 883 -1 892 19 q 803 1 850 0 q 710 1 756 1 q 604 1 669 1 q 482 -1 539 0 q 485 22 483 10 q 490 43 486 33 q 565 53 540 49 q 599 70 590 57 q 608 113 608 83 q 607 134 608 119 q 599 182 606 149 m 299 419 l 561 419 l 503 792 l 299 419 m 401 1143 l 793 1143 q 781 1076 792 1110 l 389 1076 q 401 1143 392 1110 z "},"Ă":{"ha":911,"x_min":-117,"x_max":892,"o":"m 599 182 l 571 361 l 265 361 l 169 186 q 138 124 151 151 q 125 82 125 97 q 148 56 125 61 q 226 43 171 50 q 218 -1 226 19 q 163 0 199 0 q 90 1 126 0 q 33 1 54 1 q -40 1 -6 1 q -117 -1 -75 0 q -108 42 -117 21 q -40 51 -67 44 q 8 76 -14 57 q 58 137 31 94 q 131 256 86 179 q 221 414 169 324 q 329 603 272 504 q 440 797 386 701 q 540 971 494 893 q 576 978 560 975 q 607 982 592 981 l 750 189 q 769 110 760 139 q 792 69 778 82 q 829 52 806 57 q 892 43 853 47 q 883 -1 892 19 q 803 1 850 0 q 710 1 756 1 q 604 1 669 1 q 482 -1 539 0 q 485 22 483 10 q 490 43 486 33 q 565 53 540 49 q 599 70 590 57 q 608 113 608 83 q 607 134 608 119 q 599 182 606 149 m 299 419 l 561 419 l 503 792 l 299 419 m 440 1269 q 483 1169 444 1197 q 586 1140 522 1140 q 701 1169 651 1140 q 785 1269 750 1199 q 806 1265 796 1268 q 826 1260 817 1263 q 781 1146 815 1197 q 694 1063 746 1094 q 576 1032 642 1032 q 440 1091 490 1032 q 396 1260 389 1150 q 417 1265 408 1263 q 440 1269 426 1268 z "},"Å":{"ha":911,"x_min":-117,"x_max":892,"o":"m 599 182 l 571 361 l 265 361 l 169 186 q 138 124 151 151 q 125 82 125 97 q 148 56 125 61 q 226 43 171 50 q 218 -1 226 19 q 163 0 199 0 q 90 1 126 0 q 33 1 54 1 q -40 1 -6 1 q -117 -1 -75 0 q -108 42 -117 21 q -40 51 -67 44 q 8 76 -14 57 q 58 137 31 94 q 131 256 86 179 q 221 414 169 324 q 329 603 272 504 q 440 797 386 701 q 540 971 494 893 q 576 978 560 975 q 607 982 592 981 l 750 189 q 769 110 760 139 q 792 69 778 82 q 829 52 806 57 q 892 43 853 47 q 883 -1 892 19 q 803 1 850 0 q 710 1 756 1 q 604 1 669 1 q 482 -1 539 0 q 485 22 483 10 q 490 43 486 33 q 565 53 540 49 q 599 70 590 57 q 608 113 608 83 q 607 134 608 119 q 599 182 606 149 m 299 419 l 561 419 l 503 792 l 299 419 m 440 1138 q 492 1239 440 1203 q 613 1275 544 1275 q 712 1246 671 1275 q 753 1160 753 1217 q 704 1060 753 1097 q 585 1022 656 1022 q 517 1034 550 1022 q 462 1071 483 1046 q 440 1138 440 1096 m 608 1238 q 547 1209 572 1238 q 522 1140 522 1181 q 540 1085 522 1108 q 592 1061 558 1061 q 651 1091 629 1061 q 672 1160 672 1121 q 657 1215 672 1192 q 608 1238 642 1238 z "},"Æ":{"ha":1285,"x_min":-146,"x_max":1282,"o":"m 413 -1 q 414 21 413 8 q 419 43 415 33 q 506 55 479 49 q 544 81 533 61 q 564 149 556 101 l 624 457 l 360 457 l 182 214 q 129 136 151 171 q 107 82 107 101 q 130 56 107 61 q 208 43 153 50 q 200 -1 208 19 q 144 0 181 0 q 69 1 107 0 q 11 1 32 1 q -66 1 -28 1 q -146 -1 -104 0 q -137 42 -146 21 q -69 51 -96 44 q -17 78 -42 58 q 40 140 7 99 q 126 253 72 181 l 621 918 q 572 925 601 924 q 508 929 543 926 q 511 951 510 940 q 518 974 513 961 q 578 973 538 974 q 670 972 619 972 q 769 972 721 972 q 853 971 818 971 l 1036 971 q 1181 972 1121 971 q 1281 974 1242 972 l 1281 913 q 1281 836 1281 875 q 1282 753 1282 797 q 1240 753 1260 749 q 1201 853 1219 818 q 1149 901 1183 888 q 1047 914 1115 914 l 867 914 l 789 515 l 871 515 q 950 519 921 515 q 997 535 979 522 q 1028 578 1015 549 q 1060 661 1042 608 q 1111 661 1086 665 q 1090 573 1101 624 q 1069 482 1078 522 q 1053 397 1061 442 q 1040 307 1046 351 q 988 307 1013 303 q 991 339 990 322 q 992 367 992 356 q 981 427 992 408 q 944 451 971 446 q 865 457 917 457 l 778 457 l 701 60 l 893 60 q 1019 77 972 60 q 1100 136 1067 94 q 1171 247 1133 178 q 1224 247 1197 254 q 1174 104 1193 165 q 1144 0 1156 43 q 874 1 1008 0 q 604 1 739 1 q 509 0 565 1 q 413 -1 453 -1 m 693 914 l 401 515 l 635 515 l 713 914 l 693 914 z "},"Ǣ":{"ha":1285,"x_min":-146,"x_max":1282,"o":"m 413 -1 q 414 21 413 8 q 419 43 415 33 q 506 55 479 49 q 544 81 533 61 q 564 149 556 101 l 624 457 l 360 457 l 182 214 q 129 136 151 171 q 107 82 107 101 q 130 56 107 61 q 208 43 153 50 q 200 -1 208 19 q 144 0 181 0 q 69 1 107 0 q 11 1 32 1 q -66 1 -28 1 q -146 -1 -104 0 q -137 42 -146 21 q -69 51 -96 44 q -17 78 -42 58 q 40 140 7 99 q 126 253 72 181 l 621 918 q 572 925 601 924 q 508 929 543 926 q 511 951 510 940 q 518 974 513 961 q 578 973 538 974 q 670 972 619 972 q 769 972 721 972 q 853 971 818 971 l 1036 971 q 1181 972 1121 971 q 1281 974 1242 972 l 1281 913 q 1281 836 1281 875 q 1282 753 1282 797 q 1240 753 1260 749 q 1201 853 1219 818 q 1149 901 1183 888 q 1047 914 1115 914 l 867 914 l 789 515 l 871 515 q 950 519 921 515 q 997 535 979 522 q 1028 578 1015 549 q 1060 661 1042 608 q 1111 661 1086 665 q 1090 573 1101 624 q 1069 482 1078 522 q 1053 397 1061 442 q 1040 307 1046 351 q 988 307 1013 303 q 991 339 990 322 q 992 367 992 356 q 981 427 992 408 q 944 451 971 446 q 865 457 917 457 l 778 457 l 701 60 l 893 60 q 1019 77 972 60 q 1100 136 1067 94 q 1171 247 1133 178 q 1224 247 1197 254 q 1174 104 1193 165 q 1144 0 1156 43 q 874 1 1008 0 q 604 1 739 1 q 509 0 565 1 q 413 -1 453 -1 m 693 914 l 401 515 l 635 515 l 713 914 l 693 914 m 756 1143 l 1147 1143 q 1135 1076 1146 1110 l 743 1076 q 756 1143 746 1110 z "},"Ĉ":{"ha":978,"x_min":81,"x_max":978,"o":"m 499 -19 q 193 92 306 -19 q 81 404 81 203 q 123 635 81 529 q 241 821 165 742 q 420 944 317 900 q 644 988 524 988 q 770 976 715 988 q 867 953 825 965 q 940 942 910 942 q 960 943 949 942 q 978 946 971 944 q 962 822 969 886 q 947 686 954 757 q 923 684 935 685 q 899 683 911 683 q 833 868 892 806 q 656 931 775 931 q 497 895 565 931 q 381 800 429 860 q 303 666 333 740 q 260 514 274 592 q 247 365 247 436 q 309 127 247 217 q 507 38 371 38 q 703 99 615 38 q 838 286 792 160 q 863 286 849 286 q 889 285 878 286 q 857 164 871 225 q 832 39 843 103 q 663 -2 747 15 q 499 -19 579 -19 m 694 1151 q 615 1103 658 1129 q 533 1054 572 1076 q 472 1021 494 1032 q 442 1049 454 1032 q 520 1120 479 1082 q 598 1194 561 1158 q 658 1256 635 1231 q 711 1261 678 1261 q 765 1256 744 1261 q 830 1142 794 1201 q 894 1040 865 1083 q 860 1021 878 1028 q 781 1080 828 1042 q 694 1151 735 1118 z "},"Č":{"ha":978,"x_min":81,"x_max":978,"o":"m 499 -19 q 193 92 306 -19 q 81 404 81 203 q 123 635 81 529 q 241 821 165 742 q 420 944 317 900 q 644 988 524 988 q 770 976 715 988 q 867 953 825 965 q 940 942 910 942 q 960 943 949 942 q 978 946 971 944 q 962 822 969 886 q 947 686 954 757 q 923 684 935 685 q 899 683 911 683 q 833 868 892 806 q 656 931 775 931 q 497 895 565 931 q 381 800 429 860 q 303 666 333 740 q 260 514 274 592 q 247 365 247 436 q 309 127 247 217 q 507 38 371 38 q 703 99 615 38 q 838 286 792 160 q 863 286 849 286 q 889 285 878 286 q 857 164 871 225 q 832 39 843 103 q 663 -2 747 15 q 499 -19 579 -19 m 683 1131 q 763 1179 719 1153 q 844 1228 806 1206 q 906 1261 883 1250 q 936 1233 924 1250 q 858 1162 899 1200 q 780 1088 817 1124 q 719 1026 743 1053 q 667 1021 700 1021 q 613 1026 633 1021 q 548 1140 583 1081 q 483 1242 513 1199 q 518 1261 500 1254 q 597 1202 550 1240 q 683 1131 643 1164 z "},"Ç":{"ha":978,"x_min":81,"x_max":978,"o":"m 499 -19 q 482 -19 490 -19 l 451 -74 q 555 -121 525 -85 q 585 -203 585 -157 q 557 -290 585 -256 q 485 -342 529 -325 q 392 -360 442 -360 q 308 -337 333 -360 q 283 -292 283 -315 q 299 -256 283 -271 q 336 -242 314 -242 q 378 -258 356 -242 q 417 -314 401 -274 q 480 -294 461 -312 q 499 -249 499 -275 q 462 -183 499 -208 q 357 -153 425 -158 l 354 -146 l 428 -15 q 193 92 285 1 q 81 404 81 203 q 123 635 81 529 q 241 821 165 742 q 420 944 317 900 q 644 988 524 988 q 770 976 715 988 q 867 953 825 965 q 940 942 910 942 q 960 943 949 942 q 978 946 971 944 q 962 822 969 886 q 947 686 954 757 q 923 684 935 685 q 899 683 911 683 q 833 868 892 806 q 656 931 775 931 q 497 895 565 931 q 381 800 429 860 q 303 666 333 740 q 260 514 274 592 q 247 365 247 436 q 309 127 247 217 q 507 38 371 38 q 703 99 615 38 q 838 286 792 160 l 864 286 q 889 285 878 286 q 857 164 871 225 q 832 39 843 103 q 663 -2 747 15 q 499 -19 579 -19 z "},"Ḍ":{"ha":1060,"x_min":-17,"x_max":1017,"o":"m -17 -1 q -15 21 -17 8 q -10 43 -14 33 q 74 55 47 49 q 113 81 101 61 q 135 149 125 101 l 263 807 q 271 851 268 833 q 274 881 274 868 q 249 919 274 913 q 153 929 225 925 q 161 974 154 950 q 223 973 186 974 q 295 972 260 972 q 349 971 331 971 q 410 972 368 971 q 493 973 451 972 q 556 974 535 974 q 797 933 693 974 q 958 804 900 892 q 1017 576 1017 717 q 969 327 1017 435 q 834 146 921 219 q 631 35 747 72 q 378 -1 514 -1 q 296 0 344 -1 q 203 1 247 1 q 131 1 172 1 q 51 -1 90 0 q -17 -1 11 -1 m 272 65 q 389 56 332 56 q 579 88 500 56 q 711 174 658 121 q 794 294 764 228 q 838 428 825 360 q 851 557 851 497 q 758 824 851 732 q 492 917 665 917 q 436 914 464 917 l 272 65 m 324 -301 q 261 -276 285 -301 q 238 -215 238 -251 q 267 -144 238 -174 q 340 -114 297 -114 q 401 -138 379 -114 q 424 -199 424 -162 q 396 -271 424 -240 q 324 -301 368 -301 z "},"Ḏ":{"ha":1060,"x_min":-17,"x_max":1017,"o":"m -17 -1 q -15 21 -17 8 q -10 43 -14 33 q 74 55 47 49 q 113 81 101 61 q 135 149 125 101 l 263 807 q 271 851 268 833 q 274 881 274 868 q 249 919 274 913 q 153 929 225 925 q 161 974 154 950 q 223 973 186 974 q 295 972 260 972 q 349 971 331 971 q 410 972 368 971 q 493 973 451 972 q 556 974 535 974 q 797 933 693 974 q 958 804 900 892 q 1017 576 1017 717 q 969 327 1017 435 q 834 146 921 219 q 631 35 747 72 q 378 -1 514 -1 q 296 0 344 -1 q 203 1 247 1 q 131 1 172 1 q 51 -1 90 0 q -17 -1 11 -1 m 272 65 q 389 56 332 56 q 579 88 500 56 q 711 174 658 121 q 794 294 764 228 q 838 428 825 360 q 851 557 851 497 q 758 824 851 732 q 492 917 665 917 q 436 914 464 917 l 272 65 m 150 -143 l 533 -143 q 521 -212 531 -179 l 138 -212 q 150 -143 140 -175 z "},"È":{"ha":864,"x_min":-17,"x_max":861,"o":"m -17 -1 q -15 21 -17 8 q -10 43 -14 33 q 77 55 50 49 q 115 81 104 61 q 135 149 126 101 l 263 807 q 271 850 268 832 q 274 879 274 868 q 249 917 274 911 q 153 929 225 924 q 156 951 154 940 q 163 974 157 961 q 233 973 189 974 q 328 972 276 972 q 425 971 379 971 l 615 971 q 760 972 700 971 q 860 974 821 972 l 860 913 q 860 836 860 875 q 861 753 861 797 q 819 753 839 749 q 781 853 799 818 q 728 901 763 888 q 626 914 694 914 l 440 914 l 367 535 l 451 535 q 531 538 501 535 q 578 555 560 542 q 610 597 596 568 q 642 676 624 625 q 693 676 668 681 q 672 590 683 639 q 651 501 660 542 q 635 413 643 461 q 621 319 626 364 q 568 319 593 315 q 572 351 571 335 q 572 379 572 368 q 560 446 572 426 q 519 470 547 465 q 439 475 490 475 l 356 475 l 275 60 l 472 60 q 599 77 551 60 q 679 136 646 94 q 750 247 713 178 q 803 247 776 254 q 753 104 772 165 q 724 0 735 43 q 449 1 588 0 q 175 1 310 1 q 80 0 136 1 q -17 -1 24 -1 m 379 1172 l 379 1176 q 431 1237 400 1210 q 482 1265 463 1264 q 562 1159 519 1213 q 646 1053 604 1106 q 634 1034 640 1042 q 618 1021 628 1026 q 499 1099 560 1060 q 379 1172 438 1138 z "},"É":{"ha":864,"x_min":-17,"x_max":861,"o":"m -17 -1 q -15 21 -17 8 q -10 43 -14 33 q 77 55 50 49 q 115 81 104 61 q 135 149 126 101 l 263 807 q 271 850 268 832 q 274 879 274 868 q 249 917 274 911 q 153 929 225 924 q 156 951 154 940 q 163 974 157 961 q 233 973 189 974 q 328 972 276 972 q 425 971 379 971 l 615 971 q 760 972 700 971 q 860 974 821 972 l 860 913 q 860 836 860 875 q 861 753 861 797 q 819 753 839 749 q 781 853 799 818 q 728 901 763 888 q 626 914 694 914 l 440 914 l 367 535 l 451 535 q 531 538 501 535 q 578 555 560 542 q 610 597 596 568 q 642 676 624 625 q 693 676 668 681 q 672 590 683 639 q 651 501 660 542 q 635 413 643 461 q 621 319 626 364 q 568 319 593 315 q 572 351 571 335 q 572 379 572 368 q 560 446 572 426 q 519 470 547 465 q 439 475 490 475 l 356 475 l 275 60 l 472 60 q 599 77 551 60 q 679 136 646 94 q 750 247 713 178 q 803 247 776 254 q 753 104 772 165 q 724 0 735 43 q 449 1 588 0 q 175 1 310 1 q 80 0 136 1 q -17 -1 24 -1 m 761 1175 l 761 1171 q 626 1099 699 1139 q 479 1021 553 1060 q 464 1034 469 1026 q 451 1053 458 1042 q 664 1265 563 1157 q 713 1236 686 1264 q 761 1175 740 1208 z "},"Ê":{"ha":864,"x_min":-17,"x_max":861,"o":"m -17 -1 q -15 21 -17 8 q -10 43 -14 33 q 77 55 50 49 q 115 81 104 61 q 135 149 126 101 l 263 807 q 271 850 268 832 q 274 879 274 868 q 249 917 274 911 q 153 929 225 924 q 156 951 154 940 q 163 974 157 961 q 233 973 189 974 q 328 972 276 972 q 425 971 379 971 l 615 971 q 760 972 700 971 q 860 974 821 972 l 860 913 q 860 836 860 875 q 861 753 861 797 q 819 753 839 749 q 781 853 799 818 q 728 901 763 888 q 626 914 694 914 l 440 914 l 367 535 l 451 535 q 531 538 501 535 q 578 555 560 542 q 610 597 596 568 q 642 676 624 625 q 693 676 668 681 q 672 590 683 639 q 651 501 660 542 q 635 413 643 461 q 621 319 626 364 q 568 319 593 315 q 572 351 571 335 q 572 379 572 368 q 560 446 572 426 q 519 470 547 465 q 439 475 490 475 l 356 475 l 275 60 l 472 60 q 599 77 551 60 q 679 136 646 94 q 750 247 713 178 q 803 247 776 254 q 753 104 772 165 q 724 0 735 43 q 449 1 588 0 q 175 1 310 1 q 80 0 136 1 q -17 -1 24 -1 m 576 1151 q 497 1103 540 1129 q 415 1054 454 1076 q 354 1021 376 1032 q 324 1049 336 1032 q 402 1120 361 1082 q 480 1194 443 1158 q 540 1256 517 1231 q 593 1261 560 1261 q 647 1256 626 1261 q 712 1142 676 1201 q 776 1040 747 1083 q 742 1021 760 1028 q 663 1080 710 1042 q 576 1151 617 1118 z "},"Ẽ":{"ha":864,"x_min":-17,"x_max":861,"o":"m -17 -1 q -15 21 -17 8 q -10 43 -14 33 q 77 55 50 49 q 115 81 104 61 q 135 149 126 101 l 263 807 q 271 850 268 832 q 274 879 274 868 q 249 917 274 911 q 153 929 225 924 q 156 951 154 940 q 163 974 157 961 q 233 973 189 974 q 328 972 276 972 q 425 971 379 971 l 615 971 q 760 972 700 971 q 860 974 821 972 l 860 913 q 860 836 860 875 q 861 753 861 797 q 819 753 839 749 q 781 853 799 818 q 728 901 763 888 q 626 914 694 914 l 440 914 l 367 535 l 451 535 q 531 538 501 535 q 578 555 560 542 q 610 597 596 568 q 642 676 624 625 q 693 676 668 681 q 672 590 683 639 q 651 501 660 542 q 635 413 643 461 q 621 319 626 364 q 568 319 593 315 q 572 351 571 335 q 572 379 572 368 q 560 446 572 426 q 519 470 547 465 q 439 475 490 475 l 356 475 l 275 60 l 472 60 q 599 77 551 60 q 679 136 646 94 q 750 247 713 178 q 803 247 776 254 q 753 104 772 165 q 724 0 735 43 q 449 1 588 0 q 175 1 310 1 q 80 0 136 1 q -17 -1 24 -1 m 794 1244 q 816 1238 806 1242 q 836 1229 826 1233 q 753 1100 804 1143 q 646 1057 703 1057 q 604 1065 624 1057 q 560 1088 585 1072 q 508 1117 529 1107 q 464 1128 488 1128 q 365 1049 404 1128 q 324 1064 346 1053 q 406 1189 357 1144 q 515 1233 456 1233 q 558 1226 539 1233 q 600 1203 578 1218 q 646 1174 625 1188 q 692 1161 667 1161 q 747 1182 719 1161 q 794 1244 774 1203 z "},"Ë":{"ha":864,"x_min":-17,"x_max":861,"o":"m -17 -1 q -15 21 -17 8 q -10 43 -14 33 q 77 55 50 49 q 115 81 104 61 q 135 149 126 101 l 263 807 q 271 850 268 832 q 274 879 274 868 q 249 917 274 911 q 153 929 225 924 q 156 951 154 940 q 163 974 157 961 q 233 973 189 974 q 328 972 276 972 q 425 971 379 971 l 615 971 q 760 972 700 971 q 860 974 821 972 l 860 913 q 860 836 860 875 q 861 753 861 797 q 819 753 839 749 q 781 853 799 818 q 728 901 763 888 q 626 914 694 914 l 440 914 l 367 535 l 451 535 q 531 538 501 535 q 578 555 560 542 q 610 597 596 568 q 642 676 624 625 q 693 676 668 681 q 672 590 683 639 q 651 501 660 542 q 635 413 643 461 q 621 319 626 364 q 568 319 593 315 q 572 351 571 335 q 572 379 572 368 q 560 446 572 426 q 519 470 547 465 q 439 475 490 475 l 356 475 l 275 60 l 472 60 q 599 77 551 60 q 679 136 646 94 q 750 247 713 178 q 803 247 776 254 q 753 104 772 165 q 724 0 735 43 q 449 1 588 0 q 175 1 310 1 q 80 0 136 1 q -17 -1 24 -1 m 424 1043 q 367 1066 389 1043 q 346 1122 346 1089 q 373 1189 346 1161 q 439 1217 400 1217 q 495 1194 475 1217 q 515 1138 515 1172 q 490 1071 515 1099 q 424 1043 464 1043 m 701 1043 q 645 1066 667 1043 q 624 1122 624 1089 q 651 1189 624 1161 q 717 1217 678 1217 q 773 1194 753 1217 q 793 1138 793 1172 q 767 1071 793 1099 q 701 1043 742 1043 z "},"Ē":{"ha":864,"x_min":-17,"x_max":861,"o":"m -17 -1 q -15 21 -17 8 q -10 43 -14 33 q 77 55 50 49 q 115 81 104 61 q 135 149 126 101 l 263 807 q 271 850 268 832 q 274 879 274 868 q 249 917 274 911 q 153 929 225 924 q 156 951 154 940 q 163 974 157 961 q 233 973 189 974 q 328 972 276 972 q 425 971 379 971 l 615 971 q 760 972 700 971 q 860 974 821 972 l 860 913 q 860 836 860 875 q 861 753 861 797 q 819 753 839 749 q 781 853 799 818 q 728 901 763 888 q 626 914 694 914 l 440 914 l 367 535 l 451 535 q 531 538 501 535 q 578 555 560 542 q 610 597 596 568 q 642 676 624 625 q 693 676 668 681 q 672 590 683 639 q 651 501 660 542 q 635 413 643 461 q 621 319 626 364 q 568 319 593 315 q 572 351 571 335 q 572 379 572 368 q 560 446 572 426 q 519 470 547 465 q 439 475 490 475 l 356 475 l 275 60 l 472 60 q 599 77 551 60 q 679 136 646 94 q 750 247 713 178 q 803 247 776 254 q 753 104 772 165 q 724 0 735 43 q 449 1 588 0 q 175 1 310 1 q 80 0 136 1 q -17 -1 24 -1 m 374 1143 l 765 1143 q 753 1076 764 1110 l 361 1076 q 374 1143 364 1110 z "},"Ḗ":{"ha":864,"x_min":-17,"x_max":861,"o":"m -17 -1 q -15 21 -17 8 q -10 43 -14 33 q 77 55 50 49 q 115 81 104 61 q 135 149 126 101 l 263 807 q 271 850 268 832 q 274 879 274 868 q 249 917 274 911 q 153 929 225 924 q 156 951 154 940 q 163 974 157 961 q 233 973 189 974 q 328 972 276 972 q 425 971 379 971 l 615 971 q 760 972 700 971 q 860 974 821 972 l 860 913 q 860 836 860 875 q 861 753 861 797 q 819 753 839 749 q 781 853 799 818 q 728 901 763 888 q 626 914 694 914 l 440 914 l 367 535 l 451 535 q 531 538 501 535 q 578 555 560 542 q 610 597 596 568 q 642 676 624 625 q 693 676 668 681 q 672 590 683 639 q 651 501 660 542 q 635 413 643 461 q 621 319 626 364 q 568 319 593 315 q 572 351 571 335 q 572 379 572 368 q 560 446 572 426 q 519 470 547 465 q 439 475 490 475 l 356 475 l 275 60 l 472 60 q 599 77 551 60 q 679 136 646 94 q 750 247 713 178 q 803 247 776 254 q 753 104 772 165 q 724 0 735 43 q 449 1 588 0 q 175 1 310 1 q 80 0 136 1 q -17 -1 24 -1 m 371 1129 l 763 1129 q 750 1063 761 1096 l 358 1063 q 371 1129 361 1096 m 794 1342 l 794 1338 q 659 1266 732 1306 q 513 1188 586 1226 q 497 1201 503 1193 q 485 1219 492 1208 q 697 1432 596 1324 q 747 1403 719 1431 q 794 1342 774 1375 z "},"Ĕ":{"ha":864,"x_min":-17,"x_max":861,"o":"m -17 -1 q -15 21 -17 8 q -10 43 -14 33 q 77 55 50 49 q 115 81 104 61 q 135 149 126 101 l 263 807 q 271 850 268 832 q 274 879 274 868 q 249 917 274 911 q 153 929 225 924 q 156 951 154 940 q 163 974 157 961 q 233 973 189 974 q 328 972 276 972 q 425 971 379 971 l 615 971 q 760 972 700 971 q 860 974 821 972 l 860 913 q 860 836 860 875 q 861 753 861 797 q 819 753 839 749 q 781 853 799 818 q 728 901 763 888 q 626 914 694 914 l 440 914 l 367 535 l 451 535 q 531 538 501 535 q 578 555 560 542 q 610 597 596 568 q 642 676 624 625 q 693 676 668 681 q 672 590 683 639 q 651 501 660 542 q 635 413 643 461 q 621 319 626 364 q 568 319 593 315 q 572 351 571 335 q 572 379 572 368 q 560 446 572 426 q 519 470 547 465 q 439 475 490 475 l 356 475 l 275 60 l 472 60 q 599 77 551 60 q 679 136 646 94 q 750 247 713 178 q 803 247 776 254 q 753 104 772 165 q 724 0 735 43 q 449 1 588 0 q 175 1 310 1 q 80 0 136 1 q -17 -1 24 -1 m 413 1269 q 456 1169 417 1197 q 558 1140 494 1140 q 673 1169 624 1140 q 757 1269 722 1199 q 778 1265 768 1268 q 799 1260 789 1263 q 753 1146 788 1197 q 666 1063 718 1094 q 549 1032 614 1032 q 412 1091 463 1032 q 368 1260 361 1150 q 390 1265 381 1263 q 413 1269 399 1268 z "},"Ġ":{"ha":1069,"x_min":81,"x_max":1046,"o":"m 511 -21 q 197 88 313 -21 q 81 401 81 196 q 119 624 81 518 q 233 811 158 729 q 416 940 308 893 q 663 988 524 988 q 793 976 739 988 q 890 953 847 965 q 971 942 932 942 q 1008 946 992 942 q 993 822 1000 886 q 978 688 986 758 q 943 683 957 683 q 935 684 938 683 q 928 685 932 685 q 664 931 894 931 q 475 881 554 931 q 345 751 396 832 q 271 571 294 669 q 247 372 247 472 q 311 126 247 214 q 522 39 375 39 q 711 78 619 39 l 743 243 q 751 285 747 267 q 754 318 754 303 q 728 360 754 350 q 625 375 703 369 q 635 418 628 396 q 710 417 665 418 q 800 416 756 417 q 869 415 844 415 q 960 417 908 415 q 1046 418 1011 418 q 1044 398 1046 408 q 1038 376 1043 388 q 969 367 994 372 q 929 349 943 363 q 907 304 915 335 q 888 218 899 274 q 869 122 878 163 q 858 43 861 82 q 685 -2 775 17 q 511 -21 596 -21 m 694 1038 q 631 1063 656 1038 q 607 1125 607 1088 q 638 1198 607 1168 q 711 1228 668 1228 q 774 1203 751 1228 q 796 1142 796 1179 q 767 1069 796 1100 q 694 1038 739 1038 z "},"Ḥ":{"ha":1128,"x_min":-17,"x_max":1197,"o":"m -17 -1 q -15 21 -17 8 q -10 43 -14 33 q 77 55 50 49 q 115 82 104 61 q 135 149 126 103 l 263 807 q 271 849 268 832 q 274 879 274 867 q 249 917 274 911 q 153 929 225 924 q 161 974 156 951 q 261 972 201 974 q 372 971 321 971 q 475 972 419 971 q 569 974 531 974 q 561 929 569 950 q 475 917 501 924 q 439 891 449 911 q 419 824 429 871 l 365 543 l 839 543 l 890 807 q 899 849 896 832 q 901 879 901 867 q 877 917 901 911 q 781 929 853 924 q 789 974 783 951 q 889 972 829 974 q 1000 971 949 971 q 1103 972 1047 971 q 1197 974 1158 974 q 1189 929 1197 950 q 1103 917 1129 924 q 1067 891 1076 911 q 1047 824 1057 871 l 919 165 q 911 124 915 142 q 907 93 907 107 q 929 56 907 63 q 1024 43 951 49 q 1020 21 1022 33 q 1015 -1 1018 8 q 922 0 975 -1 q 821 1 869 1 q 710 0 769 1 q 611 -1 650 -1 q 613 21 611 8 q 618 43 614 33 q 705 55 678 49 q 743 81 732 61 q 763 149 754 101 l 828 483 l 353 483 l 292 165 q 283 124 288 142 q 279 93 279 107 q 301 56 279 63 q 396 43 324 49 q 392 21 394 33 q 388 -1 390 8 q 294 0 347 -1 q 193 1 242 1 q 82 0 142 1 q -17 -1 22 -1 m 457 -301 q 394 -276 418 -301 q 371 -215 371 -251 q 401 -144 371 -174 q 474 -114 431 -114 q 535 -138 513 -114 q 557 -199 557 -162 q 529 -271 557 -240 q 457 -301 501 -301 z "},"Ì":{"ha":500,"x_min":-17,"x_max":569,"o":"m -17 -1 q -15 21 -17 8 q -10 43 -14 33 q 77 55 50 49 q 115 82 104 61 q 135 149 126 103 l 263 807 q 271 849 268 832 q 274 879 274 867 q 249 917 274 911 q 153 929 225 924 q 161 974 156 951 q 261 972 201 974 q 372 971 321 971 q 475 972 419 971 q 569 974 531 974 q 561 929 569 950 q 475 917 501 924 q 439 891 449 911 q 419 824 429 871 l 292 165 q 283 124 286 140 q 279 93 279 107 q 301 56 279 63 q 396 43 324 49 q 392 21 394 33 q 388 -1 390 8 q 294 0 347 -1 q 193 1 242 1 q 82 0 142 1 q -17 -1 22 -1 m 206 1172 l 206 1176 q 258 1237 226 1210 q 308 1265 289 1264 q 388 1159 346 1213 q 472 1053 431 1106 q 460 1034 467 1042 q 444 1021 454 1026 q 325 1099 386 1060 q 206 1172 264 1138 z "},"Í":{"ha":500,"x_min":-17,"x_max":588,"o":"m -17 -1 q -15 21 -17 8 q -10 43 -14 33 q 77 55 50 49 q 115 82 104 61 q 135 149 126 103 l 263 807 q 271 849 268 832 q 274 879 274 867 q 249 917 274 911 q 153 929 225 924 q 161 974 156 951 q 261 972 201 974 q 372 971 321 971 q 475 972 419 971 q 569 974 531 974 q 561 929 569 950 q 475 917 501 924 q 439 891 449 911 q 419 824 429 871 l 292 165 q 283 124 286 140 q 279 93 279 107 q 301 56 279 63 q 396 43 324 49 q 392 21 394 33 q 388 -1 390 8 q 294 0 347 -1 q 193 1 242 1 q 82 0 142 1 q -17 -1 22 -1 m 588 1175 l 588 1171 q 452 1099 525 1139 q 306 1021 379 1060 q 290 1034 296 1026 q 278 1053 285 1042 q 490 1265 389 1157 q 540 1236 513 1264 q 588 1175 567 1208 z "},"Î":{"ha":500,"x_min":-17,"x_max":603,"o":"m -17 -1 q -15 21 -17 8 q -10 43 -14 33 q 77 55 50 49 q 115 82 104 61 q 135 149 126 103 l 263 807 q 271 849 268 832 q 274 879 274 867 q 249 917 274 911 q 153 929 225 924 q 161 974 156 951 q 261 972 201 974 q 372 971 321 971 q 475 972 419 971 q 569 974 531 974 q 561 929 569 950 q 475 917 501 924 q 439 891 449 911 q 419 824 429 871 l 292 165 q 283 124 286 140 q 279 93 279 107 q 301 56 279 63 q 396 43 324 49 q 392 21 394 33 q 388 -1 390 8 q 294 0 347 -1 q 193 1 242 1 q 82 0 142 1 q -17 -1 22 -1 m 403 1151 q 324 1103 367 1129 q 242 1054 281 1076 q 181 1021 203 1032 q 150 1049 163 1032 q 228 1120 188 1082 q 306 1194 269 1158 q 367 1256 343 1231 q 419 1261 386 1261 q 474 1256 453 1261 q 538 1142 503 1201 q 603 1040 574 1083 q 568 1021 586 1028 q 490 1080 536 1042 q 403 1151 443 1118 z "},"Ĩ":{"ha":500,"x_min":-17,"x_max":663,"o":"m -17 -1 q -15 21 -17 8 q -10 43 -14 33 q 77 55 50 49 q 115 82 104 61 q 135 149 126 103 l 263 807 q 271 849 268 832 q 274 879 274 867 q 249 917 274 911 q 153 929 225 924 q 161 974 156 951 q 261 972 201 974 q 372 971 321 971 q 475 972 419 971 q 569 974 531 974 q 561 929 569 950 q 475 917 501 924 q 439 891 449 911 q 419 824 429 871 l 292 165 q 283 124 286 140 q 279 93 279 107 q 301 56 279 63 q 396 43 324 49 q 392 21 394 33 q 388 -1 390 8 q 294 0 347 -1 q 193 1 242 1 q 82 0 142 1 q -17 -1 22 -1 m 621 1244 q 642 1238 632 1242 q 663 1229 653 1233 q 580 1100 631 1143 q 472 1057 529 1057 q 431 1065 450 1057 q 386 1088 411 1072 q 335 1117 356 1107 q 290 1128 314 1128 q 192 1049 231 1128 q 150 1064 172 1053 q 233 1189 183 1144 q 342 1233 282 1233 q 385 1226 365 1233 q 426 1203 404 1218 q 472 1174 451 1188 q 518 1161 493 1161 q 573 1182 546 1161 q 621 1244 600 1203 z "},"Ï":{"ha":500,"x_min":-17,"x_max":619,"o":"m -17 -1 q -15 21 -17 8 q -10 43 -14 33 q 77 55 50 49 q 115 82 104 61 q 135 149 126 103 l 263 807 q 271 849 268 832 q 274 879 274 867 q 249 917 274 911 q 153 929 225 924 q 161 974 156 951 q 261 972 201 974 q 372 971 321 971 q 475 972 419 971 q 569 974 531 974 q 561 929 569 950 q 475 917 501 924 q 439 891 449 911 q 419 824 429 871 l 292 165 q 283 124 286 140 q 279 93 279 107 q 301 56 279 63 q 396 43 324 49 q 392 21 394 33 q 388 -1 390 8 q 294 0 347 -1 q 193 1 242 1 q 82 0 142 1 q -17 -1 22 -1 m 250 1043 q 194 1066 215 1043 q 172 1122 172 1089 q 199 1189 172 1161 q 265 1217 226 1217 q 322 1194 301 1217 q 342 1138 342 1172 q 316 1071 342 1099 q 250 1043 290 1043 m 528 1043 q 472 1066 493 1043 q 450 1122 450 1089 q 477 1189 450 1161 q 543 1217 504 1217 q 599 1194 579 1217 q 619 1138 619 1172 q 594 1071 619 1099 q 528 1043 568 1043 z "},"Ī":{"ha":500,"x_min":-17,"x_max":592,"o":"m -17 -1 q -15 21 -17 8 q -10 43 -14 33 q 77 55 50 49 q 115 82 104 61 q 135 149 126 103 l 263 807 q 271 849 268 832 q 274 879 274 867 q 249 917 274 911 q 153 929 225 924 q 161 974 156 951 q 261 972 201 974 q 372 971 321 971 q 475 972 419 971 q 569 974 531 974 q 561 929 569 950 q 475 917 501 924 q 439 891 449 911 q 419 824 429 871 l 292 165 q 283 124 286 140 q 279 93 279 107 q 301 56 279 63 q 396 43 324 49 q 392 21 394 33 q 388 -1 390 8 q 294 0 347 -1 q 193 1 242 1 q 82 0 142 1 q -17 -1 22 -1 m 200 1143 l 592 1143 q 579 1076 590 1110 l 188 1076 q 200 1143 190 1110 z "},"Ĭ":{"ha":500,"x_min":-17,"x_max":625,"o":"m -17 -1 q -15 21 -17 8 q -10 43 -14 33 q 77 55 50 49 q 115 82 104 61 q 135 149 126 103 l 263 807 q 271 849 268 832 q 274 879 274 867 q 249 917 274 911 q 153 929 225 924 q 161 974 156 951 q 261 972 201 974 q 372 971 321 971 q 475 972 419 971 q 569 974 531 974 q 561 929 569 950 q 475 917 501 924 q 439 891 449 911 q 419 824 429 871 l 292 165 q 283 124 286 140 q 279 93 279 107 q 301 56 279 63 q 396 43 324 49 q 392 21 394 33 q 388 -1 390 8 q 294 0 347 -1 q 193 1 242 1 q 82 0 142 1 q -17 -1 22 -1 m 239 1269 q 282 1169 243 1197 q 385 1140 321 1140 q 499 1169 450 1140 q 583 1269 549 1199 q 605 1265 594 1268 q 625 1260 615 1263 q 579 1146 614 1197 q 492 1063 544 1094 q 375 1032 440 1032 q 238 1091 289 1032 q 194 1260 188 1150 q 216 1265 207 1263 q 239 1269 225 1268 z "},"Ḳ":{"ha":964,"x_min":-17,"x_max":1039,"o":"m 640 0 q 529 219 589 111 q 400 443 469 326 q 365 408 382 425 q 332 376 347 390 l 292 165 q 283 124 288 142 q 279 93 279 107 q 301 56 279 63 q 396 43 324 49 q 392 21 394 33 q 388 -1 390 8 q 294 0 347 -1 q 193 1 242 1 q 82 0 142 1 q -17 -1 22 -1 q -15 21 -17 8 q -10 43 -14 33 q 77 55 50 49 q 115 81 104 61 q 135 149 126 101 l 263 807 q 271 849 268 832 q 274 879 274 867 q 249 917 274 911 q 153 929 225 924 q 161 974 156 951 q 261 972 201 974 q 372 971 321 971 q 475 972 419 971 q 569 974 531 974 q 561 929 569 950 q 475 918 501 925 q 439 891 449 911 q 419 824 429 871 l 353 478 l 679 783 q 772 894 772 871 q 757 917 772 908 q 685 929 742 925 q 688 951 686 940 q 693 974 689 963 q 753 973 717 974 q 827 972 790 972 q 886 971 864 971 q 967 972 931 971 q 1039 974 1004 974 q 1031 929 1039 953 q 931 906 976 928 q 835 842 886 885 q 710 731 783 799 l 510 549 q 622 359 572 446 q 724 181 671 272 q 766 110 749 136 q 801 71 783 85 q 847 51 819 57 q 921 43 875 46 q 913 0 921 19 q 849 1 886 0 q 774 1 811 1 q 711 1 736 1 q 678 1 696 1 q 640 0 660 0 m 414 -301 q 351 -276 375 -301 q 328 -215 328 -251 q 358 -144 328 -174 q 431 -114 388 -114 q 492 -138 469 -114 q 514 -199 514 -162 q 486 -271 514 -240 q 414 -301 458 -301 z "},"Ḵ":{"ha":964,"x_min":-17,"x_max":1039,"o":"m 640 0 q 529 219 589 111 q 400 443 469 326 q 365 408 382 425 q 332 376 347 390 l 292 165 q 283 124 288 142 q 279 93 279 107 q 301 56 279 63 q 396 43 324 49 q 392 21 394 33 q 388 -1 390 8 q 294 0 347 -1 q 193 1 242 1 q 82 0 142 1 q -17 -1 22 -1 q -15 21 -17 8 q -10 43 -14 33 q 77 55 50 49 q 115 81 104 61 q 135 149 126 101 l 263 807 q 271 849 268 832 q 274 879 274 867 q 249 917 274 911 q 153 929 225 924 q 161 974 156 951 q 261 972 201 974 q 372 971 321 971 q 475 972 419 971 q 569 974 531 974 q 561 929 569 950 q 475 918 501 925 q 439 891 449 911 q 419 824 429 871 l 353 478 l 679 783 q 772 894 772 871 q 757 917 772 908 q 685 929 742 925 q 688 951 686 940 q 693 974 689 963 q 753 973 717 974 q 827 972 790 972 q 886 971 864 971 q 967 972 931 971 q 1039 974 1004 974 q 1031 929 1039 953 q 931 906 976 928 q 835 842 886 885 q 710 731 783 799 l 510 549 q 622 359 572 446 q 724 181 671 272 q 766 110 749 136 q 801 71 783 85 q 847 51 819 57 q 921 43 875 46 q 913 0 921 19 q 849 1 886 0 q 774 1 811 1 q 711 1 736 1 q 678 1 696 1 q 640 0 660 0 m 240 -143 l 624 -143 q 611 -212 621 -179 l 228 -212 q 240 -143 231 -175 z "},"Ĺ":{"ha":815,"x_min":-17,"x_max":796,"o":"m -17 -1 q -15 21 -17 8 q -10 43 -14 33 q 77 55 50 49 q 115 81 104 61 q 135 149 126 101 l 263 807 q 271 849 268 832 q 274 879 274 867 q 249 917 274 911 q 153 929 225 924 q 161 974 156 951 q 261 972 201 974 q 372 971 321 971 q 481 972 421 971 q 581 974 542 974 q 572 931 581 951 q 483 919 513 926 q 442 892 454 913 q 419 824 429 872 l 271 58 l 471 58 q 593 81 547 58 q 672 149 639 103 q 744 265 706 194 q 796 265 771 271 q 744 113 765 182 q 708 0 722 44 q 458 1 578 0 q 207 1 338 1 q 85 0 147 1 q -17 -1 22 -1 m 588 1175 l 588 1171 q 452 1099 525 1139 q 306 1021 379 1060 q 290 1034 296 1026 q 278 1053 285 1042 q 490 1265 389 1157 q 540 1236 513 1264 q 588 1175 567 1208 z "},"Ḻ":{"ha":815,"x_min":-17,"x_max":796,"o":"m -17 -1 q -15 21 -17 8 q -10 43 -14 33 q 77 55 50 49 q 115 81 104 61 q 135 149 126 101 l 263 807 q 271 849 268 832 q 274 879 274 867 q 249 917 274 911 q 153 929 225 924 q 161 974 156 951 q 261 972 201 974 q 372 971 321 971 q 481 972 421 971 q 581 974 542 974 q 572 931 581 951 q 483 919 513 926 q 442 892 454 913 q 419 824 429 872 l 271 58 l 471 58 q 593 81 547 58 q 672 149 639 103 q 744 265 706 194 q 796 265 771 271 q 744 113 765 182 q 708 0 722 44 q 458 1 578 0 q 207 1 338 1 q 85 0 147 1 q -17 -1 22 -1 m 143 -143 l 526 -143 q 514 -212 524 -179 l 131 -212 q 143 -143 133 -175 z "},"Ḷ":{"ha":815,"x_min":-17,"x_max":796,"o":"m -17 -1 q -15 21 -17 8 q -10 43 -14 33 q 77 55 50 49 q 115 81 104 61 q 135 149 126 101 l 263 807 q 271 849 268 832 q 274 879 274 867 q 249 917 274 911 q 153 929 225 924 q 161 974 156 951 q 261 972 201 974 q 372 971 321 971 q 481 972 421 971 q 581 974 542 974 q 572 931 581 951 q 483 919 513 926 q 442 892 454 913 q 419 824 429 872 l 271 58 l 471 58 q 593 81 547 58 q 672 149 639 103 q 744 265 706 194 q 796 265 771 271 q 744 113 765 182 q 708 0 722 44 q 458 1 578 0 q 207 1 338 1 q 85 0 147 1 q -17 -1 22 -1 m 317 -301 q 254 -276 278 -301 q 231 -215 231 -251 q 260 -144 231 -174 q 333 -114 290 -114 q 394 -138 372 -114 q 417 -199 417 -162 q 389 -271 417 -240 q 317 -301 361 -301 z "},"Ṁ":{"ha":1303,"x_min":-14,"x_max":1361,"o":"m 504 -4 l 343 846 l 201 171 q 192 100 192 124 q 216 59 192 69 q 310 43 240 49 q 308 22 308 33 q 304 0 307 10 q 228 1 274 0 q 151 1 182 1 q 74 1 121 1 q -14 0 26 0 q -12 21 -14 10 q -7 42 -11 32 q 73 56 49 49 q 107 85 97 64 q 126 154 117 106 l 260 801 q 269 868 269 849 q 242 912 269 900 q 147 929 215 924 q 149 951 147 940 q 154 974 150 961 q 243 972 194 974 q 322 971 292 971 q 381 971 350 971 q 437 972 411 971 q 472 972 463 972 l 618 206 l 1044 972 q 1110 971 1074 971 q 1168 971 1146 971 q 1273 972 1228 971 q 1361 974 1318 974 q 1360 951 1361 963 q 1353 929 1358 940 q 1269 915 1294 922 q 1233 888 1243 908 q 1214 818 1224 867 l 1097 171 q 1091 127 1092 144 q 1090 94 1090 110 q 1116 56 1090 64 q 1218 43 1142 49 q 1215 22 1217 33 q 1210 0 1214 10 q 1103 1 1167 0 q 986 1 1040 1 q 894 1 949 1 q 800 0 840 0 q 801 21 800 10 q 806 42 801 32 q 890 57 865 49 q 924 87 915 65 q 942 154 933 108 l 1074 893 l 578 1 q 544 -3 568 -1 q 504 -4 519 -6 m 778 1038 q 715 1063 739 1038 q 690 1125 690 1088 q 721 1198 690 1168 q 794 1228 751 1228 q 857 1203 835 1228 q 879 1142 879 1179 q 851 1069 879 1100 q 778 1038 822 1038 z "},"Ṃ":{"ha":1303,"x_min":-14,"x_max":1361,"o":"m 504 -4 l 343 846 l 201 171 q 192 100 192 124 q 216 59 192 69 q 310 43 240 49 q 308 22 308 33 q 304 0 307 10 q 228 1 274 0 q 151 1 182 1 q 74 1 121 1 q -14 0 26 0 q -12 21 -14 10 q -7 42 -11 32 q 73 56 49 49 q 107 85 97 64 q 126 154 117 106 l 260 801 q 269 868 269 849 q 242 912 269 900 q 147 929 215 924 q 149 951 147 940 q 154 974 150 961 q 243 972 194 974 q 322 971 292 971 q 381 971 350 971 q 437 972 411 971 q 472 972 463 972 l 618 206 l 1044 972 q 1110 971 1074 971 q 1168 971 1146 971 q 1273 972 1228 971 q 1361 974 1318 974 q 1360 951 1361 963 q 1353 929 1358 940 q 1269 915 1294 922 q 1233 888 1243 908 q 1214 818 1224 867 l 1097 171 q 1091 127 1092 144 q 1090 94 1090 110 q 1116 56 1090 64 q 1218 43 1142 49 q 1215 22 1217 33 q 1210 0 1214 10 q 1103 1 1167 0 q 986 1 1040 1 q 894 1 949 1 q 800 0 840 0 q 801 21 800 10 q 806 42 801 32 q 890 57 865 49 q 924 87 915 65 q 942 154 933 108 l 1074 893 l 578 1 q 544 -3 568 -1 q 504 -4 519 -6 m 504 -301 q 442 -276 465 -301 q 418 -215 418 -251 q 448 -144 418 -174 q 521 -114 478 -114 q 582 -138 560 -114 q 604 -199 604 -162 q 576 -271 604 -240 q 504 -301 549 -301 z "},"Ñ":{"ha":1060,"x_min":-31,"x_max":1163,"o":"m 767 -8 l 325 792 l 204 171 q 199 133 201 154 q 196 97 196 113 q 204 67 196 76 q 238 53 213 57 q 313 44 263 49 q 311 22 313 35 q 307 0 310 10 q 256 1 286 0 q 195 1 225 1 q 146 1 165 1 q 60 1 111 1 q -31 0 10 0 q -28 22 -29 10 q -22 43 -26 33 q 67 56 39 49 q 108 84 96 63 q 129 154 119 106 l 254 800 q 263 844 260 826 q 265 872 265 861 q 242 914 265 906 q 144 926 218 922 q 153 974 146 949 q 242 972 194 974 q 321 971 290 971 q 358 971 332 971 q 399 972 383 971 l 811 224 l 924 800 q 932 844 929 825 q 935 874 935 863 q 912 917 935 908 q 815 929 889 925 q 819 951 817 940 q 825 974 822 961 q 876 973 846 974 q 938 972 907 972 q 989 971 968 971 q 1072 972 1024 971 q 1163 974 1119 974 q 1160 952 1161 963 q 1154 931 1158 942 q 1062 918 1092 925 q 1021 890 1032 911 q 1000 818 1010 868 l 839 -3 q 803 -7 825 -6 q 767 -8 782 -8 m 906 1244 q 927 1238 917 1242 q 947 1229 938 1233 q 865 1100 915 1143 q 757 1057 814 1057 q 715 1065 735 1057 q 671 1088 696 1072 q 619 1117 640 1107 q 575 1128 599 1128 q 476 1049 515 1128 q 435 1064 457 1053 q 517 1189 468 1144 q 626 1233 567 1233 q 669 1226 650 1233 q 711 1203 689 1218 q 757 1174 736 1188 q 803 1161 778 1161 q 858 1182 831 1161 q 906 1244 885 1203 z "},"Ṅ":{"ha":1060,"x_min":-31,"x_max":1163,"o":"m 767 -8 l 325 792 l 204 171 q 199 133 201 154 q 196 97 196 113 q 204 67 196 76 q 238 53 213 57 q 313 44 263 49 q 311 22 313 35 q 307 0 310 10 q 256 1 286 0 q 195 1 225 1 q 146 1 165 1 q 60 1 111 1 q -31 0 10 0 q -28 22 -29 10 q -22 43 -26 33 q 67 56 39 49 q 108 84 96 63 q 129 154 119 106 l 254 800 q 263 844 260 826 q 265 872 265 861 q 242 914 265 906 q 144 926 218 922 q 153 974 146 949 q 242 972 194 974 q 321 971 290 971 q 358 971 332 971 q 399 972 383 971 l 811 224 l 924 800 q 932 844 929 825 q 935 874 935 863 q 912 917 935 908 q 815 929 889 925 q 819 951 817 940 q 825 974 822 961 q 876 973 846 974 q 938 972 907 972 q 989 971 968 971 q 1072 972 1024 971 q 1163 974 1119 974 q 1160 952 1161 963 q 1154 931 1158 942 q 1062 918 1092 925 q 1021 890 1032 911 q 1000 818 1010 868 l 839 -3 q 803 -7 825 -6 q 767 -8 782 -8 m 674 1038 q 610 1063 635 1038 q 586 1125 586 1088 q 617 1198 586 1168 q 690 1228 647 1228 q 753 1203 731 1228 q 775 1142 775 1179 q 747 1069 775 1100 q 674 1038 718 1038 z "},"Ṉ":{"ha":1060,"x_min":-31,"x_max":1163,"o":"m 767 -8 l 325 792 l 204 171 q 199 133 201 154 q 196 97 196 113 q 204 67 196 76 q 238 53 213 57 q 313 44 263 49 q 311 22 313 35 q 307 0 310 10 q 256 1 286 0 q 195 1 225 1 q 146 1 165 1 q 60 1 111 1 q -31 0 10 0 q -28 22 -29 10 q -22 43 -26 33 q 67 56 39 49 q 108 84 96 63 q 129 154 119 106 l 254 800 q 263 844 260 826 q 265 872 265 861 q 242 914 265 906 q 144 926 218 922 q 153 974 146 949 q 242 972 194 974 q 321 971 290 971 q 358 971 332 971 q 399 972 383 971 l 811 224 l 924 800 q 932 844 929 825 q 935 874 935 863 q 912 917 935 908 q 815 929 889 925 q 819 951 817 940 q 825 974 822 961 q 876 973 846 974 q 938 972 907 972 q 989 971 968 971 q 1072 972 1024 971 q 1163 974 1119 974 q 1160 952 1161 963 q 1154 931 1158 942 q 1062 918 1092 925 q 1021 890 1032 911 q 1000 818 1010 868 l 839 -3 q 803 -7 825 -6 q 767 -8 782 -8 m 247 -143 l 631 -143 q 618 -212 628 -179 l 235 -212 q 247 -143 238 -175 z "},"Ṇ":{"ha":1060,"x_min":-31,"x_max":1163,"o":"m 767 -8 l 325 792 l 204 171 q 199 133 201 154 q 196 97 196 113 q 204 67 196 76 q 238 53 213 57 q 313 44 263 49 q 311 22 313 35 q 307 0 310 10 q 256 1 286 0 q 195 1 225 1 q 146 1 165 1 q 60 1 111 1 q -31 0 10 0 q -28 22 -29 10 q -22 43 -26 33 q 67 56 39 49 q 108 84 96 63 q 129 154 119 106 l 254 800 q 263 844 260 826 q 265 872 265 861 q 242 914 265 906 q 144 926 218 922 q 153 974 146 949 q 242 972 194 974 q 321 971 290 971 q 358 971 332 971 q 399 972 383 971 l 811 224 l 924 800 q 932 844 929 825 q 935 874 935 863 q 912 917 935 908 q 815 929 889 925 q 819 951 817 940 q 825 974 822 961 q 876 973 846 974 q 938 972 907 972 q 989 971 968 971 q 1072 972 1024 971 q 1163 974 1119 974 q 1160 952 1161 963 q 1154 931 1158 942 q 1062 918 1092 925 q 1021 890 1032 911 q 1000 818 1010 868 l 839 -3 q 803 -7 825 -6 q 767 -8 782 -8 m 421 -301 q 358 -276 382 -301 q 335 -215 335 -251 q 365 -144 335 -174 q 438 -114 394 -114 q 499 -138 476 -114 q 521 -199 521 -162 q 493 -271 521 -240 q 421 -301 465 -301 z "},"Ņ":{"ha":1060,"x_min":-31,"x_max":1163,"o":"m 767 -8 l 325 792 l 204 171 q 199 133 201 154 q 196 97 196 113 q 204 67 196 76 q 238 53 213 57 q 313 44 263 49 q 311 22 313 35 q 307 0 310 10 q 256 1 286 0 q 195 1 225 1 q 146 1 165 1 q 60 1 111 1 q -31 0 10 0 q -28 22 -29 10 q -22 43 -26 33 q 67 56 39 49 q 108 84 96 63 q 129 154 119 106 l 254 800 q 263 844 260 826 q 265 872 265 861 q 242 914 265 906 q 144 926 218 922 q 153 974 146 949 q 242 972 194 974 q 321 971 290 971 q 358 971 332 971 q 399 972 383 971 l 811 224 l 924 800 q 932 844 929 825 q 935 874 935 863 q 912 917 935 908 q 815 929 889 925 q 819 951 817 940 q 825 974 822 961 q 876 973 846 974 q 938 972 907 972 q 989 971 968 971 q 1072 972 1024 971 q 1163 974 1119 974 q 1160 952 1161 963 q 1154 931 1158 942 q 1062 918 1092 925 q 1021 890 1032 911 q 1000 818 1010 868 l 839 -3 q 803 -7 825 -6 q 767 -8 782 -8 m 438 -61 q 507 -92 482 -61 q 532 -174 532 -122 q 503 -269 532 -229 q 424 -335 474 -310 q 317 -369 375 -360 q 313 -348 315 -362 q 310 -328 310 -333 q 419 -283 381 -317 q 457 -206 457 -250 l 457 -199 q 419 -210 442 -210 q 365 -188 382 -210 q 349 -140 349 -167 q 375 -82 349 -103 q 438 -61 401 -61 z "},"Ò":{"ha":1094,"x_min":81,"x_max":1051,"o":"m 1051 572 q 1016 358 1051 464 q 910 167 981 253 q 736 31 840 82 q 496 -19 632 -19 q 298 18 378 -19 q 170 118 218 56 q 101 255 122 181 q 81 403 81 329 q 101 561 81 479 q 165 719 122 643 q 274 856 208 794 q 431 952 340 917 q 638 988 522 988 q 869 934 778 988 q 1006 787 961 881 q 1051 572 1051 693 m 885 601 q 827 841 885 751 q 642 931 769 931 q 476 883 549 931 q 351 756 403 836 q 274 577 300 676 q 247 372 247 478 q 306 128 247 221 q 496 36 365 36 q 665 86 592 36 q 787 219 738 136 q 860 401 836 301 q 885 601 885 501 m 479 1172 l 479 1176 q 531 1237 500 1210 q 582 1265 563 1264 q 662 1159 619 1213 q 746 1053 704 1106 q 734 1034 740 1042 q 718 1021 728 1026 q 599 1099 660 1060 q 479 1172 538 1138 z "},"Ó":{"ha":1094,"x_min":81,"x_max":1051,"o":"m 1051 572 q 1016 358 1051 464 q 910 167 981 253 q 736 31 840 82 q 496 -19 632 -19 q 298 18 378 -19 q 170 118 218 56 q 101 255 122 181 q 81 403 81 329 q 101 561 81 479 q 165 719 122 643 q 274 856 208 794 q 431 952 340 917 q 638 988 522 988 q 869 934 778 988 q 1006 787 961 881 q 1051 572 1051 693 m 885 601 q 827 841 885 751 q 642 931 769 931 q 476 883 549 931 q 351 756 403 836 q 274 577 300 676 q 247 372 247 478 q 306 128 247 221 q 496 36 365 36 q 665 86 592 36 q 787 219 738 136 q 860 401 836 301 q 885 601 885 501 m 861 1175 l 861 1171 q 726 1099 799 1139 q 579 1021 653 1060 q 564 1034 569 1026 q 551 1053 558 1042 q 764 1265 663 1157 q 813 1236 786 1264 q 861 1175 840 1208 z "},"Ô":{"ha":1094,"x_min":81,"x_max":1051,"o":"m 1051 572 q 1016 358 1051 464 q 910 167 981 253 q 736 31 840 82 q 496 -19 632 -19 q 298 18 378 -19 q 170 118 218 56 q 101 255 122 181 q 81 403 81 329 q 101 561 81 479 q 165 719 122 643 q 274 856 208 794 q 431 952 340 917 q 638 988 522 988 q 869 934 778 988 q 1006 787 961 881 q 1051 572 1051 693 m 885 601 q 827 841 885 751 q 642 931 769 931 q 476 883 549 931 q 351 756 403 836 q 274 577 300 676 q 247 372 247 478 q 306 128 247 221 q 496 36 365 36 q 665 86 592 36 q 787 219 738 136 q 860 401 836 301 q 885 601 885 501 m 676 1151 q 597 1103 640 1129 q 515 1054 554 1076 q 454 1021 476 1032 q 424 1049 436 1032 q 502 1120 461 1082 q 580 1194 543 1158 q 640 1256 617 1231 q 693 1261 660 1261 q 747 1256 726 1261 q 812 1142 776 1201 q 876 1040 847 1083 q 842 1021 860 1028 q 763 1080 810 1042 q 676 1151 717 1118 z "},"Õ":{"ha":1094,"x_min":81,"x_max":1051,"o":"m 1051 572 q 1016 358 1051 464 q 910 167 981 253 q 736 31 840 82 q 496 -19 632 -19 q 298 18 378 -19 q 170 118 218 56 q 101 255 122 181 q 81 403 81 329 q 101 561 81 479 q 165 719 122 643 q 274 856 208 794 q 431 952 340 917 q 638 988 522 988 q 869 934 778 988 q 1006 787 961 881 q 1051 572 1051 693 m 885 601 q 827 841 885 751 q 642 931 769 931 q 476 883 549 931 q 351 756 403 836 q 274 577 300 676 q 247 372 247 478 q 306 128 247 221 q 496 36 365 36 q 665 86 592 36 q 787 219 738 136 q 860 401 836 301 q 885 601 885 501 m 894 1244 q 916 1238 906 1242 q 936 1229 926 1233 q 853 1100 904 1143 q 746 1057 803 1057 q 704 1065 724 1057 q 660 1088 685 1072 q 608 1117 629 1107 q 564 1128 588 1128 q 465 1049 504 1128 q 424 1064 446 1053 q 506 1189 457 1144 q 615 1233 556 1233 q 658 1226 639 1233 q 700 1203 678 1218 q 746 1174 725 1188 q 792 1161 767 1161 q 847 1182 819 1161 q 894 1244 874 1203 z "},"Ṍ":{"ha":1094,"x_min":81,"x_max":1051,"o":"m 1051 572 q 1016 358 1051 464 q 910 167 981 253 q 736 31 840 82 q 496 -19 632 -19 q 298 18 378 -19 q 170 118 218 56 q 101 255 122 181 q 81 403 81 329 q 101 561 81 479 q 165 719 122 643 q 274 856 208 794 q 431 952 340 917 q 638 988 522 988 q 869 934 778 988 q 1006 787 961 881 q 1051 572 1051 693 m 885 601 q 827 841 885 751 q 642 931 769 931 q 476 883 549 931 q 351 756 403 836 q 274 577 300 676 q 247 372 247 478 q 306 128 247 221 q 496 36 365 36 q 665 86 592 36 q 787 219 738 136 q 860 401 836 301 q 885 601 885 501 m 892 1231 q 913 1224 903 1228 q 933 1215 924 1219 q 851 1086 901 1129 q 743 1043 800 1043 q 701 1051 721 1043 q 657 1074 682 1058 q 606 1103 626 1093 q 561 1114 585 1114 q 463 1035 501 1114 q 421 1050 443 1039 q 503 1175 454 1131 q 613 1219 553 1219 q 656 1212 636 1219 q 697 1189 675 1204 q 743 1160 722 1174 q 789 1147 764 1147 q 844 1168 817 1147 q 892 1231 871 1189 m 906 1425 l 906 1421 q 770 1349 843 1389 q 624 1271 697 1310 q 608 1284 614 1276 q 596 1303 603 1292 q 808 1515 707 1407 q 858 1486 831 1514 q 906 1425 885 1458 z "},"Ö":{"ha":1094,"x_min":81,"x_max":1051,"o":"m 1051 572 q 1016 358 1051 464 q 910 167 981 253 q 736 31 840 82 q 496 -19 632 -19 q 298 18 378 -19 q 170 118 218 56 q 101 255 122 181 q 81 403 81 329 q 101 561 81 479 q 165 719 122 643 q 274 856 208 794 q 431 952 340 917 q 638 988 522 988 q 869 934 778 988 q 1006 787 961 881 q 1051 572 1051 693 m 885 601 q 827 841 885 751 q 642 931 769 931 q 476 883 549 931 q 351 756 403 836 q 274 577 300 676 q 247 372 247 478 q 306 128 247 221 q 496 36 365 36 q 665 86 592 36 q 787 219 738 136 q 860 401 836 301 q 885 601 885 501 m 524 1043 q 467 1066 489 1043 q 446 1122 446 1089 q 473 1189 446 1161 q 539 1217 500 1217 q 595 1194 575 1217 q 615 1138 615 1172 q 590 1071 615 1099 q 524 1043 564 1043 m 801 1043 q 745 1066 767 1043 q 724 1122 724 1089 q 751 1189 724 1161 q 817 1217 778 1217 q 873 1194 853 1217 q 893 1138 893 1172 q 867 1071 893 1099 q 801 1043 842 1043 z "},"Ō":{"ha":1094,"x_min":81,"x_max":1051,"o":"m 1051 572 q 1016 358 1051 464 q 910 167 981 253 q 736 31 840 82 q 496 -19 632 -19 q 298 18 378 -19 q 170 118 218 56 q 101 255 122 181 q 81 403 81 329 q 101 561 81 479 q 165 719 122 643 q 274 856 208 794 q 431 952 340 917 q 638 988 522 988 q 869 934 778 988 q 1006 787 961 881 q 1051 572 1051 693 m 885 601 q 827 841 885 751 q 642 931 769 931 q 476 883 549 931 q 351 756 403 836 q 274 577 300 676 q 247 372 247 478 q 306 128 247 221 q 496 36 365 36 q 665 86 592 36 q 787 219 738 136 q 860 401 836 301 q 885 601 885 501 m 474 1143 l 865 1143 q 853 1076 864 1110 l 461 1076 q 474 1143 464 1110 z "},"Ŏ":{"ha":1094,"x_min":81,"x_max":1051,"o":"m 1051 572 q 1016 358 1051 464 q 910 167 981 253 q 736 31 840 82 q 496 -19 632 -19 q 298 18 378 -19 q 170 118 218 56 q 101 255 122 181 q 81 403 81 329 q 101 561 81 479 q 165 719 122 643 q 274 856 208 794 q 431 952 340 917 q 638 988 522 988 q 869 934 778 988 q 1006 787 961 881 q 1051 572 1051 693 m 885 601 q 827 841 885 751 q 642 931 769 931 q 476 883 549 931 q 351 756 403 836 q 274 577 300 676 q 247 372 247 478 q 306 128 247 221 q 496 36 365 36 q 665 86 592 36 q 787 219 738 136 q 860 401 836 301 q 885 601 885 501 m 513 1269 q 556 1169 517 1197 q 658 1140 594 1140 q 773 1169 724 1140 q 857 1269 822 1199 q 878 1265 868 1268 q 899 1260 889 1263 q 853 1146 888 1197 q 766 1063 818 1094 q 649 1032 714 1032 q 512 1091 563 1032 q 468 1260 461 1150 q 490 1265 481 1263 q 513 1269 499 1268 z "},"Ø":{"ha":1094,"x_min":67,"x_max":1069,"o":"m 1069 939 l 974 842 q 1032 720 1013 789 q 1051 572 1051 651 q 1016 358 1051 464 q 910 167 981 253 q 736 31 840 82 q 496 -19 632 -19 q 329 7 400 -19 q 210 76 258 33 l 114 -21 q 90 1 101 -10 q 67 25 78 13 l 165 125 q 100 258 119 185 q 81 403 81 331 q 101 561 81 479 q 165 719 122 643 q 274 856 208 794 q 431 952 340 917 q 638 988 522 988 q 805 962 732 988 q 929 890 878 936 l 1022 985 q 1047 963 1035 975 q 1069 939 1060 951 m 263 222 l 849 810 q 769 899 819 868 q 642 931 718 931 q 475 883 549 931 q 351 756 401 836 q 273 577 300 676 q 246 372 246 478 q 263 222 246 286 m 886 601 q 872 740 886 681 l 288 154 q 368 67 317 97 q 496 36 419 36 q 665 86 592 36 q 787 219 738 136 q 861 401 836 301 q 886 601 886 501 z "},"Œ":{"ha":1399,"x_min":81,"x_max":1396,"o":"m 1258 0 q 992 1 1124 0 q 729 1 861 1 q 619 -5 681 1 q 501 -11 558 -11 q 299 26 381 -11 q 170 125 218 64 q 101 260 122 186 q 81 407 81 335 q 99 553 81 475 q 158 706 117 632 q 267 842 199 781 q 435 940 335 903 q 672 976 535 976 q 750 975 701 976 q 847 972 799 974 q 919 971 894 971 l 1150 971 q 1295 972 1235 971 q 1394 974 1356 972 l 1394 913 q 1395 836 1394 875 q 1396 753 1396 797 q 1354 753 1374 749 q 1315 853 1333 818 q 1263 901 1297 888 q 1161 914 1229 914 l 982 914 l 908 535 l 997 535 q 1076 538 1047 535 q 1124 555 1106 542 q 1156 597 1142 568 q 1188 676 1169 625 q 1239 676 1214 681 q 1217 590 1229 639 q 1197 501 1206 542 q 1188 457 1194 489 q 1176 388 1182 425 q 1167 319 1171 350 q 1114 319 1139 315 q 1118 381 1118 351 q 1106 446 1118 426 q 1064 470 1093 465 q 985 475 1035 475 l 897 475 l 815 60 l 1007 60 q 1133 77 1086 60 q 1214 136 1181 94 q 1285 247 1247 178 q 1338 247 1311 254 q 1288 104 1307 165 q 1258 0 1269 43 m 667 88 l 822 885 q 744 910 788 901 q 653 919 700 919 q 477 874 553 919 q 350 751 401 828 q 273 576 299 674 q 247 376 247 479 q 273 203 247 278 q 355 86 299 128 q 500 44 411 44 q 667 88 592 44 z "},"Ŕ":{"ha":924,"x_min":-15,"x_max":900,"o":"m 456 385 q 432 421 443 408 q 402 440 421 433 q 346 449 383 446 l 292 165 q 284 124 288 142 q 281 90 281 106 q 302 56 281 63 q 396 43 324 49 q 392 21 394 33 q 388 -1 390 8 q 291 1 344 0 q 190 1 238 1 q 92 1 143 1 q -15 -1 42 0 q -14 21 -15 8 q -8 43 -12 33 q 78 56 51 50 q 116 83 106 63 q 135 149 126 103 l 263 807 q 271 849 268 832 q 274 879 274 867 q 249 917 274 911 q 153 929 225 924 q 161 974 154 950 q 253 972 201 974 q 336 971 304 971 q 400 972 358 971 q 482 973 442 972 q 542 974 522 974 q 767 921 690 974 q 844 757 844 868 q 768 572 844 644 q 571 464 692 499 l 571 460 q 592 433 582 447 q 614 399 603 418 q 645 340 626 378 q 685 260 664 303 q 724 181 706 218 q 776 91 754 119 q 826 55 799 63 q 900 43 854 47 q 890 -1 900 21 q 832 -1 868 -1 q 761 1 796 0 q 706 1 726 1 q 670 1 683 1 q 635 0 657 0 q 584 123 613 57 q 523 257 556 189 q 456 385 490 325 m 357 506 q 395 501 375 503 q 435 499 415 499 q 578 532 522 499 q 660 621 633 565 q 686 743 686 676 q 673 824 686 785 q 624 890 660 864 q 522 917 589 917 q 484 916 510 917 q 436 914 458 915 l 357 506 m 740 1175 l 740 1171 q 605 1099 678 1139 q 458 1021 532 1060 q 443 1034 449 1026 q 431 1053 438 1042 q 643 1265 542 1157 q 692 1236 665 1264 q 740 1175 719 1208 z "},"Ṙ":{"ha":924,"x_min":-15,"x_max":900,"o":"m 456 385 q 432 421 443 408 q 402 440 421 433 q 346 449 383 446 l 292 165 q 284 124 288 142 q 281 90 281 106 q 302 56 281 63 q 396 43 324 49 q 392 21 394 33 q 388 -1 390 8 q 291 1 344 0 q 190 1 238 1 q 92 1 143 1 q -15 -1 42 0 q -14 21 -15 8 q -8 43 -12 33 q 78 56 51 50 q 116 83 106 63 q 135 149 126 103 l 263 807 q 271 849 268 832 q 274 879 274 867 q 249 917 274 911 q 153 929 225 924 q 161 974 154 950 q 253 972 201 974 q 336 971 304 971 q 400 972 358 971 q 482 973 442 972 q 542 974 522 974 q 767 921 690 974 q 844 757 844 868 q 768 572 844 644 q 571 464 692 499 l 571 460 q 592 433 582 447 q 614 399 603 418 q 645 340 626 378 q 685 260 664 303 q 724 181 706 218 q 776 91 754 119 q 826 55 799 63 q 900 43 854 47 q 890 -1 900 21 q 832 -1 868 -1 q 761 1 796 0 q 706 1 726 1 q 670 1 683 1 q 635 0 657 0 q 584 123 613 57 q 523 257 556 189 q 456 385 490 325 m 357 506 q 395 501 375 503 q 435 499 415 499 q 578 532 522 499 q 660 621 633 565 q 686 743 686 676 q 673 824 686 785 q 624 890 660 864 q 522 917 589 917 q 484 916 510 917 q 436 914 458 915 l 357 506 m 542 1038 q 478 1063 503 1038 q 454 1125 454 1088 q 485 1198 454 1168 q 558 1228 515 1228 q 621 1203 599 1228 q 643 1142 643 1179 q 615 1069 643 1100 q 542 1038 586 1038 z "},"Ṟ":{"ha":924,"x_min":-15,"x_max":900,"o":"m 456 385 q 432 421 443 408 q 402 440 421 433 q 346 449 383 446 l 292 165 q 284 124 288 142 q 281 90 281 106 q 302 56 281 63 q 396 43 324 49 q 392 21 394 33 q 388 -1 390 8 q 291 1 344 0 q 190 1 238 1 q 92 1 143 1 q -15 -1 42 0 q -14 21 -15 8 q -8 43 -12 33 q 78 56 51 50 q 116 83 106 63 q 135 149 126 103 l 263 807 q 271 849 268 832 q 274 879 274 867 q 249 917 274 911 q 153 929 225 924 q 161 974 154 950 q 253 972 201 974 q 336 971 304 971 q 400 972 358 971 q 482 973 442 972 q 542 974 522 974 q 767 921 690 974 q 844 757 844 868 q 768 572 844 644 q 571 464 692 499 l 571 460 q 592 433 582 447 q 614 399 603 418 q 645 340 626 378 q 685 260 664 303 q 724 181 706 218 q 776 91 754 119 q 826 55 799 63 q 900 43 854 47 q 890 -1 900 21 q 832 -1 868 -1 q 761 1 796 0 q 706 1 726 1 q 670 1 683 1 q 635 0 657 0 q 584 123 613 57 q 523 257 556 189 q 456 385 490 325 m 357 506 q 395 501 375 503 q 435 499 415 499 q 578 532 522 499 q 660 621 633 565 q 686 743 686 676 q 673 824 686 785 q 624 890 660 864 q 522 917 589 917 q 484 916 510 917 q 436 914 458 915 l 357 506 m 192 -143 l 575 -143 q 563 -212 572 -179 l 179 -212 q 192 -143 182 -175 z "},"Ṛ":{"ha":924,"x_min":-15,"x_max":900,"o":"m 456 385 q 432 421 443 408 q 402 440 421 433 q 346 449 383 446 l 292 165 q 284 124 288 142 q 281 90 281 106 q 302 56 281 63 q 396 43 324 49 q 392 21 394 33 q 388 -1 390 8 q 291 1 344 0 q 190 1 238 1 q 92 1 143 1 q -15 -1 42 0 q -14 21 -15 8 q -8 43 -12 33 q 78 56 51 50 q 116 83 106 63 q 135 149 126 103 l 263 807 q 271 849 268 832 q 274 879 274 867 q 249 917 274 911 q 153 929 225 924 q 161 974 154 950 q 253 972 201 974 q 336 971 304 971 q 400 972 358 971 q 482 973 442 972 q 542 974 522 974 q 767 921 690 974 q 844 757 844 868 q 768 572 844 644 q 571 464 692 499 l 571 460 q 592 433 582 447 q 614 399 603 418 q 645 340 626 378 q 685 260 664 303 q 724 181 706 218 q 776 91 754 119 q 826 55 799 63 q 900 43 854 47 q 890 -1 900 21 q 832 -1 868 -1 q 761 1 796 0 q 706 1 726 1 q 670 1 683 1 q 635 0 657 0 q 584 123 613 57 q 523 257 556 189 q 456 385 490 325 m 357 506 q 395 501 375 503 q 435 499 415 499 q 578 532 522 499 q 660 621 633 565 q 686 743 686 676 q 673 824 686 785 q 624 890 660 864 q 522 917 589 917 q 484 916 510 917 q 436 914 458 915 l 357 506 m 379 -301 q 317 -276 340 -301 q 293 -215 293 -251 q 323 -144 293 -174 q 396 -114 353 -114 q 457 -138 435 -114 q 479 -199 479 -162 q 451 -271 479 -240 q 379 -301 424 -301 z "},"Ṝ":{"ha":924,"x_min":-15,"x_max":900,"o":"m 456 385 q 432 421 443 408 q 402 440 421 433 q 346 449 383 446 l 292 165 q 284 124 288 142 q 281 90 281 106 q 302 56 281 63 q 396 43 324 49 q 392 21 394 33 q 388 -1 390 8 q 291 1 344 0 q 190 1 238 1 q 92 1 143 1 q -15 -1 42 0 q -14 21 -15 8 q -8 43 -12 33 q 78 56 51 50 q 116 83 106 63 q 135 149 126 103 l 263 807 q 271 849 268 832 q 274 879 274 867 q 249 917 274 911 q 153 929 225 924 q 161 974 154 950 q 253 972 201 974 q 336 971 304 971 q 400 972 358 971 q 482 973 442 972 q 542 974 522 974 q 767 921 690 974 q 844 757 844 868 q 768 572 844 644 q 571 464 692 499 l 571 460 q 592 433 582 447 q 614 399 603 418 q 645 340 626 378 q 685 260 664 303 q 724 181 706 218 q 776 91 754 119 q 826 55 799 63 q 900 43 854 47 q 890 -1 900 21 q 832 -1 868 -1 q 761 1 796 0 q 706 1 726 1 q 670 1 683 1 q 635 0 657 0 q 584 123 613 57 q 523 257 556 189 q 456 385 490 325 m 357 506 q 395 501 375 503 q 435 499 415 499 q 578 532 522 499 q 660 621 633 565 q 686 743 686 676 q 673 824 686 785 q 624 890 660 864 q 522 917 589 917 q 484 916 510 917 q 436 914 458 915 l 357 506 m 379 -301 q 317 -276 340 -301 q 293 -215 293 -251 q 323 -144 293 -174 q 396 -114 353 -114 q 457 -138 435 -114 q 479 -199 479 -162 q 451 -271 479 -240 q 379 -301 424 -301 m 353 1143 l 744 1143 q 732 1076 743 1110 l 340 1076 q 353 1143 343 1110 z "},"Ś":{"ha":753,"x_min":13,"x_max":746,"o":"m 746 967 q 728 843 738 907 q 713 708 719 779 q 688 706 700 707 q 664 706 676 706 q 648 817 663 765 q 597 902 633 869 q 490 935 561 935 q 347 885 406 935 q 288 753 288 836 q 309 671 288 704 q 370 612 331 638 q 463 557 410 586 q 567 493 517 528 q 649 408 617 458 q 681 278 681 357 q 636 122 681 189 q 513 18 592 56 q 329 -19 433 -19 q 228 -10 274 -19 q 140 7 183 -1 q 47 15 97 15 q 28 15 38 15 q 13 14 19 15 q 40 141 26 72 q 67 290 53 210 q 113 292 88 294 q 111 276 111 282 q 111 268 111 271 q 172 97 111 157 q 333 36 232 36 q 435 55 386 36 q 514 115 483 74 q 544 219 544 156 q 520 314 544 276 q 452 381 496 351 q 350 442 408 410 q 251 504 299 471 q 172 585 203 538 q 142 706 142 633 q 188 855 142 792 q 315 953 233 918 q 503 988 397 988 q 626 975 579 988 q 707 963 674 963 q 727 964 715 963 q 746 967 739 965 m 719 1175 l 719 1171 q 584 1099 657 1139 q 438 1021 511 1060 q 422 1034 428 1026 q 410 1053 417 1042 q 622 1265 521 1157 q 672 1236 644 1264 q 719 1175 699 1208 z "},"Š":{"ha":753,"x_min":13,"x_max":776,"o":"m 746 967 q 728 843 738 907 q 713 708 719 779 q 688 706 700 707 q 664 706 676 706 q 648 817 663 765 q 597 902 633 869 q 490 935 561 935 q 347 885 406 935 q 288 753 288 836 q 309 671 288 704 q 370 612 331 638 q 463 557 410 586 q 567 493 517 528 q 649 408 617 458 q 681 278 681 357 q 636 122 681 189 q 513 18 592 56 q 329 -19 433 -19 q 228 -10 274 -19 q 140 7 183 -1 q 47 15 97 15 q 28 15 38 15 q 13 14 19 15 q 40 141 26 72 q 67 290 53 210 q 113 292 88 294 q 111 276 111 282 q 111 268 111 271 q 172 97 111 157 q 333 36 232 36 q 435 55 386 36 q 514 115 483 74 q 544 219 544 156 q 520 314 544 276 q 452 381 496 351 q 350 442 408 410 q 251 504 299 471 q 172 585 203 538 q 142 706 142 633 q 188 855 142 792 q 315 953 233 918 q 503 988 397 988 q 626 975 579 988 q 707 963 674 963 q 727 964 715 963 q 746 967 739 965 m 524 1131 q 603 1179 560 1153 q 685 1228 646 1206 q 746 1261 724 1250 q 776 1233 764 1250 q 698 1162 739 1200 q 620 1088 657 1124 q 560 1026 583 1053 q 507 1021 540 1021 q 453 1026 474 1021 q 388 1140 424 1081 q 324 1242 353 1199 q 358 1261 340 1254 q 437 1202 390 1240 q 524 1131 483 1164 z "},"Ṣ":{"ha":753,"x_min":13,"x_max":746,"o":"m 746 967 q 728 843 738 907 q 713 708 719 779 q 688 706 700 707 q 664 706 676 706 q 648 817 663 765 q 597 902 633 869 q 490 935 561 935 q 347 885 406 935 q 288 753 288 836 q 309 671 288 704 q 370 612 331 638 q 463 557 410 586 q 567 493 517 528 q 649 408 617 458 q 681 278 681 357 q 636 122 681 189 q 513 18 592 56 q 329 -19 433 -19 q 228 -10 274 -19 q 140 7 183 -1 q 47 15 97 15 q 28 15 38 15 q 13 14 19 15 q 40 141 26 72 q 67 290 53 210 q 113 292 88 294 q 111 276 111 282 q 111 268 111 271 q 172 97 111 157 q 333 36 232 36 q 435 55 386 36 q 514 115 483 74 q 544 219 544 156 q 520 314 544 276 q 452 381 496 351 q 350 442 408 410 q 251 504 299 471 q 172 585 203 538 q 142 706 142 633 q 188 855 142 792 q 315 953 233 918 q 503 988 397 988 q 626 975 579 988 q 707 963 674 963 q 727 964 715 963 q 746 967 739 965 m 261 -301 q 199 -276 222 -301 q 175 -215 175 -251 q 205 -144 175 -174 q 278 -114 235 -114 q 339 -138 317 -114 q 361 -199 361 -162 q 333 -271 361 -240 q 261 -301 306 -301 z "},"ẞ":{"ha":996,"x_min":-272,"x_max":1001,"o":"m 589 -19 q 499 -12 540 -19 q 419 4 458 -4 q 333 14 379 13 q 359 133 344 69 q 383 272 374 196 q 404 274 394 274 q 424 274 414 274 q 465 93 424 151 q 597 35 506 35 q 710 63 667 35 q 774 138 754 92 q 794 236 794 185 q 759 363 794 311 q 664 448 724 414 q 531 503 604 482 q 531 531 528 517 l 824 913 q 707 922 767 922 q 526 886 596 922 q 417 780 456 850 q 357 608 378 710 l 256 89 q 194 -95 236 -12 q 99 -231 153 -178 q -22 -310 43 -285 q -146 -336 -87 -336 q -239 -312 -206 -336 q -272 -253 -272 -289 q -249 -197 -272 -221 q -187 -172 -226 -172 q -118 -197 -150 -172 q -67 -265 -86 -222 q 32 -166 -6 -244 q 92 24 69 -87 l 210 636 q 287 833 233 756 q 437 949 340 911 q 683 988 533 988 q 860 972 786 988 q 997 931 933 956 q 1000 901 1001 917 l 742 572 q 835 510 790 547 q 907 420 879 474 q 935 292 935 367 q 893 134 935 204 q 774 22 851 64 q 589 -19 697 -19 z "},"Ṭ":{"ha":918,"x_min":99,"x_max":975,"o":"m 99 733 q 134 853 118 793 q 168 974 150 914 q 247 972 210 972 q 328 970 285 971 q 433 969 372 969 q 581 968 493 968 q 717 969 661 968 q 817 970 774 969 q 897 972 860 971 q 975 974 933 972 q 970 844 971 901 q 969 733 969 788 q 921 733 944 728 q 890 848 906 810 q 843 899 874 886 q 754 913 813 913 l 643 913 l 497 165 q 488 124 492 140 q 485 93 485 107 q 508 56 485 63 q 608 43 532 49 q 605 21 607 33 q 600 -1 603 8 q 503 0 560 -1 q 399 1 447 1 q 324 1 365 1 q 246 -1 283 0 q 182 -1 208 -1 q 183 21 182 8 q 189 43 185 33 q 281 55 253 49 q 321 82 310 61 q 340 149 332 103 l 489 913 l 404 913 q 310 906 346 913 q 251 880 275 899 q 204 826 226 861 q 150 733 182 790 q 99 733 124 728 m 344 -301 q 282 -276 306 -301 q 258 -215 258 -251 q 288 -144 258 -174 q 361 -114 318 -114 q 422 -138 400 -114 q 444 -199 444 -162 q 417 -271 444 -240 q 344 -301 389 -301 z "},"Ṯ":{"ha":918,"x_min":99,"x_max":975,"o":"m 99 733 q 134 853 118 793 q 168 974 150 914 q 247 972 210 972 q 328 970 285 971 q 433 969 372 969 q 581 968 493 968 q 717 969 661 968 q 817 970 774 969 q 897 972 860 971 q 975 974 933 972 q 970 844 971 901 q 969 733 969 788 q 921 733 944 728 q 890 848 906 810 q 843 899 874 886 q 754 913 813 913 l 643 913 l 497 165 q 488 124 492 140 q 485 93 485 107 q 508 56 485 63 q 608 43 532 49 q 605 21 607 33 q 600 -1 603 8 q 503 0 560 -1 q 399 1 447 1 q 324 1 365 1 q 246 -1 283 0 q 182 -1 208 -1 q 183 21 182 8 q 189 43 185 33 q 281 55 253 49 q 321 82 310 61 q 340 149 332 103 l 489 913 l 404 913 q 310 906 346 913 q 251 880 275 899 q 204 826 226 861 q 150 733 182 790 q 99 733 124 728 m 171 -143 l 554 -143 q 542 -212 551 -179 l 158 -212 q 171 -143 161 -175 z "},"Ù":{"ha":1021,"x_min":128,"x_max":1128,"o":"m 483 -15 q 291 24 367 -15 q 178 128 215 64 q 140 264 140 192 q 142 296 140 275 q 151 354 144 317 l 238 807 q 246 849 243 832 q 249 881 249 867 q 226 918 249 911 q 128 929 203 925 q 136 974 131 951 q 205 973 164 974 q 288 972 246 972 q 354 971 329 971 q 447 972 392 971 q 543 974 503 974 q 540 952 543 964 q 535 929 538 940 q 449 917 475 924 q 413 891 422 911 q 393 824 403 871 l 307 378 q 296 308 299 336 q 293 260 293 279 q 323 142 293 186 q 403 78 353 97 q 515 58 454 58 q 663 95 604 58 q 756 195 721 132 q 807 338 792 258 l 899 796 q 906 837 903 818 q 910 874 910 856 q 901 908 910 897 q 866 922 892 918 q 790 929 840 926 q 799 974 793 951 q 881 972 831 974 q 961 971 931 971 q 1039 972 992 971 q 1128 974 1086 974 q 1118 931 1128 950 q 1031 918 1058 925 q 994 890 1004 911 q 974 818 983 868 l 878 344 q 808 153 856 235 q 681 28 760 72 q 483 -15 601 -15 m 504 1172 l 504 1176 q 556 1237 525 1210 q 607 1265 588 1264 q 687 1159 644 1213 q 771 1053 729 1106 q 759 1034 765 1042 q 743 1021 753 1026 q 624 1099 685 1060 q 504 1172 563 1138 z "},"Ú":{"ha":1021,"x_min":128,"x_max":1128,"o":"m 483 -15 q 291 24 367 -15 q 178 128 215 64 q 140 264 140 192 q 142 296 140 275 q 151 354 144 317 l 238 807 q 246 849 243 832 q 249 881 249 867 q 226 918 249 911 q 128 929 203 925 q 136 974 131 951 q 205 973 164 974 q 288 972 246 972 q 354 971 329 971 q 447 972 392 971 q 543 974 503 974 q 540 952 543 964 q 535 929 538 940 q 449 917 475 924 q 413 891 422 911 q 393 824 403 871 l 307 378 q 296 308 299 336 q 293 260 293 279 q 323 142 293 186 q 403 78 353 97 q 515 58 454 58 q 663 95 604 58 q 756 195 721 132 q 807 338 792 258 l 899 796 q 906 837 903 818 q 910 874 910 856 q 901 908 910 897 q 866 922 892 918 q 790 929 840 926 q 799 974 793 951 q 881 972 831 974 q 961 971 931 971 q 1039 972 992 971 q 1128 974 1086 974 q 1118 931 1128 950 q 1031 918 1058 925 q 994 890 1004 911 q 974 818 983 868 l 878 344 q 808 153 856 235 q 681 28 760 72 q 483 -15 601 -15 m 886 1175 l 886 1171 q 751 1099 824 1139 q 604 1021 678 1060 q 589 1034 594 1026 q 576 1053 583 1042 q 789 1265 688 1157 q 838 1236 811 1264 q 886 1175 865 1208 z "},"Û":{"ha":1021,"x_min":128,"x_max":1128,"o":"m 483 -15 q 291 24 367 -15 q 178 128 215 64 q 140 264 140 192 q 142 296 140 275 q 151 354 144 317 l 238 807 q 246 849 243 832 q 249 881 249 867 q 226 918 249 911 q 128 929 203 925 q 136 974 131 951 q 205 973 164 974 q 288 972 246 972 q 354 971 329 971 q 447 972 392 971 q 543 974 503 974 q 540 952 543 964 q 535 929 538 940 q 449 917 475 924 q 413 891 422 911 q 393 824 403 871 l 307 378 q 296 308 299 336 q 293 260 293 279 q 323 142 293 186 q 403 78 353 97 q 515 58 454 58 q 663 95 604 58 q 756 195 721 132 q 807 338 792 258 l 899 796 q 906 837 903 818 q 910 874 910 856 q 901 908 910 897 q 866 922 892 918 q 790 929 840 926 q 799 974 793 951 q 881 972 831 974 q 961 971 931 971 q 1039 972 992 971 q 1128 974 1086 974 q 1118 931 1128 950 q 1031 918 1058 925 q 994 890 1004 911 q 974 818 983 868 l 878 344 q 808 153 856 235 q 681 28 760 72 q 483 -15 601 -15 m 701 1151 q 622 1103 665 1129 q 540 1054 579 1076 q 479 1021 501 1032 q 449 1049 461 1032 q 527 1120 486 1082 q 605 1194 568 1158 q 665 1256 642 1231 q 718 1261 685 1261 q 772 1256 751 1261 q 837 1142 801 1201 q 901 1040 872 1083 q 867 1021 885 1028 q 788 1080 835 1042 q 701 1151 742 1118 z "},"Ũ":{"ha":1021,"x_min":128,"x_max":1128,"o":"m 483 -15 q 291 24 367 -15 q 178 128 215 64 q 140 264 140 192 q 142 296 140 275 q 151 354 144 317 l 238 807 q 246 849 243 832 q 249 881 249 867 q 226 918 249 911 q 128 929 203 925 q 136 974 131 951 q 205 973 164 974 q 288 972 246 972 q 354 971 329 971 q 447 972 392 971 q 543 974 503 974 q 540 952 543 964 q 535 929 538 940 q 449 917 475 924 q 413 891 422 911 q 393 824 403 871 l 307 378 q 296 308 299 336 q 293 260 293 279 q 323 142 293 186 q 403 78 353 97 q 515 58 454 58 q 663 95 604 58 q 756 195 721 132 q 807 338 792 258 l 899 796 q 906 837 903 818 q 910 874 910 856 q 901 908 910 897 q 866 922 892 918 q 790 929 840 926 q 799 974 793 951 q 881 972 831 974 q 961 971 931 971 q 1039 972 992 971 q 1128 974 1086 974 q 1118 931 1128 950 q 1031 918 1058 925 q 994 890 1004 911 q 974 818 983 868 l 878 344 q 808 153 856 235 q 681 28 760 72 q 483 -15 601 -15 m 919 1244 q 941 1238 931 1242 q 961 1229 951 1233 q 878 1100 929 1143 q 771 1057 828 1057 q 729 1065 749 1057 q 685 1088 710 1072 q 633 1117 654 1107 q 589 1128 613 1128 q 490 1049 529 1128 q 449 1064 471 1053 q 531 1189 482 1144 q 640 1233 581 1233 q 683 1226 664 1233 q 725 1203 703 1218 q 771 1174 750 1188 q 817 1161 792 1161 q 872 1182 844 1161 q 919 1244 899 1203 z "},"Ṹ":{"ha":1021,"x_min":128,"x_max":1128,"o":"m 483 -15 q 291 24 367 -15 q 178 128 215 64 q 140 264 140 192 q 142 296 140 275 q 151 354 144 317 l 238 807 q 246 849 243 832 q 249 881 249 867 q 226 918 249 911 q 128 929 203 925 q 136 974 131 951 q 205 973 164 974 q 288 972 246 972 q 354 971 329 971 q 447 972 392 971 q 543 974 503 974 q 540 952 543 964 q 535 929 538 940 q 449 917 475 924 q 413 891 422 911 q 393 824 403 871 l 307 378 q 296 308 299 336 q 293 260 293 279 q 323 142 293 186 q 403 78 353 97 q 515 58 454 58 q 663 95 604 58 q 756 195 721 132 q 807 338 792 258 l 899 796 q 906 837 903 818 q 910 874 910 856 q 901 908 910 897 q 866 922 892 918 q 790 929 840 926 q 799 974 793 951 q 881 972 831 974 q 961 971 931 971 q 1039 972 992 971 q 1128 974 1086 974 q 1118 931 1128 950 q 1031 918 1058 925 q 994 890 1004 911 q 974 818 983 868 l 878 344 q 808 153 856 235 q 681 28 760 72 q 483 -15 601 -15 m 917 1231 q 938 1224 928 1228 q 958 1215 949 1219 q 876 1086 926 1129 q 768 1043 825 1043 q 726 1051 746 1043 q 682 1074 707 1058 q 631 1103 651 1093 q 586 1114 610 1114 q 488 1035 526 1114 q 446 1050 468 1039 q 528 1175 479 1131 q 638 1219 578 1219 q 681 1212 661 1219 q 722 1189 700 1204 q 768 1160 747 1174 q 814 1147 789 1147 q 869 1168 842 1147 q 917 1231 896 1189 m 931 1425 l 931 1421 q 795 1349 868 1389 q 649 1271 722 1310 q 633 1284 639 1276 q 621 1303 628 1292 q 833 1515 732 1407 q 883 1486 856 1514 q 931 1425 910 1458 z "},"Ü":{"ha":1021,"x_min":128,"x_max":1128,"o":"m 483 -15 q 291 24 367 -15 q 178 128 215 64 q 140 264 140 192 q 142 296 140 275 q 151 354 144 317 l 238 807 q 246 849 243 832 q 249 881 249 867 q 226 918 249 911 q 128 929 203 925 q 136 974 131 951 q 205 973 164 974 q 288 972 246 972 q 354 971 329 971 q 447 972 392 971 q 543 974 503 974 q 540 952 543 964 q 535 929 538 940 q 449 917 475 924 q 413 891 422 911 q 393 824 403 871 l 307 378 q 296 308 299 336 q 293 260 293 279 q 323 142 293 186 q 403 78 353 97 q 515 58 454 58 q 663 95 604 58 q 756 195 721 132 q 807 338 792 258 l 899 796 q 906 837 903 818 q 910 874 910 856 q 901 908 910 897 q 866 922 892 918 q 790 929 840 926 q 799 974 793 951 q 881 972 831 974 q 961 971 931 971 q 1039 972 992 971 q 1128 974 1086 974 q 1118 931 1128 950 q 1031 918 1058 925 q 994 890 1004 911 q 974 818 983 868 l 878 344 q 808 153 856 235 q 681 28 760 72 q 483 -15 601 -15 m 549 1043 q 492 1066 514 1043 q 471 1122 471 1089 q 498 1189 471 1161 q 564 1217 525 1217 q 620 1194 600 1217 q 640 1138 640 1172 q 615 1071 640 1099 q 549 1043 589 1043 m 826 1043 q 770 1066 792 1043 q 749 1122 749 1089 q 776 1189 749 1161 q 842 1217 803 1217 q 898 1194 878 1217 q 918 1138 918 1172 q 892 1071 918 1099 q 826 1043 867 1043 z "},"Ū":{"ha":1021,"x_min":128,"x_max":1128,"o":"m 483 -15 q 291 24 367 -15 q 178 128 215 64 q 140 264 140 192 q 142 296 140 275 q 151 354 144 317 l 238 807 q 246 849 243 832 q 249 881 249 867 q 226 918 249 911 q 128 929 203 925 q 136 974 131 951 q 205 973 164 974 q 288 972 246 972 q 354 971 329 971 q 447 972 392 971 q 543 974 503 974 q 540 952 543 964 q 535 929 538 940 q 449 917 475 924 q 413 891 422 911 q 393 824 403 871 l 307 378 q 296 308 299 336 q 293 260 293 279 q 323 142 293 186 q 403 78 353 97 q 515 58 454 58 q 663 95 604 58 q 756 195 721 132 q 807 338 792 258 l 899 796 q 906 837 903 818 q 910 874 910 856 q 901 908 910 897 q 866 922 892 918 q 790 929 840 926 q 799 974 793 951 q 881 972 831 974 q 961 971 931 971 q 1039 972 992 971 q 1128 974 1086 974 q 1118 931 1128 950 q 1031 918 1058 925 q 994 890 1004 911 q 974 818 983 868 l 878 344 q 808 153 856 235 q 681 28 760 72 q 483 -15 601 -15 m 499 1143 l 890 1143 q 878 1076 889 1110 l 486 1076 q 499 1143 489 1110 z "},"Ŭ":{"ha":1021,"x_min":128,"x_max":1128,"o":"m 483 -15 q 291 24 367 -15 q 178 128 215 64 q 140 264 140 192 q 142 296 140 275 q 151 354 144 317 l 238 807 q 246 849 243 832 q 249 881 249 867 q 226 918 249 911 q 128 929 203 925 q 136 974 131 951 q 205 973 164 974 q 288 972 246 972 q 354 971 329 971 q 447 972 392 971 q 543 974 503 974 q 540 952 543 964 q 535 929 538 940 q 449 917 475 924 q 413 891 422 911 q 393 824 403 871 l 307 378 q 296 308 299 336 q 293 260 293 279 q 323 142 293 186 q 403 78 353 97 q 515 58 454 58 q 663 95 604 58 q 756 195 721 132 q 807 338 792 258 l 899 796 q 906 837 903 818 q 910 874 910 856 q 901 908 910 897 q 866 922 892 918 q 790 929 840 926 q 799 974 793 951 q 881 972 831 974 q 961 971 931 971 q 1039 972 992 971 q 1128 974 1086 974 q 1118 931 1128 950 q 1031 918 1058 925 q 994 890 1004 911 q 974 818 983 868 l 878 344 q 808 153 856 235 q 681 28 760 72 q 483 -15 601 -15 m 538 1269 q 581 1169 542 1197 q 683 1140 619 1140 q 798 1169 749 1140 q 882 1269 847 1199 q 903 1265 893 1268 q 924 1260 914 1263 q 878 1146 913 1197 q 791 1063 843 1094 q 674 1032 739 1032 q 537 1091 588 1032 q 493 1260 486 1150 q 515 1265 506 1263 q 538 1269 524 1268 z "},"Ý":{"ha":835,"x_min":69,"x_max":1004,"o":"m 350 397 l 217 788 q 181 878 196 850 q 141 916 165 907 q 69 929 117 925 q 76 974 69 949 q 174 972 126 972 q 272 971 221 971 q 382 972 325 971 q 478 974 439 974 q 476 952 478 964 q 468 929 474 940 q 372 912 394 924 q 350 881 350 900 q 369 806 350 863 l 482 479 l 725 821 q 751 863 744 849 q 757 889 757 876 q 735 915 757 907 q 649 929 714 924 q 658 974 650 950 q 715 973 682 974 q 781 972 747 972 q 836 971 814 971 q 921 972 881 971 q 1004 974 961 972 q 1000 952 1003 964 q 994 929 997 940 q 927 919 954 925 q 878 899 900 913 q 833 856 857 885 q 772 776 808 826 l 506 407 l 458 165 q 449 124 453 140 q 446 93 446 107 q 469 56 446 63 q 569 43 493 49 q 566 21 568 33 q 561 -1 564 8 q 465 0 521 -1 q 360 1 408 1 q 285 1 326 1 q 207 -1 244 0 q 143 -1 169 -1 q 144 21 143 8 q 150 43 146 33 q 242 55 214 49 q 282 82 271 61 q 301 149 293 103 l 350 397 m 782 1175 l 782 1171 q 647 1099 719 1139 q 500 1021 574 1060 q 485 1034 490 1026 q 472 1053 479 1042 q 685 1265 583 1157 q 734 1236 707 1264 q 782 1175 761 1208 z "},"Ÿ":{"ha":835,"x_min":69,"x_max":1004,"o":"m 350 397 l 217 788 q 181 878 196 850 q 141 916 165 907 q 69 929 117 925 q 76 974 69 949 q 174 972 126 972 q 272 971 221 971 q 382 972 325 971 q 478 974 439 974 q 476 952 478 964 q 468 929 474 940 q 372 912 394 924 q 350 881 350 900 q 369 806 350 863 l 482 479 l 725 821 q 751 863 744 849 q 757 889 757 876 q 735 915 757 907 q 649 929 714 924 q 658 974 650 950 q 715 973 682 974 q 781 972 747 972 q 836 971 814 971 q 921 972 881 971 q 1004 974 961 972 q 1000 952 1003 964 q 994 929 997 940 q 927 919 954 925 q 878 899 900 913 q 833 856 857 885 q 772 776 808 826 l 506 407 l 458 165 q 449 124 453 140 q 446 93 446 107 q 469 56 446 63 q 569 43 493 49 q 566 21 568 33 q 561 -1 564 8 q 465 0 521 -1 q 360 1 408 1 q 285 1 326 1 q 207 -1 244 0 q 143 -1 169 -1 q 144 21 143 8 q 150 43 146 33 q 242 55 214 49 q 282 82 271 61 q 301 149 293 103 l 350 397 m 431 1043 q 374 1066 396 1043 q 353 1122 353 1089 q 380 1189 353 1161 q 446 1217 407 1217 q 502 1194 482 1217 q 522 1138 522 1172 q 497 1071 522 1099 q 431 1043 471 1043 m 708 1043 q 652 1066 674 1043 q 631 1122 631 1089 q 658 1189 631 1161 q 724 1217 685 1217 q 780 1194 760 1217 q 800 1138 800 1172 q 774 1071 800 1099 q 708 1043 749 1043 z "},"Ẏ":{"ha":835,"x_min":69,"x_max":1004,"o":"m 350 397 l 217 788 q 181 878 196 850 q 141 916 165 907 q 69 929 117 925 q 76 974 69 949 q 174 972 126 972 q 272 971 221 971 q 382 972 325 971 q 478 974 439 974 q 476 952 478 964 q 468 929 474 940 q 372 912 394 924 q 350 881 350 900 q 369 806 350 863 l 482 479 l 725 821 q 751 863 744 849 q 757 889 757 876 q 735 915 757 907 q 649 929 714 924 q 658 974 650 950 q 715 973 682 974 q 781 972 747 972 q 836 971 814 971 q 921 972 881 971 q 1004 974 961 972 q 1000 952 1003 964 q 994 929 997 940 q 927 919 954 925 q 878 899 900 913 q 833 856 857 885 q 772 776 808 826 l 506 407 l 458 165 q 449 124 453 140 q 446 93 446 107 q 469 56 446 63 q 569 43 493 49 q 566 21 568 33 q 561 -1 564 8 q 465 0 521 -1 q 360 1 408 1 q 285 1 326 1 q 207 -1 244 0 q 143 -1 169 -1 q 144 21 143 8 q 150 43 146 33 q 242 55 214 49 q 282 82 271 61 q 301 149 293 103 l 350 397 m 569 1038 q 506 1063 531 1038 q 482 1125 482 1088 q 513 1198 482 1168 q 586 1228 543 1228 q 649 1203 626 1228 q 671 1142 671 1179 q 642 1069 671 1100 q 569 1038 614 1038 z "},"Ź":{"ha":876,"x_min":-26,"x_max":931,"o":"m -26 26 l 719 913 l 429 913 q 342 905 376 913 q 285 878 308 897 q 239 821 261 858 q 188 724 217 783 q 136 724 161 721 q 169 849 154 786 q 199 974 185 911 q 302 971 256 972 q 403 969 349 969 q 539 968 458 968 q 733 969 640 968 q 926 972 826 969 q 931 939 931 958 l 192 60 l 485 60 q 608 81 564 60 q 685 147 653 101 q 757 267 717 193 q 807 267 783 271 q 758 114 776 181 q 726 0 740 47 q 558 1 636 0 q 426 1 481 1 q 353 1 372 1 q 165 1 261 1 q -22 -1 69 0 q -25 12 -24 4 q -26 26 -26 19 m 782 1175 l 782 1171 q 647 1099 719 1139 q 500 1021 574 1060 q 485 1034 490 1026 q 472 1053 479 1042 q 685 1265 583 1157 q 734 1236 707 1264 q 782 1175 761 1208 z "},"Ž":{"ha":876,"x_min":-26,"x_max":931,"o":"m -26 26 l 719 913 l 429 913 q 342 905 376 913 q 285 878 308 897 q 239 821 261 858 q 188 724 217 783 q 136 724 161 721 q 169 849 154 786 q 199 974 185 911 q 302 971 256 972 q 403 969 349 969 q 539 968 458 968 q 733 969 640 968 q 926 972 826 969 q 931 939 931 958 l 192 60 l 485 60 q 608 81 564 60 q 685 147 653 101 q 757 267 717 193 q 807 267 783 271 q 758 114 776 181 q 726 0 740 47 q 558 1 636 0 q 426 1 481 1 q 353 1 372 1 q 165 1 261 1 q -22 -1 69 0 q -25 12 -24 4 q -26 26 -26 19 m 586 1131 q 665 1179 622 1153 q 747 1228 708 1206 q 808 1261 786 1250 q 839 1233 826 1250 q 760 1162 801 1200 q 683 1088 719 1124 q 622 1026 646 1053 q 569 1021 603 1021 q 515 1026 536 1021 q 451 1140 486 1081 q 386 1242 415 1199 q 421 1261 403 1254 q 499 1202 453 1240 q 586 1131 546 1164 z "},"Ẓ":{"ha":876,"x_min":-26,"x_max":931,"o":"m -26 26 l 719 913 l 429 913 q 342 905 376 913 q 285 878 308 897 q 239 821 261 858 q 188 724 217 783 q 136 724 161 721 q 169 849 154 786 q 199 974 185 911 q 302 971 256 972 q 403 969 349 969 q 539 968 458 968 q 733 969 640 968 q 926 972 826 969 q 931 939 931 958 l 192 60 l 485 60 q 608 81 564 60 q 685 147 653 101 q 757 267 717 193 q 807 267 783 271 q 758 114 776 181 q 726 0 740 47 q 558 1 636 0 q 426 1 481 1 q 353 1 372 1 q 165 1 261 1 q -22 -1 69 0 q -25 12 -24 4 q -26 26 -26 19 m 324 -301 q 261 -276 285 -301 q 238 -215 238 -251 q 267 -144 238 -174 q 340 -114 297 -114 q 401 -138 379 -114 q 424 -199 424 -162 q 396 -271 424 -240 q 324 -301 368 -301 z "},"Ẕ":{"ha":876,"x_min":-26,"x_max":931,"o":"m -26 26 l 719 913 l 429 913 q 342 905 376 913 q 285 878 308 897 q 239 821 261 858 q 188 724 217 783 q 136 724 161 721 q 169 849 154 786 q 199 974 185 911 q 302 971 256 972 q 403 969 349 969 q 539 968 458 968 q 733 969 640 968 q 926 972 826 969 q 931 939 931 958 l 192 60 l 485 60 q 608 81 564 60 q 685 147 653 101 q 757 267 717 193 q 807 267 783 271 q 758 114 776 181 q 726 0 740 47 q 558 1 636 0 q 426 1 481 1 q 353 1 372 1 q 165 1 261 1 q -22 -1 69 0 q -25 12 -24 4 q -26 26 -26 19 m 150 -143 l 533 -143 q 521 -212 531 -179 l 138 -212 q 150 -143 140 -175 z "},"Ð":{"ha":1060,"x_min":-17,"x_max":1017,"o":"m -17 -1 q -15 21 -17 8 q -10 43 -14 33 q 74 55 47 49 q 113 81 101 61 q 135 149 125 101 l 200 482 l 69 482 q 75 515 72 499 q 81 544 78 531 l 211 544 l 263 807 q 271 851 268 833 q 274 881 274 868 q 249 919 274 913 q 153 929 225 925 q 161 974 154 950 q 223 973 186 974 q 295 972 260 972 q 349 971 331 971 q 410 972 368 971 q 493 973 451 972 q 556 974 535 974 q 797 933 693 974 q 958 804 900 892 q 1017 576 1017 717 q 969 327 1017 435 q 834 146 921 219 q 631 35 747 72 q 378 -1 514 -1 q 296 0 344 -1 q 203 1 247 1 q 131 1 172 1 q 51 -1 90 0 q -17 -1 11 -1 m 583 482 l 353 482 l 272 65 q 389 56 332 56 q 579 88 500 56 q 711 174 658 121 q 794 294 764 228 q 838 428 825 360 q 851 557 851 497 q 758 824 851 732 q 492 917 665 917 q 436 914 464 917 l 365 544 l 594 544 q 583 482 594 518 z "},"Þ":{"ha":814,"x_min":-17,"x_max":799,"o":"m -17 -1 q -15 21 -17 8 q -10 43 -14 33 q 77 55 50 49 q 115 82 104 61 q 135 149 126 103 l 263 807 q 271 849 268 832 q 274 879 274 867 q 249 917 274 911 q 153 929 225 924 q 161 974 156 951 q 261 972 201 974 q 372 971 321 971 q 475 972 419 971 q 569 974 531 974 q 561 929 569 950 q 475 917 501 924 q 439 891 449 911 q 419 824 429 871 l 411 778 q 447 779 429 779 q 478 779 465 779 q 716 719 633 779 q 799 540 799 660 q 760 392 799 461 q 642 278 721 322 q 442 235 564 235 q 380 238 414 235 q 308 253 346 242 l 292 165 q 283 124 286 140 q 279 93 279 107 q 301 56 279 63 q 396 43 324 49 q 392 21 394 33 q 388 -1 390 8 q 294 0 347 -1 q 193 1 242 1 q 82 0 142 1 q -17 -1 22 -1 m 318 304 q 368 293 342 296 q 411 290 394 290 q 574 356 510 290 q 638 531 638 422 q 619 628 638 585 q 556 699 600 672 q 439 725 513 725 q 419 725 428 725 q 400 725 410 725 l 318 304 z "},"a":{"ha":765,"x_min":35,"x_max":744,"o":"m 203 -15 q 121 8 160 -15 q 58 79 82 31 q 35 204 35 128 q 71 382 35 299 q 165 529 107 465 q 294 630 224 593 q 432 667 364 667 q 492 659 458 667 q 561 633 525 651 q 622 642 590 638 q 686 651 653 646 l 690 646 q 661 535 674 588 q 636 429 649 483 l 572 154 q 567 129 571 144 q 563 100 563 114 q 568 79 563 88 q 588 71 574 71 q 647 96 611 71 q 713 157 683 121 q 744 129 731 144 q 643 25 697 67 q 521 -17 589 -17 q 447 9 469 -17 q 425 74 425 35 q 440 160 425 111 l 433 160 q 323 28 382 71 q 203 -15 264 -15 m 525 546 q 464 588 496 572 q 399 604 432 604 q 307 567 347 604 q 239 470 267 529 q 197 344 211 411 q 183 215 183 276 q 206 102 183 132 q 258 72 228 72 q 338 108 294 72 q 424 222 382 143 q 497 429 467 300 l 525 546 z "},"b":{"ha":753,"x_min":63,"x_max":706,"o":"m 63 64 l 225 857 q 232 893 229 876 q 235 919 235 910 q 210 952 235 946 q 119 960 186 958 q 117 978 118 969 q 118 997 117 988 q 263 1013 192 1003 q 388 1044 335 1024 l 406 1035 q 376 920 392 988 q 347 785 361 853 l 307 589 l 286 506 l 292 506 q 406 621 343 575 q 538 667 468 667 q 660 606 615 667 q 706 446 706 544 q 672 276 706 358 q 583 128 639 194 q 457 24 526 63 q 314 -15 388 -15 q 188 6 257 -15 q 63 64 119 28 m 257 336 l 208 99 q 273 59 240 74 q 338 44 306 44 q 436 84 394 44 q 504 185 478 124 q 543 313 531 246 q 556 436 556 381 q 475 579 556 579 q 408 558 442 579 q 342 500 374 536 q 288 421 311 464 q 257 336 265 378 z "},"c":{"ha":594,"x_min":44,"x_max":603,"o":"m 272 -17 q 105 50 165 -17 q 44 229 44 117 q 81 399 44 319 q 176 538 117 478 q 308 631 236 597 q 451 665 381 665 q 560 638 517 665 q 603 567 603 610 q 583 518 603 538 q 532 499 564 499 q 469 523 501 499 q 431 608 438 547 q 335 569 379 607 q 260 474 292 532 q 210 350 228 415 q 192 226 192 285 q 218 122 192 167 q 317 78 244 78 q 427 110 376 78 q 515 194 478 142 q 549 168 538 183 q 484 78 522 121 q 394 10 446 36 q 272 -17 342 -17 z "},"d":{"ha":772,"x_min":33,"x_max":772,"o":"m 458 163 l 451 163 q 321 23 386 61 q 201 -15 256 -15 q 84 38 135 -15 q 33 204 33 90 q 67 378 33 294 q 159 526 101 461 q 288 629 217 592 q 431 667 358 667 q 488 660 458 667 q 547 640 518 654 l 592 857 q 599 893 596 876 q 601 919 601 910 q 577 952 601 946 q 486 960 553 958 q 484 978 485 969 q 485 997 483 988 q 631 1013 560 1003 q 754 1044 703 1024 l 772 1035 q 744 922 758 983 q 714 785 729 861 l 585 154 q 580 128 583 144 q 576 100 576 113 q 601 69 576 69 q 661 94 625 69 q 726 156 697 119 q 758 128 744 143 q 656 24 711 65 q 535 -18 601 -18 q 464 6 485 -18 q 443 71 443 31 q 447 111 443 90 q 458 163 451 132 m 486 346 l 526 544 q 452 592 486 579 q 394 604 418 604 q 303 567 343 604 q 236 470 263 529 q 196 343 210 411 q 182 214 182 275 q 203 103 182 135 q 261 72 225 72 q 353 111 307 72 q 435 213 399 150 q 486 346 471 275 z "},"e":{"ha":619,"x_min":44,"x_max":607,"o":"m 607 553 q 572 456 607 499 q 478 383 538 414 q 347 333 419 353 q 200 306 275 314 q 192 225 192 263 q 222 115 192 156 q 321 74 253 74 q 433 106 381 74 q 526 189 486 138 q 558 163 549 176 q 443 33 511 82 q 281 -17 375 -17 q 108 49 171 -17 q 44 226 44 115 q 75 382 44 304 q 160 524 106 460 q 291 628 215 589 q 456 667 367 667 q 570 636 533 667 q 607 553 607 606 m 211 354 q 337 385 276 363 q 436 447 397 408 q 475 540 475 485 q 461 590 475 571 q 417 608 447 608 q 333 572 374 608 q 261 476 293 535 q 211 354 229 418 z "},"f":{"ha":433,"x_min":-233,"x_max":701,"o":"m 479 574 l 325 574 l 228 111 q 178 -66 208 18 q 106 -215 147 -150 q 10 -317 64 -279 q -112 -354 -44 -354 q -200 -331 -167 -354 q -233 -271 -233 -307 q -212 -223 -233 -240 q -165 -206 -192 -206 q -109 -228 -139 -206 q -62 -294 -79 -250 q 17 -197 -15 -279 q 81 43 49 -115 l 186 574 l 78 574 q 83 606 78 594 q 170 624 149 617 q 197 640 192 631 q 205 664 201 647 q 214 704 208 681 q 281 876 235 797 q 397 1002 328 954 q 554 1050 467 1050 q 660 1024 618 1050 q 701 957 701 997 q 683 910 701 929 q 633 892 664 892 q 575 915 606 892 q 538 996 544 939 q 524 997 533 997 q 438 951 471 997 q 383 824 406 906 q 338 635 361 743 l 489 635 q 487 603 489 619 q 479 574 485 588 z "},"g":{"ha":711,"x_min":-40,"x_max":750,"o":"m 233 -354 q 106 -336 169 -354 q 1 -280 43 -318 q -40 -183 -40 -242 q 10 -74 -40 -118 q 129 6 61 -29 q 80 41 99 19 q 61 94 61 63 q 92 167 61 133 q 189 239 122 200 q 115 307 143 264 q 88 407 88 350 q 130 537 88 478 q 243 631 172 596 q 399 667 314 667 q 590 593 522 667 q 649 643 629 615 q 622 708 622 671 q 640 756 622 736 q 688 776 657 776 q 731 760 713 776 q 750 713 750 744 q 713 633 750 669 q 615 560 676 597 q 640 460 640 515 q 600 329 640 388 q 492 237 560 271 q 339 203 424 203 q 233 219 282 203 q 190 183 206 201 q 174 147 174 164 q 208 107 174 121 q 294 85 242 93 q 407 66 347 76 q 519 37 467 56 q 606 -15 572 18 q 640 -104 640 -49 q 601 -211 640 -164 q 499 -290 561 -258 q 366 -337 436 -321 q 233 -354 296 -354 m 182 -12 q 110 -81 135 -44 q 85 -162 85 -118 q 113 -242 85 -211 q 183 -286 140 -272 q 272 -300 226 -300 q 383 -283 326 -300 q 479 -233 440 -265 q 518 -154 518 -200 q 485 -90 518 -112 q 401 -56 453 -68 q 291 -35 349 -43 q 182 -12 233 -26 m 339 251 q 415 274 383 251 q 465 331 446 296 q 494 404 485 365 q 503 476 503 443 q 494 541 503 507 q 460 599 485 575 q 386 622 435 622 q 310 600 342 622 q 260 543 279 578 q 233 470 242 508 q 225 399 225 432 q 235 331 225 365 q 269 274 244 297 q 339 251 294 251 z "},"h":{"ha":800,"x_min":50,"x_max":776,"o":"m 232 222 l 186 0 l 50 0 l 225 857 q 232 893 229 876 q 235 919 235 910 q 210 952 235 946 q 119 960 186 958 q 117 978 118 969 q 118 997 117 988 q 265 1013 193 1003 q 388 1044 336 1024 l 406 1035 q 375 913 389 975 q 347 785 361 851 l 303 574 l 281 479 l 288 479 q 417 619 344 571 q 561 667 489 667 q 662 631 626 667 q 697 542 697 594 q 687 464 697 513 q 661 359 676 415 q 631 249 646 303 q 605 155 615 196 q 594 97 594 114 q 600 79 594 88 q 619 71 606 71 q 679 96 643 71 q 744 157 715 121 q 776 129 763 144 q 674 25 729 67 q 554 -17 619 -17 q 478 9 503 -17 q 454 74 454 35 q 465 147 454 101 q 490 247 475 193 q 520 356 506 301 q 545 454 535 410 q 556 524 556 499 q 542 569 556 551 q 501 586 529 586 q 411 549 464 586 q 309 433 358 513 q 232 222 260 353 z "},"i":{"ha":422,"x_min":17,"x_max":408,"o":"m 374 157 q 406 129 392 144 q 303 25 358 67 q 182 -17 249 -17 q 107 9 131 -17 q 83 78 83 35 q 86 110 83 93 q 93 146 89 128 l 176 493 q 186 546 186 533 q 161 579 186 579 q 110 558 142 579 q 49 504 79 536 q 31 518 39 511 q 17 533 24 525 q 131 631 72 599 q 242 664 190 664 q 309 640 289 664 q 329 579 329 615 q 327 552 329 567 q 322 522 325 538 l 233 153 q 228 128 232 143 q 224 100 224 114 q 229 79 224 88 q 249 71 235 71 q 308 96 272 71 q 374 157 344 121 m 310 825 q 249 850 272 825 q 225 911 225 875 q 255 983 225 953 q 326 1013 285 1013 q 386 988 364 1013 q 408 928 408 964 q 381 856 408 886 q 310 825 353 825 z "},"j":{"ha":393,"x_min":-242,"x_max":406,"o":"m -121 -354 q -208 -331 -174 -354 q -242 -271 -242 -308 q -222 -224 -242 -243 q -174 -206 -201 -206 q -112 -232 -139 -206 q -71 -294 -85 -258 q 2 -209 -26 -281 q 61 -4 31 -137 l 175 493 q 185 546 185 533 q 158 579 185 579 q 108 558 139 579 q 46 504 76 536 q 28 518 36 511 q 14 533 21 525 q 128 631 69 599 q 239 664 188 664 q 306 640 286 664 q 326 578 326 615 q 325 553 326 569 q 319 522 324 538 l 233 151 q 149 -112 199 1 q 33 -290 100 -226 q -121 -354 -33 -354 m 307 825 q 246 850 269 825 q 222 911 222 875 q 252 983 222 953 q 324 1013 282 1013 q 383 988 361 1013 q 406 928 406 964 q 378 856 406 886 q 307 825 350 825 z "},"k":{"ha":722,"x_min":53,"x_max":700,"o":"m 189 0 l 53 0 l 228 857 q 235 893 232 876 q 238 919 238 910 q 213 952 238 946 q 122 960 189 958 q 120 972 121 965 q 119 983 119 978 q 121 997 119 992 q 267 1013 196 1003 q 390 1044 339 1024 l 408 1035 q 377 911 392 975 q 350 785 363 847 l 307 576 l 281 468 l 288 468 q 429 616 356 565 q 581 667 503 667 q 672 635 646 667 q 699 563 699 603 q 635 440 699 497 q 428 326 571 383 q 479 189 458 239 q 513 115 500 139 q 535 85 526 92 q 553 79 544 79 q 608 101 578 79 q 668 157 639 122 q 700 129 686 144 q 592 22 649 60 q 488 -17 536 -17 q 421 12 449 -17 q 364 114 393 40 q 289 322 335 188 q 465 402 406 363 q 544 476 524 442 q 564 538 564 511 q 554 569 564 557 q 521 582 544 582 q 447 558 489 582 q 365 492 406 533 q 292 398 324 451 q 249 288 261 344 l 247 282 l 189 0 z "},"l":{"ha":406,"x_min":69,"x_max":406,"o":"m 360 157 q 392 129 378 144 q 290 25 344 67 q 168 -17 235 -17 q 93 9 117 -17 q 69 78 69 35 q 72 111 69 93 q 79 147 75 129 l 225 857 q 232 892 229 876 q 235 918 235 908 q 210 952 235 946 q 119 960 186 958 q 117 978 118 969 q 118 997 117 988 q 265 1013 193 1003 q 388 1044 336 1024 l 406 1035 q 377 922 392 983 q 347 785 363 861 l 218 156 q 213 130 217 146 q 210 100 210 114 q 215 79 210 88 q 235 71 221 71 q 294 96 258 71 q 360 157 331 121 z "},"m":{"ha":1196,"x_min":22,"x_max":1172,"o":"m 950 -17 q 874 9 899 -17 q 850 74 850 35 q 860 147 850 101 q 885 248 871 193 q 915 357 900 303 q 941 456 931 411 q 951 528 951 501 q 942 568 951 550 q 904 586 933 586 q 821 553 871 586 q 723 448 771 521 q 646 253 675 375 l 586 0 l 447 0 l 558 471 q 567 510 564 493 q 569 540 569 526 q 561 574 569 563 q 528 586 553 586 q 434 550 485 586 q 339 440 383 514 q 267 253 294 367 l 207 0 l 68 0 l 182 493 q 192 546 192 533 q 167 579 192 579 q 116 558 147 579 q 54 504 85 536 q 37 518 44 511 q 22 533 29 525 q 135 631 75 597 q 246 664 194 664 q 314 639 294 664 q 333 582 333 614 q 330 548 333 571 q 321 497 326 525 l 325 497 q 443 621 375 575 q 581 667 511 667 q 669 640 633 667 q 706 557 706 613 q 705 535 706 547 q 700 497 704 522 l 704 497 q 825 623 757 579 q 961 667 893 667 q 1058 633 1022 667 q 1093 544 1093 600 q 1083 465 1093 514 q 1057 360 1072 417 q 1026 251 1042 304 q 1001 156 1011 197 q 990 99 990 115 q 996 80 990 89 q 1015 71 1001 71 q 1075 96 1039 71 q 1140 157 1111 121 q 1172 129 1158 144 q 1070 25 1125 67 q 950 -17 1015 -17 z "},"n":{"ha":826,"x_min":22,"x_max":803,"o":"m 265 253 l 207 0 l 68 0 l 182 493 q 192 546 192 533 q 167 579 192 579 q 116 558 147 579 q 54 504 85 536 q 37 518 44 511 q 22 533 29 525 q 137 631 78 599 q 247 664 196 664 q 314 640 294 664 q 333 585 333 617 q 328 545 333 568 q 319 497 324 522 l 324 497 q 448 624 376 582 q 586 667 519 667 q 688 630 653 667 q 724 540 724 593 q 713 463 724 511 q 688 358 703 414 q 657 249 672 303 q 631 155 642 196 q 621 97 621 114 q 626 79 621 88 q 646 71 632 71 q 706 96 669 71 q 771 157 742 121 q 803 129 789 144 q 701 25 756 67 q 579 -17 646 -17 q 504 9 528 -17 q 481 74 481 35 q 491 147 481 101 q 517 247 501 193 q 547 355 532 301 q 572 453 561 408 q 582 522 582 497 q 569 568 582 550 q 525 586 557 586 q 435 551 485 586 q 340 446 385 517 q 268 264 294 375 l 265 253 z "},"o":{"ha":732,"x_min":50,"x_max":676,"o":"m 676 394 q 653 251 676 324 q 585 119 631 179 q 471 21 539 58 q 314 -17 403 -17 q 188 10 239 -17 q 107 78 138 36 q 63 169 76 119 q 50 264 50 218 q 72 393 50 324 q 138 525 93 463 q 251 627 182 588 q 417 667 321 667 q 565 630 507 667 q 649 531 622 593 q 676 394 676 469 m 529 417 q 502 559 529 503 q 411 615 475 615 q 322 582 361 615 q 254 493 282 549 q 212 372 226 438 q 197 239 197 306 q 226 94 197 153 q 319 35 254 35 q 410 69 371 35 q 475 161 449 104 q 515 285 501 218 q 529 417 529 353 z "},"p":{"ha":779,"x_min":-81,"x_max":732,"o":"m 214 6 l 174 -187 q 166 -234 168 -218 q 164 -258 164 -250 q 188 -287 164 -282 q 282 -293 213 -292 q 284 -316 285 -304 q 282 -335 283 -328 q 99 -336 188 -336 q -79 -343 10 -336 q -81 -325 -81 -336 q -79 -306 -81 -314 q -15 -292 -36 -300 q 17 -263 7 -285 q 36 -197 28 -242 l 176 479 q 185 522 183 507 q 188 546 188 538 q 163 579 188 579 q 112 558 143 579 q 50 504 81 536 q 33 518 40 511 q 18 533 25 525 q 133 631 74 599 q 243 664 192 664 q 309 640 290 664 q 328 583 328 617 q 326 557 328 572 q 317 507 324 542 l 322 507 q 433 622 371 576 q 565 667 496 667 q 688 606 643 667 q 732 446 732 544 q 699 276 732 358 q 609 128 665 194 q 483 24 553 63 q 340 -15 414 -15 q 280 -10 313 -15 q 214 6 247 -4 m 285 344 l 233 100 q 298 59 265 74 q 364 44 331 44 q 463 84 421 44 q 531 185 504 124 q 569 313 557 246 q 582 436 582 381 q 503 579 582 579 q 436 558 471 579 q 369 501 401 536 q 315 426 338 467 q 285 344 293 385 q 285 344 285 344 z "},"q":{"ha":744,"x_min":35,"x_max":689,"o":"m 440 160 l 433 160 q 323 28 382 71 q 203 -15 264 -15 q 121 8 160 -15 q 58 79 82 31 q 35 204 35 128 q 71 382 35 299 q 165 529 107 465 q 294 630 224 593 q 432 667 364 667 q 489 660 456 667 q 563 633 522 653 q 622 642 590 638 q 685 651 653 646 l 689 646 q 660 535 672 588 q 635 429 647 483 l 497 -193 q 486 -258 486 -244 q 505 -286 486 -281 q 575 -293 524 -292 q 577 -313 576 -303 q 575 -335 578 -324 q 392 -336 479 -336 q 217 -343 306 -336 q 215 -324 215 -333 q 217 -306 215 -315 q 296 -293 269 -300 q 334 -269 322 -286 q 354 -215 346 -251 l 421 79 q 432 126 428 107 q 440 160 436 146 m 497 429 l 525 546 q 464 588 496 572 q 399 604 432 604 q 307 567 347 604 q 239 470 267 529 q 197 344 211 411 q 183 215 183 276 q 206 102 183 132 q 258 72 228 72 q 336 106 293 72 q 421 215 379 140 q 493 413 463 290 l 497 429 z "},"r":{"ha":578,"x_min":15,"x_max":635,"o":"m 200 0 l 61 0 l 175 493 q 185 546 185 533 q 160 579 185 579 q 109 558 140 579 q 47 504 78 536 q 30 518 38 511 q 15 533 22 525 q 131 631 71 599 q 242 664 190 664 q 303 642 288 664 q 318 592 318 621 q 313 549 318 574 q 290 468 307 525 l 246 325 l 254 324 q 396 582 326 497 q 546 667 465 667 q 615 642 594 667 q 635 588 635 617 q 613 533 635 553 q 560 514 590 514 q 513 526 538 514 q 471 564 488 538 q 378 463 428 536 q 281 274 328 390 q 200 0 235 158 z "},"s":{"ha":568,"x_min":0,"x_max":549,"o":"m 226 -17 q 58 22 117 -17 q 0 104 0 61 q 18 149 0 128 q 71 169 36 169 q 127 150 106 169 q 160 100 149 131 q 176 39 172 69 q 206 33 192 35 q 235 32 221 32 q 331 56 292 32 q 369 129 369 81 q 336 202 369 172 q 239 275 303 232 q 167 330 201 301 q 110 393 132 358 q 88 471 88 428 q 115 560 88 515 q 200 635 142 606 q 349 665 258 665 q 499 631 449 665 q 549 556 549 596 q 534 513 549 535 q 483 490 519 490 q 413 527 438 490 q 383 606 389 564 q 325 613 354 613 q 240 587 269 613 q 211 521 211 561 q 245 447 211 478 q 344 371 279 415 q 417 317 382 346 q 474 253 451 289 q 496 169 496 218 q 461 69 496 111 q 365 6 426 28 q 226 -17 304 -17 z "},"t":{"ha":468,"x_min":81,"x_max":494,"o":"m 483 574 l 324 574 l 236 193 q 224 115 224 139 q 233 80 224 93 q 268 67 243 67 q 338 91 297 67 q 410 156 378 115 q 442 128 428 143 q 331 21 393 60 q 201 -18 268 -18 q 131 0 157 -18 q 96 44 106 18 q 86 92 86 69 q 89 129 86 107 q 99 183 92 151 l 185 574 l 81 574 q 82 594 81 585 q 88 614 83 604 l 197 631 q 219 722 207 671 q 240 818 231 772 q 309 824 274 821 q 378 833 344 828 l 382 828 q 363 744 372 786 q 338 635 353 701 l 494 635 q 492 603 494 618 q 483 574 489 589 z "},"u":{"ha":814,"x_min":10,"x_max":793,"o":"m 546 429 l 594 638 q 663 644 628 640 q 731 651 697 647 l 735 646 l 621 154 q 615 129 619 144 q 611 100 611 114 q 617 79 611 88 q 636 71 622 71 q 696 96 660 71 q 761 157 732 121 q 793 129 779 144 q 691 25 746 67 q 569 -17 636 -17 q 496 9 518 -17 q 474 74 474 35 q 489 160 474 113 l 482 160 q 364 26 426 68 q 232 -17 301 -17 q 126 23 161 -17 q 90 119 90 63 q 99 197 90 150 q 122 295 108 243 q 148 397 135 347 q 170 487 161 447 q 179 547 179 526 q 154 579 179 579 q 103 558 135 579 q 42 504 72 536 q 24 518 32 511 q 10 533 17 525 q 124 631 65 599 q 235 664 183 664 q 301 639 282 664 q 321 576 321 614 q 308 481 321 540 q 276 354 294 421 q 245 228 258 288 q 232 135 232 169 q 244 87 232 107 q 288 67 257 67 q 375 104 326 67 q 470 222 424 142 q 546 429 517 303 z "},"v":{"ha":682,"x_min":-32,"x_max":651,"o":"m 182 0 q 185 97 185 50 q 185 186 185 143 q 178 387 185 300 q 153 524 171 474 q 101 574 135 574 q 58 559 85 574 q 0 511 32 544 q -17 525 -10 518 q -32 540 -25 532 q 71 631 18 601 q 171 661 124 661 q 285 564 256 661 q 314 297 314 467 q 313 209 314 257 q 311 122 313 161 q 432 249 381 183 q 515 374 483 314 q 557 475 547 433 q 505 527 521 497 q 489 585 489 557 q 509 642 489 618 q 564 667 529 667 q 624 642 596 667 q 651 563 651 617 q 606 404 651 500 q 469 199 560 308 q 243 -15 378 89 q 213 -10 232 -15 q 182 0 193 -6 z "},"w":{"ha":1018,"x_min":-32,"x_max":988,"o":"m 181 0 q 188 99 186 50 q 189 192 189 149 q 181 392 189 307 q 153 526 172 478 q 101 574 135 574 q 58 559 85 574 q 0 511 32 544 q -17 525 -10 518 q -32 540 -25 532 q 71 631 18 601 q 171 661 124 661 q 286 564 256 661 q 317 299 317 467 q 315 222 317 263 q 311 146 314 182 q 428 324 379 233 q 510 497 478 415 q 558 642 543 579 q 624 649 593 649 q 658 489 644 576 q 679 306 672 401 q 686 119 686 211 q 792 247 749 181 q 861 373 835 313 q 897 475 888 433 q 845 524 865 494 q 825 586 825 554 q 845 642 825 618 q 900 667 865 667 q 960 642 932 667 q 988 560 988 617 q 948 403 988 499 q 829 199 908 308 q 628 -12 750 90 q 596 -8 617 -12 q 564 3 575 -3 q 565 35 565 18 q 565 71 565 53 q 563 189 565 126 q 554 310 560 251 q 542 413 549 368 q 422 198 494 308 q 243 -15 349 88 q 213 -10 233 -15 q 181 0 192 -6 z "},"x":{"ha":722,"x_min":-60,"x_max":761,"o":"m 650 150 q 667 138 657 146 q 682 121 676 129 q 584 22 635 60 q 479 -17 533 -17 q 406 5 433 -17 q 358 79 378 26 q 313 229 338 132 q 175 44 232 106 q 50 -17 118 -17 q -31 14 -3 -17 q -60 76 -60 44 q -39 126 -60 106 q 15 147 -18 147 q 66 131 40 147 q 111 76 92 115 q 172 131 139 93 q 236 215 204 169 q 293 304 268 261 q 256 448 271 394 q 231 529 242 501 q 206 566 219 557 q 175 575 193 575 q 119 552 149 575 q 72 511 90 529 q 56 524 65 517 q 40 540 47 532 q 133 626 81 589 q 244 663 186 663 q 315 643 289 663 q 359 576 340 624 q 400 439 378 528 q 532 608 474 550 q 657 667 590 667 q 732 642 703 667 q 761 581 761 617 q 740 528 761 549 q 686 507 718 507 q 638 522 664 507 q 597 578 611 536 q 418 367 526 535 q 420 359 419 363 q 422 351 421 356 q 460 202 446 258 q 487 117 475 146 q 512 80 499 89 q 543 71 525 71 q 599 97 571 71 q 650 150 626 122 z "},"y":{"ha":708,"x_min":-119,"x_max":675,"o":"m 51 -293 q 188 -216 121 -287 q 335 -19 256 -144 q 255 247 289 140 q 196 418 221 353 q 152 517 171 483 q 118 563 133 551 q 89 574 103 574 q 52 560 72 574 q 0 511 32 547 q -17 525 -10 518 q -32 540 -25 532 q 74 638 25 614 q 164 661 124 661 q 209 651 188 661 q 252 612 231 642 q 299 524 274 582 q 354 369 324 465 q 425 129 385 274 q 531 339 489 243 q 583 479 572 435 q 533 526 553 499 q 513 586 513 554 q 533 642 513 618 q 589 667 554 667 q 653 634 632 667 q 675 553 675 601 q 644 429 675 510 q 560 247 613 349 q 447 39 508 146 q 296 -190 365 -104 q 163 -313 226 -275 q 31 -351 99 -351 q -81 -317 -42 -351 q -119 -247 -119 -282 q -101 -199 -119 -219 q -51 -179 -82 -179 q 3 -201 -28 -179 q 51 -293 35 -222 z "},"z":{"ha":624,"x_min":-32,"x_max":656,"o":"m -32 17 l 440 497 q 299 542 356 529 q 206 554 242 554 q 131 519 142 554 q 185 499 161 517 q 210 450 210 482 q 194 408 210 426 q 147 389 179 389 q 86 416 110 389 q 63 479 63 443 q 91 562 63 519 q 171 633 119 604 q 289 663 222 663 q 385 649 325 663 q 539 599 446 636 l 606 667 q 634 647 618 663 q 656 624 650 631 l 201 163 q 322 119 275 133 q 408 104 369 104 q 481 125 444 104 q 564 210 518 146 q 597 183 586 199 q 478 28 535 74 q 361 -17 421 -17 q 249 7 314 -17 q 103 61 185 31 l 28 -15 q -4 -1 18 -15 q -32 17 -26 13 z "},"à":{"ha":765,"x_min":35,"x_max":744,"o":"m 203 -15 q 121 8 160 -15 q 58 79 82 31 q 35 204 35 128 q 71 382 35 299 q 165 529 107 465 q 294 630 224 593 q 432 667 364 667 q 492 659 458 667 q 561 633 525 651 q 622 642 590 638 q 686 651 653 646 l 690 646 q 661 535 674 588 q 636 429 649 483 l 572 154 q 567 129 571 144 q 563 100 563 114 q 568 79 563 88 q 588 71 574 71 q 647 96 611 71 q 713 157 683 121 q 744 129 731 144 q 643 25 697 67 q 521 -17 589 -17 q 447 9 469 -17 q 425 74 425 35 q 440 160 425 111 l 433 160 q 323 28 382 71 q 203 -15 264 -15 m 525 546 q 464 588 496 572 q 399 604 432 604 q 307 567 347 604 q 239 470 267 529 q 197 344 211 411 q 183 215 183 276 q 206 102 183 132 q 258 72 228 72 q 338 108 294 72 q 424 222 382 143 q 497 429 467 300 l 525 546 m 321 1013 l 321 1018 q 360 1031 335 1025 q 414 1036 386 1036 q 437 1035 425 1036 q 457 1032 449 1035 l 497 767 q 481 758 492 761 q 461 754 469 756 l 321 1013 z "},"á":{"ha":765,"x_min":35,"x_max":744,"o":"m 203 -15 q 121 8 160 -15 q 58 79 82 31 q 35 204 35 128 q 71 382 35 299 q 165 529 107 465 q 294 630 224 593 q 432 667 364 667 q 492 659 458 667 q 561 633 525 651 q 622 642 590 638 q 686 651 653 646 l 690 646 q 661 535 674 588 q 636 429 649 483 l 572 154 q 567 129 571 144 q 563 100 563 114 q 568 79 563 88 q 588 71 574 71 q 647 96 611 71 q 713 157 683 121 q 744 129 731 144 q 643 25 697 67 q 521 -17 589 -17 q 447 9 469 -17 q 425 74 425 35 q 440 160 425 111 l 433 160 q 323 28 382 71 q 203 -15 264 -15 m 525 546 q 464 588 496 572 q 399 604 432 604 q 307 567 347 604 q 239 470 267 529 q 197 344 211 411 q 183 215 183 276 q 206 102 183 132 q 258 72 228 72 q 338 108 294 72 q 424 222 382 143 q 497 429 467 300 l 525 546 m 693 1024 l 694 1018 l 446 754 q 428 759 443 754 q 410 769 414 764 l 550 1031 q 573 1035 558 1033 q 603 1036 588 1036 q 653 1033 628 1036 q 693 1024 679 1029 z "},"â":{"ha":765,"x_min":35,"x_max":744,"o":"m 203 -15 q 121 8 160 -15 q 58 79 82 31 q 35 204 35 128 q 71 382 35 299 q 165 529 107 465 q 294 630 224 593 q 432 667 364 667 q 492 659 458 667 q 561 633 525 651 q 622 642 590 638 q 686 651 653 646 l 690 646 q 661 535 674 588 q 636 429 649 483 l 572 154 q 567 129 571 144 q 563 100 563 114 q 568 79 563 88 q 588 71 574 71 q 647 96 611 71 q 713 157 683 121 q 744 129 731 144 q 643 25 697 67 q 521 -17 589 -17 q 447 9 469 -17 q 425 74 425 35 q 440 160 425 111 l 433 160 q 323 28 382 71 q 203 -15 264 -15 m 525 546 q 464 588 496 572 q 399 604 432 604 q 307 567 347 604 q 239 470 267 529 q 197 344 211 411 q 183 215 183 276 q 206 102 183 132 q 258 72 228 72 q 338 108 294 72 q 424 222 382 143 q 497 429 467 300 l 525 546 m 665 776 q 647 764 657 768 q 626 757 638 760 q 556 847 592 801 q 492 932 521 893 q 388 844 442 893 q 278 754 333 796 q 259 767 269 757 q 244 785 249 776 q 317 867 278 821 q 392 958 356 913 q 450 1032 428 1003 q 510 1038 474 1038 q 568 1032 546 1038 q 597 950 581 996 q 632 858 614 904 q 665 776 650 813 z "},"ã":{"ha":765,"x_min":35,"x_max":744,"o":"m 203 -15 q 121 8 160 -15 q 58 79 82 31 q 35 204 35 128 q 71 382 35 299 q 165 529 107 465 q 294 630 224 593 q 432 667 364 667 q 492 659 458 667 q 561 633 525 651 q 622 642 590 638 q 686 651 653 646 l 690 646 q 661 535 674 588 q 636 429 649 483 l 572 154 q 567 129 571 144 q 563 100 563 114 q 568 79 563 88 q 588 71 574 71 q 647 96 611 71 q 713 157 683 121 q 744 129 731 144 q 643 25 697 67 q 521 -17 589 -17 q 447 9 469 -17 q 425 74 425 35 q 440 160 425 111 l 433 160 q 323 28 382 71 q 203 -15 264 -15 m 525 546 q 464 588 496 572 q 399 604 432 604 q 307 567 347 604 q 239 470 267 529 q 197 344 211 411 q 183 215 183 276 q 206 102 183 132 q 258 72 228 72 q 338 108 294 72 q 424 222 382 143 q 497 429 467 300 l 525 546 m 701 1001 q 723 994 713 999 q 743 986 733 990 q 662 856 711 900 q 556 813 613 813 q 514 820 533 813 q 469 843 494 828 q 418 873 439 863 q 374 883 397 883 q 278 804 317 883 q 236 819 258 808 q 317 945 269 900 q 425 990 365 990 q 468 983 449 990 q 510 960 488 975 q 556 931 535 944 q 601 918 576 918 q 701 1001 660 918 z "},"ä":{"ha":765,"x_min":35,"x_max":744,"o":"m 203 -15 q 121 8 160 -15 q 58 79 82 31 q 35 204 35 128 q 71 382 35 299 q 165 529 107 465 q 294 630 224 593 q 432 667 364 667 q 492 659 458 667 q 561 633 525 651 q 622 642 590 638 q 686 651 653 646 l 690 646 q 661 535 674 588 q 636 429 649 483 l 572 154 q 567 129 571 144 q 563 100 563 114 q 568 79 563 88 q 588 71 574 71 q 647 96 611 71 q 713 157 683 121 q 744 129 731 144 q 643 25 697 67 q 521 -17 589 -17 q 447 9 469 -17 q 425 74 425 35 q 440 160 425 111 l 433 160 q 323 28 382 71 q 203 -15 264 -15 m 525 546 q 464 588 496 572 q 399 604 432 604 q 307 567 347 604 q 239 470 267 529 q 197 344 211 411 q 183 215 183 276 q 206 102 183 132 q 258 72 228 72 q 338 108 294 72 q 424 222 382 143 q 497 429 467 300 l 525 546 m 347 828 q 291 851 313 828 q 269 907 269 874 q 297 974 269 946 q 361 1001 324 1001 q 417 979 397 1001 q 438 922 438 957 q 412 856 438 883 q 347 828 386 828 m 610 828 q 553 851 575 828 q 532 907 532 874 q 559 974 532 946 q 624 1001 586 1001 q 680 979 660 1001 q 700 922 700 957 q 674 856 700 883 q 610 828 649 828 z "},"ā":{"ha":765,"x_min":35,"x_max":744,"o":"m 203 -15 q 121 8 160 -15 q 58 79 82 31 q 35 204 35 128 q 71 382 35 299 q 165 529 107 465 q 294 630 224 593 q 432 667 364 667 q 492 659 458 667 q 561 633 525 651 q 622 642 590 638 q 686 651 653 646 l 690 646 q 661 535 674 588 q 636 429 649 483 l 572 154 q 567 129 571 144 q 563 100 563 114 q 568 79 563 88 q 588 71 574 71 q 647 96 611 71 q 713 157 683 121 q 744 129 731 144 q 643 25 697 67 q 521 -17 589 -17 q 447 9 469 -17 q 425 74 425 35 q 440 160 425 111 l 433 160 q 323 28 382 71 q 203 -15 264 -15 m 525 546 q 464 588 496 572 q 399 604 432 604 q 307 567 347 604 q 239 470 267 529 q 197 344 211 411 q 183 215 183 276 q 206 102 183 132 q 258 72 228 72 q 338 108 294 72 q 424 222 382 143 q 497 429 467 300 l 525 546 m 292 911 l 675 911 q 663 842 672 875 l 279 842 q 292 911 282 879 z "},"ă":{"ha":765,"x_min":35,"x_max":744,"o":"m 203 -15 q 121 8 160 -15 q 58 79 82 31 q 35 204 35 128 q 71 382 35 299 q 165 529 107 465 q 294 630 224 593 q 432 667 364 667 q 492 659 458 667 q 561 633 525 651 q 622 642 590 638 q 686 651 653 646 l 690 646 q 661 535 674 588 q 636 429 649 483 l 572 154 q 567 129 571 144 q 563 100 563 114 q 568 79 563 88 q 588 71 574 71 q 647 96 611 71 q 713 157 683 121 q 744 129 731 144 q 643 25 697 67 q 521 -17 589 -17 q 447 9 469 -17 q 425 74 425 35 q 440 160 425 111 l 433 160 q 323 28 382 71 q 203 -15 264 -15 m 525 546 q 464 588 496 572 q 399 604 432 604 q 307 567 347 604 q 239 470 267 529 q 197 344 211 411 q 183 215 183 276 q 206 102 183 132 q 258 72 228 72 q 338 108 294 72 q 424 222 382 143 q 497 429 467 300 l 525 546 m 326 1019 q 325 1008 325 1011 q 325 999 325 1004 q 361 890 325 922 q 460 858 397 858 q 576 896 528 858 q 650 1019 624 933 q 690 1011 674 1017 q 677 942 690 985 q 636 854 664 899 q 563 779 608 810 q 450 749 517 749 q 349 777 388 749 q 294 851 311 806 q 278 946 278 897 q 279 975 278 958 q 283 1013 281 992 q 305 1017 294 1015 q 326 1019 315 1018 z "},"å":{"ha":765,"x_min":35,"x_max":744,"o":"m 203 -15 q 121 8 160 -15 q 58 79 82 31 q 35 204 35 128 q 71 382 35 299 q 165 529 107 465 q 294 630 224 593 q 432 667 364 667 q 492 659 458 667 q 561 633 525 651 q 622 642 590 638 q 686 651 653 646 l 690 646 q 661 535 674 588 q 636 429 649 483 l 572 154 q 567 129 571 144 q 563 100 563 114 q 568 79 563 88 q 588 71 574 71 q 647 96 611 71 q 713 157 683 121 q 744 129 731 144 q 643 25 697 67 q 521 -17 589 -17 q 447 9 469 -17 q 425 74 425 35 q 440 160 425 111 l 433 160 q 323 28 382 71 q 203 -15 264 -15 m 525 546 q 464 588 496 572 q 399 604 432 604 q 307 567 347 604 q 239 470 267 529 q 197 344 211 411 q 183 215 183 276 q 206 102 183 132 q 258 72 228 72 q 338 108 294 72 q 424 222 382 143 q 497 429 467 300 l 525 546 m 311 867 q 365 980 311 939 q 494 1021 419 1021 q 602 988 560 1021 q 644 894 644 956 q 596 783 644 826 q 469 740 547 740 q 394 753 431 740 q 334 794 357 767 q 311 867 311 822 m 490 981 q 425 949 451 981 q 399 874 399 918 q 419 809 399 835 q 474 783 439 783 q 535 816 513 783 q 557 893 557 849 q 542 954 557 928 q 490 981 526 981 z "},"æ":{"ha":1003,"x_min":35,"x_max":990,"o":"m 990 553 q 956 457 990 499 q 865 385 922 415 q 735 335 807 354 q 589 307 664 315 q 581 225 581 263 q 611 115 581 156 q 707 74 642 74 q 819 106 767 74 q 910 189 871 138 q 942 163 932 176 q 827 33 894 82 q 667 -17 760 -17 q 517 31 575 -17 q 442 160 458 78 l 438 160 q 325 28 386 71 q 203 -15 264 -15 q 121 8 160 -15 q 58 79 82 31 q 35 204 35 128 q 71 382 35 299 q 166 529 107 465 q 296 630 225 593 q 435 667 367 667 q 523 651 474 667 q 625 594 572 636 q 725 647 671 628 q 840 667 779 667 q 954 636 918 667 q 990 553 990 606 m 549 524 q 478 583 515 561 q 401 604 440 604 q 308 567 349 604 q 239 472 267 531 q 197 344 211 413 q 183 215 183 276 q 206 102 183 132 q 258 72 228 72 q 344 113 296 72 q 435 243 392 154 q 469 390 439 317 q 549 524 499 464 m 600 354 q 724 387 664 364 q 821 448 783 410 q 858 540 858 486 q 844 590 858 571 q 801 608 831 608 q 719 572 758 608 q 649 477 679 535 q 600 354 618 419 z "},"ǣ":{"ha":1003,"x_min":40,"x_max":996,"o":"m 996 553 q 962 457 996 499 q 870 385 928 415 q 741 335 813 354 q 594 307 669 315 q 586 225 586 263 q 617 115 586 156 q 713 74 647 74 q 824 106 772 74 q 915 189 876 138 q 947 163 938 176 q 833 33 900 82 q 672 -17 765 -17 q 522 31 581 -17 q 447 160 464 78 l 443 160 q 331 28 392 71 q 208 -15 269 -15 q 126 8 165 -15 q 64 79 88 31 q 40 204 40 128 q 76 382 40 299 q 172 529 113 465 q 301 630 231 593 q 440 667 372 667 q 528 651 479 667 q 631 594 578 636 q 731 647 676 628 q 846 667 785 667 q 960 636 924 667 q 996 553 996 606 m 554 524 q 483 583 521 561 q 407 604 446 604 q 313 567 354 604 q 244 472 272 531 q 203 344 217 413 q 189 215 189 276 q 211 102 189 132 q 264 72 233 72 q 349 113 301 72 q 440 243 397 154 q 474 390 444 317 q 554 524 504 464 m 606 354 q 729 387 669 364 q 826 448 789 410 q 864 540 864 486 q 850 590 864 571 q 807 608 836 608 q 724 572 764 608 q 654 477 685 535 q 606 354 624 419 m 456 911 l 839 911 q 826 842 836 875 l 443 842 q 456 911 446 879 z "},"ĉ":{"ha":594,"x_min":51,"x_max":649,"o":"m 279 -17 q 112 50 172 -17 q 51 229 51 117 q 88 399 51 319 q 183 538 124 478 q 315 631 243 597 q 458 665 388 665 q 567 638 524 665 q 610 567 610 610 q 590 518 610 538 q 539 499 571 499 q 476 523 508 499 q 438 608 444 547 q 342 569 386 607 q 267 474 299 532 q 217 350 235 415 q 199 226 199 285 q 225 122 199 167 q 324 78 251 78 q 434 110 383 78 q 522 194 485 142 q 556 168 544 183 q 491 78 529 121 q 401 10 453 36 q 279 -17 349 -17 m 649 776 q 631 764 640 768 q 610 757 621 760 q 540 847 575 801 q 475 932 504 893 q 371 844 425 893 q 261 754 317 796 q 242 767 253 757 q 228 785 232 776 q 300 867 261 821 q 375 958 339 913 q 433 1032 411 1003 q 493 1038 457 1038 q 551 1032 529 1038 q 581 950 564 996 q 615 858 597 904 q 649 776 633 813 z "},"č":{"ha":594,"x_min":51,"x_max":701,"o":"m 279 -17 q 112 50 172 -17 q 51 229 51 117 q 88 399 51 319 q 183 538 124 478 q 315 631 243 597 q 458 665 388 665 q 567 638 524 665 q 610 567 610 610 q 590 518 610 538 q 539 499 571 499 q 476 523 508 499 q 438 608 444 547 q 342 569 386 607 q 267 474 299 532 q 217 350 235 415 q 199 226 199 285 q 225 122 199 167 q 324 78 251 78 q 434 110 383 78 q 522 194 485 142 q 556 168 544 183 q 491 78 529 121 q 401 10 453 36 q 279 -17 349 -17 m 281 1015 q 299 1028 289 1024 q 319 1035 310 1032 q 390 944 354 990 q 454 860 425 899 q 558 947 504 899 q 668 1038 613 996 q 687 1025 676 1035 q 701 1007 697 1015 q 629 926 668 972 q 555 835 590 879 q 496 760 519 790 q 436 754 472 754 q 378 760 400 754 q 349 842 365 796 q 314 933 332 888 q 281 1015 296 979 z "},"ç":{"ha":594,"x_min":51,"x_max":610,"o":"m 279 -17 q 271 -17 275 -17 l 239 -74 q 342 -121 313 -85 q 372 -203 372 -157 q 344 -290 372 -256 q 273 -342 317 -325 q 179 -360 229 -360 q 96 -337 121 -360 q 71 -292 71 -315 q 86 -256 71 -271 q 124 -242 101 -242 q 166 -258 143 -242 q 204 -314 189 -274 q 267 -294 249 -312 q 286 -249 286 -275 q 249 -183 286 -208 q 144 -153 213 -158 l 142 -146 l 218 -11 q 113 50 154 4 q 51 229 51 117 q 88 399 51 319 q 183 538 124 478 q 315 631 243 597 q 458 665 388 665 q 567 638 524 665 q 610 567 610 610 q 590 518 610 538 q 539 499 571 499 q 476 523 508 499 q 438 608 444 547 q 342 569 386 607 q 267 474 299 532 q 217 350 235 415 q 199 226 199 285 q 225 122 199 167 q 324 78 251 78 q 434 110 383 78 q 522 194 485 142 q 556 168 544 183 q 491 78 529 121 q 401 10 453 36 q 279 -17 349 -17 z "},"ḍ":{"ha":772,"x_min":33,"x_max":772,"o":"m 458 163 l 451 163 q 321 23 386 61 q 201 -15 256 -15 q 84 38 135 -15 q 33 204 33 90 q 67 378 33 294 q 159 526 101 461 q 288 629 217 592 q 431 667 358 667 q 488 660 458 667 q 547 640 518 654 l 592 857 q 599 893 596 876 q 601 919 601 910 q 577 952 601 946 q 486 960 553 958 q 484 978 485 969 q 485 997 483 988 q 631 1013 560 1003 q 754 1044 703 1024 l 772 1035 q 744 922 758 983 q 714 785 729 861 l 585 154 q 580 128 583 144 q 576 100 576 113 q 601 69 576 69 q 661 94 625 69 q 726 156 697 119 q 758 128 744 143 q 656 24 711 65 q 535 -18 601 -18 q 464 6 485 -18 q 443 71 443 31 q 447 111 443 90 q 458 163 451 132 m 486 346 l 526 544 q 452 592 486 579 q 394 604 418 604 q 303 567 343 604 q 236 470 263 529 q 196 343 210 411 q 182 214 182 275 q 203 103 182 135 q 261 72 225 72 q 353 111 307 72 q 435 213 399 150 q 486 346 471 275 m 294 -301 q 232 -276 256 -301 q 208 -215 208 -251 q 238 -144 208 -174 q 311 -114 268 -114 q 372 -138 350 -114 q 394 -199 394 -162 q 367 -271 394 -240 q 294 -301 339 -301 z "},"ḏ":{"ha":772,"x_min":33,"x_max":772,"o":"m 458 163 l 451 163 q 321 23 386 61 q 201 -15 256 -15 q 84 38 135 -15 q 33 204 33 90 q 67 378 33 294 q 159 526 101 461 q 288 629 217 592 q 431 667 358 667 q 488 660 458 667 q 547 640 518 654 l 592 857 q 599 893 596 876 q 601 919 601 910 q 577 952 601 946 q 486 960 553 958 q 484 978 485 969 q 485 997 483 988 q 631 1013 560 1003 q 754 1044 703 1024 l 772 1035 q 744 922 758 983 q 714 785 729 861 l 585 154 q 580 128 583 144 q 576 100 576 113 q 601 69 576 69 q 661 94 625 69 q 726 156 697 119 q 758 128 744 143 q 656 24 711 65 q 535 -18 601 -18 q 464 6 485 -18 q 443 71 443 31 q 447 111 443 90 q 458 163 451 132 m 486 346 l 526 544 q 452 592 486 579 q 394 604 418 604 q 303 567 343 604 q 236 470 263 529 q 196 343 210 411 q 182 214 182 275 q 203 103 182 135 q 261 72 225 72 q 353 111 307 72 q 435 213 399 150 q 486 346 471 275 m 121 -143 l 504 -143 q 492 -212 501 -179 l 108 -212 q 121 -143 111 -175 z "},"è":{"ha":619,"x_min":49,"x_max":611,"o":"m 611 553 q 576 456 611 499 q 483 383 542 414 q 351 333 424 353 q 204 306 279 314 q 196 225 196 263 q 226 115 196 156 q 325 74 257 74 q 438 106 385 74 q 531 189 490 138 q 563 163 553 176 q 447 33 515 82 q 285 -17 379 -17 q 112 49 175 -17 q 49 226 49 115 q 79 382 49 304 q 165 524 110 460 q 295 628 219 589 q 460 667 371 667 q 574 636 538 667 q 611 553 611 606 m 215 354 q 341 385 281 363 q 440 447 401 408 q 479 540 479 485 q 465 590 479 571 q 421 608 451 608 q 338 572 378 608 q 265 476 297 535 q 215 354 233 418 m 297 1013 l 297 1018 q 337 1031 311 1025 q 390 1036 363 1036 q 413 1035 401 1036 q 433 1032 425 1035 l 474 767 q 457 758 468 761 q 438 754 446 756 l 297 1013 z "},"é":{"ha":619,"x_min":49,"x_max":671,"o":"m 611 553 q 576 456 611 499 q 483 383 542 414 q 351 333 424 353 q 204 306 279 314 q 196 225 196 263 q 226 115 196 156 q 325 74 257 74 q 438 106 385 74 q 531 189 490 138 q 563 163 553 176 q 447 33 515 82 q 285 -17 379 -17 q 112 49 175 -17 q 49 226 49 115 q 79 382 49 304 q 165 524 110 460 q 295 628 219 589 q 460 667 371 667 q 574 636 538 667 q 611 553 611 606 m 215 354 q 341 385 281 363 q 440 447 401 408 q 479 540 479 485 q 465 590 479 571 q 421 608 451 608 q 338 572 378 608 q 265 476 297 535 q 215 354 233 418 m 669 1024 l 671 1018 l 422 754 q 405 759 419 754 q 386 769 390 764 l 526 1031 q 549 1035 535 1033 q 579 1036 564 1036 q 630 1033 604 1036 q 669 1024 656 1029 z "},"ê":{"ha":619,"x_min":49,"x_max":642,"o":"m 611 553 q 576 456 611 499 q 483 383 542 414 q 351 333 424 353 q 204 306 279 314 q 196 225 196 263 q 226 115 196 156 q 325 74 257 74 q 438 106 385 74 q 531 189 490 138 q 563 163 553 176 q 447 33 515 82 q 285 -17 379 -17 q 112 49 175 -17 q 49 226 49 115 q 79 382 49 304 q 165 524 110 460 q 295 628 219 589 q 460 667 371 667 q 574 636 538 667 q 611 553 611 606 m 215 354 q 341 385 281 363 q 440 447 401 408 q 479 540 479 485 q 465 590 479 571 q 421 608 451 608 q 338 572 378 608 q 265 476 297 535 q 215 354 233 418 m 642 776 q 624 764 633 768 q 603 757 614 760 q 533 847 568 801 q 468 932 497 893 q 364 844 418 893 q 254 754 310 796 q 235 767 246 757 q 221 785 225 776 q 293 867 254 821 q 368 958 332 913 q 426 1032 404 1003 q 486 1038 450 1038 q 544 1032 522 1038 q 574 950 557 996 q 608 858 590 904 q 642 776 626 813 z "},"ẽ":{"ha":619,"x_min":49,"x_max":719,"o":"m 611 553 q 576 456 611 499 q 483 383 542 414 q 351 333 424 353 q 204 306 279 314 q 196 225 196 263 q 226 115 196 156 q 325 74 257 74 q 438 106 385 74 q 531 189 490 138 q 563 163 553 176 q 447 33 515 82 q 285 -17 379 -17 q 112 49 175 -17 q 49 226 49 115 q 79 382 49 304 q 165 524 110 460 q 295 628 219 589 q 460 667 371 667 q 574 636 538 667 q 611 553 611 606 m 215 354 q 341 385 281 363 q 440 447 401 408 q 479 540 479 485 q 465 590 479 571 q 421 608 451 608 q 338 572 378 608 q 265 476 297 535 q 215 354 233 418 m 678 1001 q 699 994 689 999 q 719 986 710 990 q 638 856 688 900 q 532 813 589 813 q 490 820 510 813 q 446 843 471 828 q 394 873 415 863 q 350 883 374 883 q 254 804 293 883 q 213 819 235 808 q 294 945 246 900 q 401 990 342 990 q 444 983 425 990 q 486 960 464 975 q 532 931 511 944 q 578 918 553 918 q 678 1001 636 918 z "},"ë":{"ha":619,"x_min":49,"x_max":676,"o":"m 611 553 q 576 456 611 499 q 483 383 542 414 q 351 333 424 353 q 204 306 279 314 q 196 225 196 263 q 226 115 196 156 q 325 74 257 74 q 438 106 385 74 q 531 189 490 138 q 563 163 553 176 q 447 33 515 82 q 285 -17 379 -17 q 112 49 175 -17 q 49 226 49 115 q 79 382 49 304 q 165 524 110 460 q 295 628 219 589 q 460 667 371 667 q 574 636 538 667 q 611 553 611 606 m 215 354 q 341 385 281 363 q 440 447 401 408 q 479 540 479 485 q 465 590 479 571 q 421 608 451 608 q 338 572 378 608 q 265 476 297 535 q 215 354 233 418 m 324 828 q 267 851 289 828 q 246 907 246 874 q 273 974 246 946 q 338 1001 300 1001 q 394 979 374 1001 q 414 922 414 957 q 388 856 414 883 q 324 828 363 828 m 586 828 q 530 851 551 828 q 508 907 508 874 q 535 974 508 946 q 600 1001 563 1001 q 656 979 636 1001 q 676 922 676 957 q 651 856 676 883 q 586 828 625 828 z "},"ē":{"ha":619,"x_min":49,"x_max":651,"o":"m 611 553 q 576 456 611 499 q 483 383 542 414 q 351 333 424 353 q 204 306 279 314 q 196 225 196 263 q 226 115 196 156 q 325 74 257 74 q 438 106 385 74 q 531 189 490 138 q 563 163 553 176 q 447 33 515 82 q 285 -17 379 -17 q 112 49 175 -17 q 49 226 49 115 q 79 382 49 304 q 165 524 110 460 q 295 628 219 589 q 460 667 371 667 q 574 636 538 667 q 611 553 611 606 m 215 354 q 341 385 281 363 q 440 447 401 408 q 479 540 479 485 q 465 590 479 571 q 421 608 451 608 q 338 572 378 608 q 265 476 297 535 q 215 354 233 418 m 268 911 l 651 911 q 639 842 649 875 l 256 842 q 268 911 258 879 z "},"ḗ":{"ha":619,"x_min":49,"x_max":713,"o":"m 611 553 q 576 456 611 499 q 483 383 542 414 q 351 333 424 353 q 204 306 279 314 q 196 225 196 263 q 226 115 196 156 q 325 74 257 74 q 438 106 385 74 q 531 189 490 138 q 563 163 553 176 q 447 33 515 82 q 285 -17 379 -17 q 112 49 175 -17 q 49 226 49 115 q 79 382 49 304 q 165 524 110 460 q 295 628 219 589 q 460 667 371 667 q 574 636 538 667 q 611 553 611 606 m 215 354 q 341 385 281 363 q 440 447 401 408 q 479 540 479 485 q 465 590 479 571 q 421 608 451 608 q 338 572 378 608 q 265 476 297 535 q 215 354 233 418 m 263 883 l 646 883 q 633 814 643 847 l 250 814 q 263 883 253 851 m 711 1232 l 713 1226 l 464 963 q 447 967 461 963 q 428 978 432 972 l 568 1239 q 591 1243 576 1242 q 621 1244 606 1244 q 672 1241 646 1244 q 711 1232 697 1238 z "},"ĕ":{"ha":619,"x_min":42,"x_max":660,"o":"m 604 553 q 569 456 604 499 q 476 383 535 414 q 344 333 417 353 q 197 306 272 314 q 189 225 189 263 q 219 115 189 156 q 318 74 250 74 q 431 106 378 74 q 524 189 483 138 q 556 163 546 176 q 440 33 508 82 q 278 -17 372 -17 q 105 49 168 -17 q 42 226 42 115 q 72 382 42 304 q 158 524 103 460 q 288 628 213 589 q 453 667 364 667 q 567 636 531 667 q 604 553 604 606 m 208 354 q 334 385 274 363 q 433 447 394 408 q 472 540 472 485 q 458 590 472 571 q 414 608 444 608 q 331 572 371 608 q 258 476 290 535 q 208 354 226 418 m 296 1019 q 294 1008 294 1011 q 294 999 294 1004 q 331 890 294 922 q 429 858 367 858 q 545 896 497 858 q 619 1019 593 933 q 660 1011 643 1017 q 647 942 660 985 q 606 854 633 899 q 532 779 578 810 q 419 749 486 749 q 319 777 357 749 q 264 851 281 806 q 247 946 247 897 q 249 975 247 958 q 253 1013 250 992 q 274 1017 264 1015 q 296 1019 285 1018 z "},"ġ":{"ha":711,"x_min":-42,"x_max":749,"o":"m 232 -354 q 105 -336 168 -354 q 0 -280 42 -318 q -42 -183 -42 -242 q 9 -74 -42 -118 q 128 6 60 -29 q 78 41 97 19 q 60 94 60 63 q 90 167 60 133 q 188 239 121 200 q 114 307 142 264 q 86 407 86 350 q 128 537 86 478 q 242 631 171 596 q 397 667 313 667 q 589 593 521 667 q 647 643 628 615 q 621 708 621 671 q 638 756 621 736 q 686 776 656 776 q 730 760 711 776 q 749 713 749 744 q 712 633 749 669 q 614 560 675 597 q 639 460 639 515 q 599 329 639 388 q 490 237 558 271 q 338 203 422 203 q 232 219 281 203 q 188 183 204 201 q 172 147 172 164 q 206 107 172 121 q 293 85 240 93 q 406 66 346 76 q 518 37 465 56 q 605 -15 571 18 q 639 -104 639 -49 q 599 -211 639 -164 q 497 -290 560 -258 q 365 -337 435 -321 q 232 -354 294 -354 m 181 -12 q 108 -81 133 -44 q 83 -162 83 -118 q 111 -242 83 -211 q 182 -286 139 -272 q 271 -300 225 -300 q 382 -283 325 -300 q 478 -233 439 -265 q 517 -154 517 -200 q 484 -90 517 -112 q 399 -56 451 -68 q 290 -35 347 -43 q 181 -12 232 -26 m 338 251 q 413 274 382 251 q 464 331 444 296 q 492 404 483 365 q 501 476 501 443 q 492 541 501 507 q 458 599 483 575 q 385 622 433 622 q 309 600 340 622 q 259 543 278 578 q 232 470 240 508 q 224 399 224 432 q 233 331 224 365 q 268 274 243 297 q 338 251 293 251 m 428 825 q 367 850 390 825 q 343 911 343 875 q 373 983 343 953 q 444 1013 403 1013 q 504 988 482 1013 q 526 928 526 964 q 499 856 526 886 q 428 825 471 825 z "},"ḥ":{"ha":800,"x_min":57,"x_max":783,"o":"m 239 222 l 193 0 l 57 0 l 232 857 q 239 893 236 876 q 242 919 242 910 q 217 952 242 946 q 126 960 193 958 q 124 978 125 969 q 125 997 124 988 q 272 1013 200 1003 q 394 1044 343 1024 l 413 1035 q 382 913 396 975 q 354 785 368 851 l 310 574 l 288 479 l 294 479 q 424 619 351 571 q 568 667 496 667 q 669 631 633 667 q 704 542 704 594 q 694 464 704 513 q 668 359 683 415 q 638 249 653 303 q 612 155 622 196 q 601 97 601 114 q 607 79 601 88 q 626 71 613 71 q 686 96 650 71 q 751 157 722 121 q 783 129 769 144 q 681 25 736 67 q 561 -17 626 -17 q 485 9 510 -17 q 461 74 461 35 q 472 147 461 101 q 497 247 482 193 q 527 356 513 301 q 552 454 542 410 q 563 524 563 499 q 549 569 563 551 q 508 586 536 586 q 418 549 471 586 q 316 433 365 513 q 239 222 267 353 m 290 -301 q 228 -276 251 -301 q 204 -215 204 -251 q 234 -144 204 -174 q 307 -114 264 -114 q 368 -138 346 -114 q 390 -199 390 -162 q 363 -271 390 -240 q 290 -301 335 -301 z "},"ẖ":{"ha":800,"x_min":57,"x_max":783,"o":"m 239 222 l 193 0 l 57 0 l 232 857 q 239 893 236 876 q 242 919 242 910 q 217 952 242 946 q 126 960 193 958 q 124 978 125 969 q 125 997 124 988 q 272 1013 200 1003 q 394 1044 343 1024 l 413 1035 q 382 913 396 975 q 354 785 368 851 l 310 574 l 288 479 l 294 479 q 424 619 351 571 q 568 667 496 667 q 669 631 633 667 q 704 542 704 594 q 694 464 704 513 q 668 359 683 415 q 638 249 653 303 q 612 155 622 196 q 601 97 601 114 q 607 79 601 88 q 626 71 613 71 q 686 96 650 71 q 751 157 722 121 q 783 129 769 144 q 681 25 736 67 q 561 -17 626 -17 q 485 9 510 -17 q 461 74 461 35 q 472 147 461 101 q 497 247 482 193 q 527 356 513 301 q 552 454 542 410 q 563 524 563 499 q 549 569 563 551 q 508 586 536 586 q 418 549 471 586 q 316 433 365 513 q 239 222 267 353 m 117 -143 l 500 -143 q 488 -212 497 -179 l 104 -212 q 117 -143 107 -175 z "},"ı":{"ha":422,"x_min":17,"x_max":406,"o":"m 374 157 q 406 129 392 144 q 303 25 358 67 q 182 -17 249 -17 q 107 9 131 -17 q 83 78 83 35 q 86 110 83 93 q 93 146 89 128 l 176 493 q 186 546 186 533 q 161 579 186 579 q 110 558 142 579 q 49 504 79 536 q 31 518 39 511 q 17 533 24 525 q 131 631 72 599 q 242 664 190 664 q 309 640 289 664 q 329 579 329 615 q 327 552 329 567 q 322 522 325 538 l 233 153 q 228 128 232 143 q 224 100 224 114 q 229 79 224 88 q 249 71 235 71 q 308 96 272 71 q 374 157 344 121 z "},"ì":{"ha":422,"x_min":14,"x_max":403,"o":"m 371 157 q 403 129 389 144 q 301 25 356 67 q 179 -17 246 -17 q 104 9 128 -17 q 81 78 81 35 q 83 110 81 93 q 90 146 86 128 l 174 493 q 183 546 183 533 q 158 579 183 579 q 108 558 139 579 q 46 504 76 536 q 28 518 36 511 q 14 533 21 525 q 128 631 69 599 q 239 664 188 664 q 306 640 286 664 q 326 579 326 615 q 324 552 326 567 q 319 522 322 538 l 231 153 q 225 128 229 143 q 221 100 221 114 q 226 79 221 88 q 246 71 232 71 q 306 96 269 71 q 371 157 342 121 m 132 1013 l 132 1018 q 172 1031 146 1025 q 225 1036 197 1036 q 248 1035 236 1036 q 268 1032 260 1035 l 308 767 q 292 758 303 761 q 272 754 281 756 l 132 1013 z "},"í":{"ha":422,"x_min":14,"x_max":506,"o":"m 371 157 q 403 129 389 144 q 301 25 356 67 q 179 -17 246 -17 q 104 9 128 -17 q 81 78 81 35 q 83 110 81 93 q 90 146 86 128 l 174 493 q 183 546 183 533 q 158 579 183 579 q 108 558 139 579 q 46 504 76 536 q 28 518 36 511 q 14 533 21 525 q 128 631 69 599 q 239 664 188 664 q 306 640 286 664 q 326 579 326 615 q 324 552 326 567 q 319 522 322 538 l 231 153 q 225 128 229 143 q 221 100 221 114 q 226 79 221 88 q 246 71 232 71 q 306 96 269 71 q 371 157 342 121 m 504 1024 l 506 1018 l 257 754 q 240 759 254 754 q 221 769 225 764 l 361 1031 q 384 1035 369 1033 q 414 1036 399 1036 q 465 1033 439 1036 q 504 1024 490 1029 z "},"î":{"ha":422,"x_min":14,"x_max":476,"o":"m 371 157 q 403 129 389 144 q 301 25 356 67 q 179 -17 246 -17 q 104 9 128 -17 q 81 78 81 35 q 83 110 81 93 q 90 146 86 128 l 174 493 q 183 546 183 533 q 158 579 183 579 q 108 558 139 579 q 46 504 76 536 q 28 518 36 511 q 14 533 21 525 q 128 631 69 599 q 239 664 188 664 q 306 640 286 664 q 326 579 326 615 q 324 552 326 567 q 319 522 322 538 l 231 153 q 225 128 229 143 q 221 100 221 114 q 226 79 221 88 q 246 71 232 71 q 306 96 269 71 q 371 157 342 121 m 476 776 q 458 764 468 768 q 438 757 449 760 q 367 847 403 801 q 303 932 332 893 q 199 844 253 893 q 89 754 144 796 q 70 767 81 757 q 56 785 60 776 q 128 867 89 821 q 203 958 167 913 q 261 1032 239 1003 q 321 1038 285 1038 q 379 1032 357 1038 q 408 950 392 996 q 443 858 425 904 q 476 776 461 813 z "},"ĩ":{"ha":422,"x_min":14,"x_max":554,"o":"m 371 157 q 403 129 389 144 q 301 25 356 67 q 179 -17 246 -17 q 104 9 128 -17 q 81 78 81 35 q 83 110 81 93 q 90 146 86 128 l 174 493 q 183 546 183 533 q 158 579 183 579 q 108 558 139 579 q 46 504 76 536 q 28 518 36 511 q 14 533 21 525 q 128 631 69 599 q 239 664 188 664 q 306 640 286 664 q 326 579 326 615 q 324 552 326 567 q 319 522 322 538 l 231 153 q 225 128 229 143 q 221 100 221 114 q 226 79 221 88 q 246 71 232 71 q 306 96 269 71 q 371 157 342 121 m 513 1001 q 534 994 524 999 q 554 986 544 990 q 473 856 522 900 q 367 813 424 813 q 325 820 344 813 q 281 843 306 828 q 229 873 250 863 q 185 883 208 883 q 89 804 128 883 q 47 819 69 808 q 128 945 81 900 q 236 990 176 990 q 279 983 260 990 q 321 960 299 975 q 367 931 346 944 q 413 918 388 918 q 513 1001 471 918 z "},"ï":{"ha":422,"x_min":14,"x_max":511,"o":"m 371 157 q 403 129 389 144 q 301 25 356 67 q 179 -17 246 -17 q 104 9 128 -17 q 81 78 81 35 q 83 110 81 93 q 90 146 86 128 l 174 493 q 183 546 183 533 q 158 579 183 579 q 108 558 139 579 q 46 504 76 536 q 28 518 36 511 q 14 533 21 525 q 128 631 69 599 q 239 664 188 664 q 306 640 286 664 q 326 579 326 615 q 324 552 326 567 q 319 522 322 538 l 231 153 q 225 128 229 143 q 221 100 221 114 q 226 79 221 88 q 246 71 232 71 q 306 96 269 71 q 371 157 342 121 m 158 828 q 102 851 124 828 q 81 907 81 874 q 108 974 81 946 q 172 1001 135 1001 q 228 979 208 1001 q 249 922 249 957 q 223 856 249 883 q 158 828 197 828 m 421 828 q 365 851 386 828 q 343 907 343 874 q 370 974 343 946 q 435 1001 397 1001 q 491 979 471 1001 q 511 922 511 957 q 485 856 511 883 q 421 828 460 828 z "},"ī":{"ha":422,"x_min":14,"x_max":486,"o":"m 371 157 q 403 129 389 144 q 301 25 356 67 q 179 -17 246 -17 q 104 9 128 -17 q 81 78 81 35 q 83 110 81 93 q 90 146 86 128 l 174 493 q 183 546 183 533 q 158 579 183 579 q 108 558 139 579 q 46 504 76 536 q 28 518 36 511 q 14 533 21 525 q 128 631 69 599 q 239 664 188 664 q 306 640 286 664 q 326 579 326 615 q 324 552 326 567 q 319 522 322 538 l 231 153 q 225 128 229 143 q 221 100 221 114 q 226 79 221 88 q 246 71 232 71 q 306 96 269 71 q 371 157 342 121 m 103 911 l 486 911 q 474 842 483 875 l 90 842 q 103 911 93 879 z "},"ĭ":{"ha":422,"x_min":14,"x_max":501,"o":"m 371 157 q 403 129 389 144 q 301 25 356 67 q 179 -17 246 -17 q 104 9 128 -17 q 81 78 81 35 q 83 110 81 93 q 90 146 86 128 l 174 493 q 183 546 183 533 q 158 579 183 579 q 108 558 139 579 q 46 504 76 536 q 28 518 36 511 q 14 533 21 525 q 128 631 69 599 q 239 664 188 664 q 306 640 286 664 q 326 579 326 615 q 324 552 326 567 q 319 522 322 538 l 231 153 q 225 128 229 143 q 221 100 221 114 q 226 79 221 88 q 246 71 232 71 q 306 96 269 71 q 371 157 342 121 m 138 1019 q 136 1008 136 1011 q 136 999 136 1004 q 172 890 136 922 q 271 858 208 858 q 387 896 339 858 q 461 1019 435 933 q 501 1011 485 1017 q 488 942 501 985 q 447 854 475 899 q 374 779 419 810 q 261 749 328 749 q 160 777 199 749 q 106 851 122 806 q 89 946 89 897 q 90 975 89 958 q 94 1013 92 992 q 116 1017 106 1015 q 138 1019 126 1018 z "},"ȷ":{"ha":393,"x_min":-242,"x_max":326,"o":"m 239 664 q 306 640 286 664 q 326 578 326 615 q 325 553 326 569 q 319 522 324 538 l 233 151 q 149 -112 199 1 q 33 -290 100 -226 q -121 -354 -33 -354 q -208 -331 -174 -354 q -242 -271 -242 -308 q -222 -224 -242 -243 q -174 -206 -201 -206 q -112 -232 -139 -206 q -71 -294 -85 -258 q 1 -209 -26 -279 q 61 -4 29 -139 l 175 493 q 185 546 185 533 q 158 579 185 579 q 108 558 139 579 q 46 504 76 536 q 28 518 36 511 q 14 533 21 525 q 128 631 69 599 q 239 664 188 664 z "},"ḳ":{"ha":722,"x_min":57,"x_max":704,"o":"m 193 0 l 57 0 l 232 857 q 239 893 236 876 q 242 919 242 910 q 217 952 242 946 q 126 960 193 958 q 124 972 125 965 q 124 983 124 978 q 125 997 124 992 q 272 1013 200 1003 q 394 1044 343 1024 l 413 1035 q 381 911 396 975 q 354 785 367 847 l 311 576 l 285 468 l 292 468 q 433 616 360 565 q 585 667 507 667 q 676 635 650 667 q 703 563 703 603 q 639 440 703 497 q 432 326 575 383 q 483 189 463 239 q 517 115 504 139 q 540 85 531 92 q 557 79 549 79 q 613 101 582 79 q 672 157 643 122 q 704 129 690 144 q 597 22 653 60 q 492 -17 540 -17 q 425 12 453 -17 q 368 114 397 40 q 293 322 339 188 q 469 402 410 363 q 548 476 528 442 q 568 538 568 511 q 558 569 568 557 q 525 582 549 582 q 451 558 493 582 q 369 492 410 533 q 297 398 328 451 q 253 288 265 344 l 251 282 l 193 0 m 256 -301 q 193 -276 217 -301 q 169 -215 169 -251 q 199 -144 169 -174 q 272 -114 229 -114 q 333 -138 311 -114 q 356 -199 356 -162 q 328 -271 356 -240 q 256 -301 300 -301 z "},"ḵ":{"ha":722,"x_min":57,"x_max":704,"o":"m 193 0 l 57 0 l 232 857 q 239 893 236 876 q 242 919 242 910 q 217 952 242 946 q 126 960 193 958 q 124 972 125 965 q 124 983 124 978 q 125 997 124 992 q 272 1013 200 1003 q 394 1044 343 1024 l 413 1035 q 381 911 396 975 q 354 785 367 847 l 311 576 l 285 468 l 292 468 q 433 616 360 565 q 585 667 507 667 q 676 635 650 667 q 703 563 703 603 q 639 440 703 497 q 432 326 575 383 q 483 189 463 239 q 517 115 504 139 q 540 85 531 92 q 557 79 549 79 q 613 101 582 79 q 672 157 643 122 q 704 129 690 144 q 597 22 653 60 q 492 -17 540 -17 q 425 12 453 -17 q 368 114 397 40 q 293 322 339 188 q 469 402 410 363 q 548 476 528 442 q 568 538 568 511 q 558 569 568 557 q 525 582 549 582 q 451 558 493 582 q 369 492 410 533 q 297 398 328 451 q 253 288 265 344 l 251 282 l 193 0 m 82 -143 l 465 -143 q 453 -212 463 -179 l 69 -212 q 82 -143 72 -175 z "},"ĺ":{"ha":406,"x_min":69,"x_max":539,"o":"m 360 157 q 392 129 378 144 q 290 25 344 67 q 168 -17 235 -17 q 93 9 117 -17 q 69 78 69 35 q 72 111 69 93 q 79 147 75 129 l 225 857 q 232 892 229 876 q 235 918 235 908 q 210 952 235 946 q 119 960 186 958 q 117 978 118 969 q 118 997 117 988 q 265 1013 193 1003 q 388 1044 336 1024 l 406 1035 q 377 922 392 983 q 347 785 363 861 l 218 156 q 213 130 217 146 q 210 100 210 114 q 215 79 210 88 q 235 71 221 71 q 294 96 258 71 q 360 157 331 121 m 539 1217 l 539 1213 q 403 1141 476 1181 q 257 1063 331 1101 q 242 1076 247 1068 q 229 1094 236 1083 q 442 1307 340 1199 q 491 1278 464 1306 q 539 1217 518 1250 z "},"ḻ":{"ha":406,"x_min":-71,"x_max":406,"o":"m 360 157 q 392 129 378 144 q 290 25 344 67 q 168 -17 235 -17 q 93 9 117 -17 q 69 78 69 35 q 72 111 69 93 q 79 147 75 129 l 225 857 q 232 892 229 876 q 235 918 235 908 q 210 952 235 946 q 119 960 186 958 q 117 978 118 969 q 118 997 117 988 q 265 1013 193 1003 q 388 1044 336 1024 l 406 1035 q 377 922 392 983 q 347 785 363 861 l 218 156 q 213 130 217 146 q 210 100 210 114 q 215 79 210 88 q 235 71 221 71 q 294 96 258 71 q 360 157 331 121 m -58 -143 l 325 -143 q 313 -212 322 -179 l -71 -212 q -58 -143 -68 -175 z "},"ḷ":{"ha":406,"x_min":29,"x_max":406,"o":"m 360 157 q 392 129 378 144 q 290 25 344 67 q 168 -17 235 -17 q 93 9 117 -17 q 69 78 69 35 q 72 111 69 93 q 79 147 75 129 l 225 857 q 232 892 229 876 q 235 918 235 908 q 210 952 235 946 q 119 960 186 958 q 117 978 118 969 q 118 997 117 988 q 265 1013 193 1003 q 388 1044 336 1024 l 406 1035 q 377 922 392 983 q 347 785 363 861 l 218 156 q 213 130 217 146 q 210 100 210 114 q 215 79 210 88 q 235 71 221 71 q 294 96 258 71 q 360 157 331 121 m 115 -301 q 53 -276 76 -301 q 29 -215 29 -251 q 59 -144 29 -174 q 132 -114 89 -114 q 193 -138 171 -114 q 215 -199 215 -162 q 188 -271 215 -240 q 115 -301 160 -301 z "},"ṁ":{"ha":1196,"x_min":22,"x_max":1172,"o":"m 950 -17 q 874 9 899 -17 q 850 74 850 35 q 860 147 850 101 q 885 248 871 193 q 915 357 900 303 q 941 456 931 411 q 951 528 951 501 q 942 568 951 550 q 904 586 933 586 q 821 553 871 586 q 723 448 771 521 q 646 253 675 375 l 586 0 l 447 0 l 558 471 q 567 510 564 493 q 569 540 569 526 q 561 574 569 563 q 528 586 553 586 q 434 550 485 586 q 339 440 383 514 q 267 253 294 367 l 207 0 l 68 0 l 182 493 q 192 546 192 533 q 167 579 192 579 q 116 558 147 579 q 54 504 85 536 q 37 518 44 511 q 22 533 29 525 q 135 631 75 597 q 246 664 194 664 q 314 639 294 664 q 333 582 333 614 q 330 548 333 571 q 321 497 326 525 l 325 497 q 443 621 375 575 q 581 667 511 667 q 669 640 633 667 q 706 557 706 613 q 705 535 706 547 q 700 497 704 522 l 704 497 q 825 623 757 579 q 961 667 893 667 q 1058 633 1022 667 q 1093 544 1093 600 q 1083 465 1093 514 q 1057 360 1072 417 q 1026 251 1042 304 q 1001 156 1011 197 q 990 99 990 115 q 996 80 990 89 q 1015 71 1001 71 q 1075 96 1039 71 q 1140 157 1111 121 q 1172 129 1158 144 q 1070 25 1125 67 q 950 -17 1015 -17 m 714 825 q 653 850 676 825 q 629 911 629 875 q 659 983 629 953 q 731 1013 689 1013 q 790 988 768 1013 q 813 928 813 964 q 785 856 813 886 q 714 825 757 825 z "},"ṃ":{"ha":1196,"x_min":22,"x_max":1172,"o":"m 950 -17 q 874 9 899 -17 q 850 74 850 35 q 860 147 850 101 q 885 248 871 193 q 915 357 900 303 q 941 456 931 411 q 951 528 951 501 q 942 568 951 550 q 904 586 933 586 q 821 553 871 586 q 723 448 771 521 q 646 253 675 375 l 586 0 l 447 0 l 558 471 q 567 510 564 493 q 569 540 569 526 q 561 574 569 563 q 528 586 553 586 q 434 550 485 586 q 339 440 383 514 q 267 253 294 367 l 207 0 l 68 0 l 182 493 q 192 546 192 533 q 167 579 192 579 q 116 558 147 579 q 54 504 85 536 q 37 518 44 511 q 22 533 29 525 q 135 631 75 597 q 246 664 194 664 q 314 639 294 664 q 333 582 333 614 q 330 548 333 571 q 321 497 326 525 l 325 497 q 443 621 375 575 q 581 667 511 667 q 669 640 633 667 q 706 557 706 613 q 705 535 706 547 q 700 497 704 522 l 704 497 q 825 623 757 579 q 961 667 893 667 q 1058 633 1022 667 q 1093 544 1093 600 q 1083 465 1093 514 q 1057 360 1072 417 q 1026 251 1042 304 q 1001 156 1011 197 q 990 99 990 115 q 996 80 990 89 q 1015 71 1001 71 q 1075 96 1039 71 q 1140 157 1111 121 q 1172 129 1158 144 q 1070 25 1125 67 q 950 -17 1015 -17 m 479 -301 q 417 -276 440 -301 q 393 -215 393 -251 q 423 -144 393 -174 q 496 -114 453 -114 q 557 -138 535 -114 q 579 -199 579 -162 q 551 -271 579 -240 q 479 -301 524 -301 z "},"ñ":{"ha":826,"x_min":22,"x_max":803,"o":"m 265 253 l 207 0 l 68 0 l 182 493 q 192 546 192 533 q 167 579 192 579 q 116 558 147 579 q 54 504 85 536 q 37 518 44 511 q 22 533 29 525 q 137 631 78 599 q 247 664 196 664 q 314 640 294 664 q 333 585 333 617 q 328 545 333 568 q 319 497 324 522 l 324 497 q 448 624 376 582 q 586 667 519 667 q 688 630 653 667 q 724 540 724 593 q 713 463 724 511 q 688 358 703 414 q 657 249 672 303 q 631 155 642 196 q 621 97 621 114 q 626 79 621 88 q 646 71 632 71 q 706 96 669 71 q 771 157 742 121 q 803 129 789 144 q 701 25 756 67 q 579 -17 646 -17 q 504 9 528 -17 q 481 74 481 35 q 491 147 481 101 q 517 247 501 193 q 547 355 532 301 q 572 453 561 408 q 582 522 582 497 q 569 568 582 550 q 525 586 557 586 q 435 551 485 586 q 340 446 385 517 q 268 264 294 375 l 265 253 m 744 1001 q 766 994 756 999 q 786 986 776 990 q 705 856 754 900 q 599 813 656 813 q 557 820 576 813 q 513 843 538 828 q 461 873 482 863 q 417 883 440 883 q 321 804 360 883 q 279 819 301 808 q 360 945 313 900 q 468 990 408 990 q 511 983 492 990 q 553 960 531 975 q 599 931 578 944 q 644 918 619 918 q 744 1001 703 918 z "},"ṅ":{"ha":826,"x_min":22,"x_max":803,"o":"m 265 253 l 207 0 l 68 0 l 182 493 q 192 546 192 533 q 167 579 192 579 q 116 558 147 579 q 54 504 85 536 q 37 518 44 511 q 22 533 29 525 q 137 631 78 599 q 247 664 196 664 q 314 640 294 664 q 333 585 333 617 q 328 545 333 568 q 319 497 324 522 l 324 497 q 448 624 376 582 q 586 667 519 667 q 688 630 653 667 q 724 540 724 593 q 713 463 724 511 q 688 358 703 414 q 657 249 672 303 q 631 155 642 196 q 621 97 621 114 q 626 79 621 88 q 646 71 632 71 q 706 96 669 71 q 771 157 742 121 q 803 129 789 144 q 701 25 756 67 q 579 -17 646 -17 q 504 9 528 -17 q 481 74 481 35 q 491 147 481 101 q 517 247 501 193 q 547 355 532 301 q 572 453 561 408 q 582 522 582 497 q 569 568 582 550 q 525 586 557 586 q 435 551 485 586 q 340 446 385 517 q 268 264 294 375 l 265 253 m 521 825 q 460 850 483 825 q 436 911 436 875 q 466 983 436 953 q 538 1013 496 1013 q 597 988 575 1013 q 619 928 619 964 q 592 856 619 886 q 521 825 564 825 z "},"ṉ":{"ha":826,"x_min":22,"x_max":803,"o":"m 265 253 l 207 0 l 68 0 l 182 493 q 192 546 192 533 q 167 579 192 579 q 116 558 147 579 q 54 504 85 536 q 37 518 44 511 q 22 533 29 525 q 137 631 78 599 q 247 664 196 664 q 314 640 294 664 q 333 585 333 617 q 328 545 333 568 q 319 497 324 522 l 324 497 q 448 624 376 582 q 586 667 519 667 q 688 630 653 667 q 724 540 724 593 q 713 463 724 511 q 688 358 703 414 q 657 249 672 303 q 631 155 642 196 q 621 97 621 114 q 626 79 621 88 q 646 71 632 71 q 706 96 669 71 q 771 157 742 121 q 803 129 789 144 q 701 25 756 67 q 579 -17 646 -17 q 504 9 528 -17 q 481 74 481 35 q 491 147 481 101 q 517 247 501 193 q 547 355 532 301 q 572 453 561 408 q 582 522 582 497 q 569 568 582 550 q 525 586 557 586 q 435 551 485 586 q 340 446 385 517 q 268 264 294 375 l 265 253 m 131 -143 l 514 -143 q 501 -212 511 -179 l 118 -212 q 131 -143 121 -175 z "},"ṇ":{"ha":826,"x_min":22,"x_max":803,"o":"m 265 253 l 207 0 l 68 0 l 182 493 q 192 546 192 533 q 167 579 192 579 q 116 558 147 579 q 54 504 85 536 q 37 518 44 511 q 22 533 29 525 q 137 631 78 599 q 247 664 196 664 q 314 640 294 664 q 333 585 333 617 q 328 545 333 568 q 319 497 324 522 l 324 497 q 448 624 376 582 q 586 667 519 667 q 688 630 653 667 q 724 540 724 593 q 713 463 724 511 q 688 358 703 414 q 657 249 672 303 q 631 155 642 196 q 621 97 621 114 q 626 79 621 88 q 646 71 632 71 q 706 96 669 71 q 771 157 742 121 q 803 129 789 144 q 701 25 756 67 q 579 -17 646 -17 q 504 9 528 -17 q 481 74 481 35 q 491 147 481 101 q 517 247 501 193 q 547 355 532 301 q 572 453 561 408 q 582 522 582 497 q 569 568 582 550 q 525 586 557 586 q 435 551 485 586 q 340 446 385 517 q 268 264 294 375 l 265 253 m 304 -301 q 242 -276 265 -301 q 218 -215 218 -251 q 248 -144 218 -174 q 321 -114 278 -114 q 382 -138 360 -114 q 404 -199 404 -162 q 376 -271 404 -240 q 304 -301 349 -301 z "},"ņ":{"ha":826,"x_min":22,"x_max":803,"o":"m 265 253 l 207 0 l 68 0 l 182 493 q 192 546 192 533 q 167 579 192 579 q 116 558 147 579 q 54 504 85 536 q 37 518 44 511 q 22 533 29 525 q 137 631 78 599 q 247 664 196 664 q 314 640 294 664 q 333 585 333 617 q 328 545 333 568 q 319 497 324 522 l 324 497 q 448 624 376 582 q 586 667 519 667 q 688 630 653 667 q 724 540 724 593 q 713 463 724 511 q 688 358 703 414 q 657 249 672 303 q 631 155 642 196 q 621 97 621 114 q 626 79 621 88 q 646 71 632 71 q 706 96 669 71 q 771 157 742 121 q 803 129 789 144 q 701 25 756 67 q 579 -17 646 -17 q 504 9 528 -17 q 481 74 481 35 q 491 147 481 101 q 517 247 501 193 q 547 355 532 301 q 572 453 561 408 q 582 522 582 497 q 569 568 582 550 q 525 586 557 586 q 435 551 485 586 q 340 446 385 517 q 268 264 294 375 l 265 253 m 321 -61 q 390 -92 365 -61 q 415 -174 415 -122 q 386 -269 415 -229 q 308 -335 357 -310 q 200 -369 258 -360 q 196 -348 199 -362 q 193 -328 193 -333 q 302 -283 264 -317 q 340 -206 340 -250 l 340 -199 q 303 -210 325 -210 q 249 -188 265 -210 q 232 -140 232 -167 q 258 -82 232 -103 q 321 -61 285 -61 z "},"ò":{"ha":732,"x_min":53,"x_max":679,"o":"m 679 394 q 656 251 679 324 q 588 119 633 179 q 474 21 542 58 q 317 -17 406 -17 q 191 10 242 -17 q 110 78 140 36 q 66 169 79 119 q 53 264 53 218 q 74 393 53 324 q 140 525 96 463 q 254 627 185 588 q 419 667 324 667 q 567 630 510 667 q 652 531 625 593 q 679 394 679 469 m 532 417 q 505 559 532 503 q 414 615 478 615 q 324 582 364 615 q 257 493 285 549 q 215 372 229 438 q 200 239 200 306 q 228 94 200 153 q 322 35 257 35 q 413 69 374 35 q 478 161 451 104 q 518 285 504 218 q 532 417 532 353 m 307 1013 l 307 1018 q 347 1031 321 1025 q 400 1036 372 1036 q 423 1035 411 1036 q 443 1032 435 1035 l 483 767 q 467 758 478 761 q 447 754 456 756 l 307 1013 z "},"ó":{"ha":732,"x_min":53,"x_max":681,"o":"m 679 394 q 656 251 679 324 q 588 119 633 179 q 474 21 542 58 q 317 -17 406 -17 q 191 10 242 -17 q 110 78 140 36 q 66 169 79 119 q 53 264 53 218 q 74 393 53 324 q 140 525 96 463 q 254 627 185 588 q 419 667 324 667 q 567 630 510 667 q 652 531 625 593 q 679 394 679 469 m 532 417 q 505 559 532 503 q 414 615 478 615 q 324 582 364 615 q 257 493 285 549 q 215 372 229 438 q 200 239 200 306 q 228 94 200 153 q 322 35 257 35 q 413 69 374 35 q 478 161 451 104 q 518 285 504 218 q 532 417 532 353 m 679 1024 l 681 1018 l 432 754 q 415 759 429 754 q 396 769 400 764 l 536 1031 q 559 1035 544 1033 q 589 1036 574 1036 q 640 1033 614 1036 q 679 1024 665 1029 z "},"ô":{"ha":732,"x_min":53,"x_max":679,"o":"m 679 394 q 656 251 679 324 q 588 119 633 179 q 474 21 542 58 q 317 -17 406 -17 q 191 10 242 -17 q 110 78 140 36 q 66 169 79 119 q 53 264 53 218 q 74 393 53 324 q 140 525 96 463 q 254 627 185 588 q 419 667 324 667 q 567 630 510 667 q 652 531 625 593 q 679 394 679 469 m 532 417 q 505 559 532 503 q 414 615 478 615 q 324 582 364 615 q 257 493 285 549 q 215 372 229 438 q 200 239 200 306 q 228 94 200 153 q 322 35 257 35 q 413 69 374 35 q 478 161 451 104 q 518 285 504 218 q 532 417 532 353 m 651 776 q 633 764 643 768 q 613 757 624 760 q 542 847 578 801 q 478 932 507 893 q 374 844 428 893 q 264 754 319 796 q 245 767 256 757 q 231 785 235 776 q 303 867 264 821 q 378 958 342 913 q 436 1032 414 1003 q 496 1038 460 1038 q 554 1032 532 1038 q 583 950 567 996 q 618 858 600 904 q 651 776 636 813 z "},"õ":{"ha":732,"x_min":53,"x_max":729,"o":"m 679 394 q 656 251 679 324 q 588 119 633 179 q 474 21 542 58 q 317 -17 406 -17 q 191 10 242 -17 q 110 78 140 36 q 66 169 79 119 q 53 264 53 218 q 74 393 53 324 q 140 525 96 463 q 254 627 185 588 q 419 667 324 667 q 567 630 510 667 q 652 531 625 593 q 679 394 679 469 m 532 417 q 505 559 532 503 q 414 615 478 615 q 324 582 364 615 q 257 493 285 549 q 215 372 229 438 q 200 239 200 306 q 228 94 200 153 q 322 35 257 35 q 413 69 374 35 q 478 161 451 104 q 518 285 504 218 q 532 417 532 353 m 688 1001 q 709 994 699 999 q 729 986 719 990 q 648 856 697 900 q 542 813 599 813 q 500 820 519 813 q 456 843 481 828 q 404 873 425 863 q 360 883 383 883 q 264 804 303 883 q 222 819 244 808 q 303 945 256 900 q 411 990 351 990 q 454 983 435 990 q 496 960 474 975 q 542 931 521 944 q 588 918 563 918 q 688 1001 646 918 z "},"ṍ":{"ha":732,"x_min":53,"x_max":725,"o":"m 679 394 q 656 251 679 324 q 588 119 633 179 q 474 21 542 58 q 317 -17 406 -17 q 191 10 242 -17 q 110 78 140 36 q 66 169 79 119 q 53 264 53 218 q 74 393 53 324 q 140 525 96 463 q 254 627 185 588 q 419 667 324 667 q 567 630 510 667 q 652 531 625 593 q 679 394 679 469 m 532 417 q 505 559 532 503 q 414 615 478 615 q 324 582 364 615 q 257 493 285 549 q 215 372 229 438 q 200 239 200 306 q 228 94 200 153 q 322 35 257 35 q 413 69 374 35 q 478 161 451 104 q 518 285 504 218 q 532 417 532 353 m 679 960 q 701 953 690 957 q 721 944 711 949 q 640 815 689 858 q 533 771 590 771 q 492 778 511 771 q 447 801 472 786 q 396 831 417 821 q 351 842 375 842 q 256 763 294 842 q 214 778 236 767 q 295 903 247 858 q 403 949 343 949 q 446 941 426 949 q 488 918 465 933 q 533 890 513 903 q 579 876 554 876 q 679 960 638 876 m 724 1274 l 725 1268 l 476 1004 q 459 1009 474 1004 q 440 1019 444 1014 l 581 1281 q 603 1285 589 1283 q 633 1286 618 1286 q 684 1283 658 1286 q 724 1274 710 1279 z "},"ö":{"ha":732,"x_min":53,"x_max":686,"o":"m 679 394 q 656 251 679 324 q 588 119 633 179 q 474 21 542 58 q 317 -17 406 -17 q 191 10 242 -17 q 110 78 140 36 q 66 169 79 119 q 53 264 53 218 q 74 393 53 324 q 140 525 96 463 q 254 627 185 588 q 419 667 324 667 q 567 630 510 667 q 652 531 625 593 q 679 394 679 469 m 532 417 q 505 559 532 503 q 414 615 478 615 q 324 582 364 615 q 257 493 285 549 q 215 372 229 438 q 200 239 200 306 q 228 94 200 153 q 322 35 257 35 q 413 69 374 35 q 478 161 451 104 q 518 285 504 218 q 532 417 532 353 m 333 828 q 277 851 299 828 q 256 907 256 874 q 283 974 256 946 q 347 1001 310 1001 q 403 979 383 1001 q 424 922 424 957 q 398 856 424 883 q 333 828 372 828 m 596 828 q 540 851 561 828 q 518 907 518 874 q 545 974 518 946 q 610 1001 572 1001 q 666 979 646 1001 q 686 922 686 957 q 660 856 686 883 q 596 828 635 828 z "},"ō":{"ha":732,"x_min":53,"x_max":679,"o":"m 679 394 q 656 251 679 324 q 588 119 633 179 q 474 21 542 58 q 317 -17 406 -17 q 191 10 242 -17 q 110 78 140 36 q 66 169 79 119 q 53 264 53 218 q 74 393 53 324 q 140 525 96 463 q 254 627 185 588 q 419 667 324 667 q 567 630 510 667 q 652 531 625 593 q 679 394 679 469 m 532 417 q 505 559 532 503 q 414 615 478 615 q 324 582 364 615 q 257 493 285 549 q 215 372 229 438 q 200 239 200 306 q 228 94 200 153 q 322 35 257 35 q 413 69 374 35 q 478 161 451 104 q 518 285 504 218 q 532 417 532 353 m 279 911 l 663 911 q 650 842 660 875 l 267 842 q 279 911 269 879 z "},"ŏ":{"ha":732,"x_min":53,"x_max":679,"o":"m 679 394 q 656 251 679 324 q 588 119 633 179 q 474 21 542 58 q 317 -17 406 -17 q 191 10 242 -17 q 110 78 140 36 q 66 169 79 119 q 53 264 53 218 q 74 393 53 324 q 140 525 96 463 q 254 627 185 588 q 419 667 324 667 q 567 630 510 667 q 652 531 625 593 q 679 394 679 469 m 532 417 q 505 559 532 503 q 414 615 478 615 q 324 582 364 615 q 257 493 285 549 q 215 372 229 438 q 200 239 200 306 q 228 94 200 153 q 322 35 257 35 q 413 69 374 35 q 478 161 451 104 q 518 285 504 218 q 532 417 532 353 m 313 1019 q 311 1008 311 1011 q 311 999 311 1004 q 347 890 311 922 q 446 858 383 858 q 562 896 514 858 q 636 1019 610 933 q 676 1011 660 1017 q 663 942 676 985 q 622 854 650 899 q 549 779 594 810 q 436 749 503 749 q 335 777 374 749 q 281 851 297 806 q 264 946 264 897 q 265 975 264 958 q 269 1013 267 992 q 291 1017 281 1015 q 313 1019 301 1018 z "},"ø":{"ha":732,"x_min":13,"x_max":722,"o":"m 676 393 q 653 251 676 324 q 585 119 631 179 q 472 21 539 58 q 315 -17 404 -17 q 207 3 253 -17 q 129 53 161 22 l 53 -24 q 32 -5 43 -14 q 13 14 21 4 l 94 96 q 60 179 71 135 q 50 264 50 224 q 72 393 50 324 q 138 525 93 463 q 251 627 182 588 q 415 667 319 667 q 521 649 475 667 q 599 603 567 632 l 682 686 q 722 647 706 671 l 635 558 q 666 481 656 524 q 676 393 676 439 m 532 415 q 531 456 532 436 l 208 129 q 249 60 222 86 q 319 35 276 35 q 410 69 371 35 q 477 161 450 104 q 518 285 504 218 q 532 415 532 351 m 196 194 l 518 525 q 479 591 506 567 q 411 615 453 615 q 321 582 361 615 q 253 493 281 549 q 210 372 225 438 q 194 239 194 306 q 196 194 194 215 z "},"œ":{"ha":1068,"x_min":50,"x_max":1056,"o":"m 654 307 q 646 226 646 264 q 676 115 646 156 q 772 74 707 74 q 884 106 832 74 q 975 189 936 138 q 1007 163 997 176 q 893 33 960 82 q 732 -17 826 -17 q 617 10 664 -17 q 544 83 571 36 q 447 11 504 39 q 315 -17 390 -17 q 188 10 239 -17 q 107 81 138 38 q 63 174 76 125 q 50 269 50 224 q 72 399 50 331 q 139 529 94 468 q 252 628 183 590 q 414 667 321 667 q 555 630 503 667 q 631 535 607 593 q 751 631 682 594 q 906 667 821 667 q 1019 636 983 667 q 1056 553 1056 606 q 1022 457 1056 499 q 930 385 988 415 q 801 335 872 354 q 654 307 729 315 m 526 415 q 499 559 526 503 q 408 615 472 615 q 321 582 360 615 q 254 494 282 549 q 212 372 226 439 q 197 240 197 306 q 226 94 197 153 q 321 35 256 35 q 409 69 371 35 q 474 161 447 104 q 513 285 500 218 q 526 415 526 351 m 665 354 q 789 387 729 364 q 886 448 849 410 q 924 540 924 486 q 910 590 924 571 q 867 608 896 608 q 784 572 824 608 q 714 476 744 535 q 665 354 683 418 z "},"ŕ":{"ha":578,"x_min":13,"x_max":632,"o":"m 197 0 l 58 0 l 172 493 q 182 546 182 533 q 157 579 182 579 q 106 558 138 579 q 44 504 75 536 q 27 518 35 511 q 13 533 19 525 q 128 631 68 599 q 239 664 188 664 q 300 642 285 664 q 315 592 315 621 q 310 549 315 574 q 288 468 304 525 l 243 325 l 251 324 q 393 582 324 497 q 543 667 463 667 q 612 642 592 667 q 632 588 632 617 q 610 533 632 553 q 557 514 588 514 q 510 526 535 514 q 468 564 485 538 q 375 463 425 536 q 278 274 325 390 q 197 0 232 158 m 608 1024 l 610 1018 l 361 754 q 344 759 358 754 q 325 769 329 764 l 465 1031 q 488 1035 474 1033 q 518 1036 503 1036 q 569 1033 543 1036 q 608 1024 594 1029 z "},"ṙ":{"ha":578,"x_min":13,"x_max":632,"o":"m 197 0 l 58 0 l 172 493 q 182 546 182 533 q 157 579 182 579 q 106 558 138 579 q 44 504 75 536 q 27 518 35 511 q 13 533 19 525 q 128 631 68 599 q 239 664 188 664 q 300 642 285 664 q 315 592 315 621 q 310 549 315 574 q 288 468 304 525 l 243 325 l 251 324 q 393 582 324 497 q 543 667 463 667 q 612 642 592 667 q 632 588 632 617 q 610 533 632 553 q 557 514 588 514 q 510 526 535 514 q 468 564 485 538 q 375 463 425 536 q 278 274 325 390 q 197 0 232 158 m 393 825 q 332 850 356 825 q 308 911 308 875 q 338 983 308 953 q 410 1013 368 1013 q 469 988 447 1013 q 492 928 492 964 q 464 856 492 886 q 393 825 436 825 z "},"ṟ":{"ha":578,"x_min":-87,"x_max":632,"o":"m 197 0 l 58 0 l 172 493 q 182 546 182 533 q 157 579 182 579 q 106 558 138 579 q 44 504 75 536 q 27 518 35 511 q 13 533 19 525 q 128 631 68 599 q 239 664 188 664 q 300 642 285 664 q 315 592 315 621 q 310 549 315 574 q 288 468 304 525 l 243 325 l 251 324 q 393 582 324 497 q 543 667 463 667 q 612 642 592 667 q 632 588 632 617 q 610 533 632 553 q 557 514 588 514 q 510 526 535 514 q 468 564 485 538 q 375 463 425 536 q 278 274 325 390 q 197 0 232 158 m -75 -143 l 308 -143 q 296 -212 306 -179 l -87 -212 q -75 -143 -85 -175 z "},"ṛ":{"ha":578,"x_min":-1,"x_max":632,"o":"m 197 0 l 58 0 l 172 493 q 182 546 182 533 q 157 579 182 579 q 106 558 138 579 q 44 504 75 536 q 27 518 35 511 q 13 533 19 525 q 128 631 68 599 q 239 664 188 664 q 300 642 285 664 q 315 592 315 621 q 310 549 315 574 q 288 468 304 525 l 243 325 l 251 324 q 393 582 324 497 q 543 667 463 667 q 612 642 592 667 q 632 588 632 617 q 610 533 632 553 q 557 514 588 514 q 510 526 535 514 q 468 564 485 538 q 375 463 425 536 q 278 274 325 390 q 197 0 232 158 m 85 -301 q 22 -276 46 -301 q -1 -215 -1 -251 q 28 -144 -1 -174 q 101 -114 58 -114 q 163 -138 140 -114 q 185 -199 185 -162 q 157 -271 185 -240 q 85 -301 129 -301 z "},"ṝ":{"ha":578,"x_min":-1,"x_max":632,"o":"m 197 0 l 58 0 l 172 493 q 182 546 182 533 q 157 579 182 579 q 106 558 138 579 q 44 504 75 536 q 27 518 35 511 q 13 533 19 525 q 128 631 68 599 q 239 664 188 664 q 300 642 285 664 q 315 592 315 621 q 310 549 315 574 q 288 468 304 525 l 243 325 l 251 324 q 393 582 324 497 q 543 667 463 667 q 612 642 592 667 q 632 588 632 617 q 610 533 632 553 q 557 514 588 514 q 510 526 535 514 q 468 564 485 538 q 375 463 425 536 q 278 274 325 390 q 197 0 232 158 m 85 -301 q 22 -276 46 -301 q -1 -215 -1 -251 q 28 -144 -1 -174 q 101 -114 58 -114 q 163 -138 140 -114 q 185 -199 185 -162 q 157 -271 185 -240 q 85 -301 129 -301 m 207 911 l 590 911 q 578 842 588 875 l 194 842 q 207 911 197 879 z "},"ś":{"ha":568,"x_min":-3,"x_max":596,"o":"m 224 -17 q 56 22 114 -17 q -3 104 -3 61 q 15 149 -3 128 q 68 169 33 169 q 124 150 103 169 q 158 100 146 131 q 174 39 169 69 q 203 33 189 35 q 232 32 218 32 q 328 56 289 32 q 367 129 367 81 q 333 202 367 172 q 236 275 300 232 q 164 330 199 301 q 107 393 129 358 q 85 471 85 428 q 112 560 85 515 q 197 635 139 606 q 346 665 256 665 q 496 631 446 665 q 546 556 546 596 q 531 513 546 535 q 481 490 517 490 q 410 527 435 490 q 381 606 386 564 q 322 613 351 613 q 238 587 267 613 q 208 521 208 561 q 242 447 208 478 q 342 371 276 415 q 414 317 379 346 q 471 253 449 289 q 493 169 493 218 q 458 69 493 111 q 363 6 424 28 q 224 -17 301 -17 m 594 1024 l 596 1018 l 347 754 q 330 759 344 754 q 311 769 315 764 l 451 1031 q 474 1035 460 1033 q 504 1036 489 1036 q 555 1033 529 1036 q 594 1024 581 1029 z "},"š":{"ha":568,"x_min":-3,"x_max":618,"o":"m 224 -17 q 56 22 114 -17 q -3 104 -3 61 q 15 149 -3 128 q 68 169 33 169 q 124 150 103 169 q 158 100 146 131 q 174 39 169 69 q 203 33 189 35 q 232 32 218 32 q 328 56 289 32 q 367 129 367 81 q 333 202 367 172 q 236 275 300 232 q 164 330 199 301 q 107 393 129 358 q 85 471 85 428 q 112 560 85 515 q 197 635 139 606 q 346 665 256 665 q 496 631 446 665 q 546 556 546 596 q 531 513 546 535 q 481 490 517 490 q 410 527 435 490 q 381 606 386 564 q 322 613 351 613 q 238 587 267 613 q 208 521 208 561 q 242 447 208 478 q 342 371 276 415 q 414 317 379 346 q 471 253 449 289 q 493 169 493 218 q 458 69 493 111 q 363 6 424 28 q 224 -17 301 -17 m 197 1015 q 216 1028 206 1024 q 236 1035 226 1032 q 306 944 271 990 q 371 860 342 899 q 475 947 421 899 q 585 1038 529 996 q 603 1025 593 1035 q 618 1007 614 1015 q 546 926 585 972 q 472 835 507 879 q 413 760 436 790 q 353 754 389 754 q 294 760 317 754 q 265 842 282 796 q 231 933 249 888 q 197 1015 213 979 z "},"ṣ":{"ha":568,"x_min":-3,"x_max":546,"o":"m 224 -17 q 56 22 114 -17 q -3 104 -3 61 q 15 149 -3 128 q 68 169 33 169 q 124 150 103 169 q 158 100 146 131 q 174 39 169 69 q 203 33 189 35 q 232 32 218 32 q 328 56 289 32 q 367 129 367 81 q 333 202 367 172 q 236 275 300 232 q 164 330 199 301 q 107 393 129 358 q 85 471 85 428 q 112 560 85 515 q 197 635 139 606 q 346 665 256 665 q 496 631 446 665 q 546 556 546 596 q 531 513 546 535 q 481 490 517 490 q 410 527 435 490 q 381 606 386 564 q 322 613 351 613 q 238 587 267 613 q 208 521 208 561 q 242 447 208 478 q 342 371 276 415 q 414 317 379 346 q 471 253 449 289 q 493 169 493 218 q 458 69 493 111 q 363 6 424 28 q 224 -17 301 -17 m 160 -301 q 97 -276 121 -301 q 74 -215 74 -251 q 103 -144 74 -174 q 176 -114 133 -114 q 238 -138 215 -114 q 260 -199 260 -162 q 232 -271 260 -240 q 160 -301 204 -301 z "},"ß":{"ha":819,"x_min":-233,"x_max":825,"o":"m 651 369 q 735 284 696 331 q 775 172 775 238 q 741 72 775 115 q 649 6 707 29 q 519 -17 592 -17 q 368 22 418 -17 q 318 103 318 61 q 335 149 318 128 q 383 169 351 169 q 451 129 429 169 q 478 38 472 89 q 522 32 501 32 q 609 57 571 32 q 647 129 647 82 q 638 178 647 158 q 608 219 629 197 q 547 276 586 242 q 463 361 503 317 q 424 467 424 406 q 444 547 424 514 q 499 604 465 579 q 569 653 533 629 q 665 733 631 693 q 699 849 699 772 q 665 961 699 924 q 574 999 631 999 q 474 971 513 999 q 411 892 435 943 q 370 774 388 842 q 336 625 353 706 l 226 106 q 155 -123 200 -18 q 44 -291 110 -228 q -112 -354 -22 -354 q -200 -331 -167 -354 q -233 -271 -233 -307 q -212 -223 -233 -240 q -165 -206 -192 -206 q -109 -228 -139 -206 q -62 -294 -79 -250 q 16 -201 -15 -281 q 79 38 47 -121 l 186 574 l 78 574 q 83 606 78 594 q 170 624 149 617 q 197 640 192 631 q 205 664 201 647 q 214 704 208 681 q 282 876 236 797 q 403 1002 328 954 q 588 1050 479 1050 q 760 1000 694 1050 q 825 864 825 950 q 784 742 825 792 q 682 656 743 693 q 584 586 617 615 q 551 511 551 557 q 576 444 551 472 q 651 369 600 415 z "},"ṭ":{"ha":468,"x_min":81,"x_max":494,"o":"m 483 574 l 324 574 l 236 193 q 224 115 224 139 q 233 80 224 93 q 268 67 243 67 q 338 91 297 67 q 410 156 378 115 q 442 128 428 143 q 331 21 393 60 q 201 -18 268 -18 q 131 0 157 -18 q 96 44 106 18 q 86 92 86 69 q 89 129 86 107 q 99 183 92 151 l 185 574 l 81 574 q 82 594 81 585 q 88 614 83 604 l 197 631 q 219 722 207 671 q 240 818 231 772 q 309 824 274 821 q 378 833 344 828 l 382 828 q 363 744 372 786 q 338 635 353 701 l 494 635 q 492 603 494 618 q 483 574 489 589 m 167 -301 q 104 -276 128 -301 q 81 -215 81 -251 q 110 -144 81 -174 q 183 -114 140 -114 q 244 -138 222 -114 q 267 -199 267 -162 q 239 -271 267 -240 q 167 -301 211 -301 z "},"ṯ":{"ha":468,"x_min":-19,"x_max":494,"o":"m 483 574 l 324 574 l 236 193 q 224 115 224 139 q 233 80 224 93 q 268 67 243 67 q 338 91 297 67 q 410 156 378 115 q 442 128 428 143 q 331 21 393 60 q 201 -18 268 -18 q 131 0 157 -18 q 96 44 106 18 q 86 92 86 69 q 89 129 86 107 q 99 183 92 151 l 185 574 l 81 574 q 82 594 81 585 q 88 614 83 604 l 197 631 q 219 722 207 671 q 240 818 231 772 q 309 824 274 821 q 378 833 344 828 l 382 828 q 363 744 372 786 q 338 635 353 701 l 494 635 q 492 603 494 618 q 483 574 489 589 m -7 -143 l 376 -143 q 364 -212 374 -179 l -19 -212 q -7 -143 -17 -175 z "},"ù":{"ha":814,"x_min":17,"x_max":800,"o":"m 553 429 l 601 638 q 669 644 635 640 q 738 651 704 647 l 742 646 l 628 154 q 622 129 626 144 q 618 100 618 114 q 624 79 618 88 q 643 71 629 71 q 703 96 667 71 q 768 157 739 121 q 800 129 786 144 q 698 25 753 67 q 576 -17 643 -17 q 503 9 525 -17 q 481 74 481 35 q 496 160 481 113 l 489 160 q 371 26 433 68 q 239 -17 308 -17 q 133 23 168 -17 q 97 119 97 63 q 106 197 97 150 q 128 295 115 243 q 155 397 142 347 q 177 487 168 447 q 186 547 186 526 q 161 579 186 579 q 110 558 142 579 q 49 504 79 536 q 31 518 39 511 q 17 533 24 525 q 131 631 72 599 q 242 664 190 664 q 308 639 289 664 q 328 576 328 614 q 315 481 328 540 q 283 354 301 421 q 252 228 265 288 q 239 135 239 169 q 251 87 239 107 q 294 67 264 67 q 382 104 333 67 q 477 222 431 142 q 553 429 524 303 m 335 1013 l 335 1018 q 374 1031 349 1025 q 428 1036 400 1036 q 451 1035 439 1036 q 471 1032 463 1035 l 511 767 q 494 758 506 761 q 475 754 483 756 l 335 1013 z "},"ú":{"ha":814,"x_min":17,"x_max":800,"o":"m 553 429 l 601 638 q 669 644 635 640 q 738 651 704 647 l 742 646 l 628 154 q 622 129 626 144 q 618 100 618 114 q 624 79 618 88 q 643 71 629 71 q 703 96 667 71 q 768 157 739 121 q 800 129 786 144 q 698 25 753 67 q 576 -17 643 -17 q 503 9 525 -17 q 481 74 481 35 q 496 160 481 113 l 489 160 q 371 26 433 68 q 239 -17 308 -17 q 133 23 168 -17 q 97 119 97 63 q 106 197 97 150 q 128 295 115 243 q 155 397 142 347 q 177 487 168 447 q 186 547 186 526 q 161 579 186 579 q 110 558 142 579 q 49 504 79 536 q 31 518 39 511 q 17 533 24 525 q 131 631 72 599 q 242 664 190 664 q 308 639 289 664 q 328 576 328 614 q 315 481 328 540 q 283 354 301 421 q 252 228 265 288 q 239 135 239 169 q 251 87 239 107 q 294 67 264 67 q 382 104 333 67 q 477 222 431 142 q 553 429 524 303 m 707 1024 l 708 1018 l 460 754 q 442 759 457 754 q 424 769 428 764 l 564 1031 q 587 1035 572 1033 q 617 1036 601 1036 q 667 1033 642 1036 q 707 1024 693 1029 z "},"û":{"ha":814,"x_min":17,"x_max":800,"o":"m 553 429 l 601 638 q 669 644 635 640 q 738 651 704 647 l 742 646 l 628 154 q 622 129 626 144 q 618 100 618 114 q 624 79 618 88 q 643 71 629 71 q 703 96 667 71 q 768 157 739 121 q 800 129 786 144 q 698 25 753 67 q 576 -17 643 -17 q 503 9 525 -17 q 481 74 481 35 q 496 160 481 113 l 489 160 q 371 26 433 68 q 239 -17 308 -17 q 133 23 168 -17 q 97 119 97 63 q 106 197 97 150 q 128 295 115 243 q 155 397 142 347 q 177 487 168 447 q 186 547 186 526 q 161 579 186 579 q 110 558 142 579 q 49 504 79 536 q 31 518 39 511 q 17 533 24 525 q 131 631 72 599 q 242 664 190 664 q 308 639 289 664 q 328 576 328 614 q 315 481 328 540 q 283 354 301 421 q 252 228 265 288 q 239 135 239 169 q 251 87 239 107 q 294 67 264 67 q 382 104 333 67 q 477 222 431 142 q 553 429 524 303 m 679 776 q 661 764 671 768 q 640 757 651 760 q 570 847 606 801 q 506 932 535 893 q 401 844 456 893 q 292 754 347 796 q 273 767 283 757 q 258 785 263 776 q 331 867 292 821 q 406 958 369 913 q 464 1032 442 1003 q 524 1038 488 1038 q 582 1032 560 1038 q 611 950 594 996 q 646 858 628 904 q 679 776 664 813 z "},"ũ":{"ha":814,"x_min":17,"x_max":800,"o":"m 553 429 l 601 638 q 669 644 635 640 q 738 651 704 647 l 742 646 l 628 154 q 622 129 626 144 q 618 100 618 114 q 624 79 618 88 q 643 71 629 71 q 703 96 667 71 q 768 157 739 121 q 800 129 786 144 q 698 25 753 67 q 576 -17 643 -17 q 503 9 525 -17 q 481 74 481 35 q 496 160 481 113 l 489 160 q 371 26 433 68 q 239 -17 308 -17 q 133 23 168 -17 q 97 119 97 63 q 106 197 97 150 q 128 295 115 243 q 155 397 142 347 q 177 487 168 447 q 186 547 186 526 q 161 579 186 579 q 110 558 142 579 q 49 504 79 536 q 31 518 39 511 q 17 533 24 525 q 131 631 72 599 q 242 664 190 664 q 308 639 289 664 q 328 576 328 614 q 315 481 328 540 q 283 354 301 421 q 252 228 265 288 q 239 135 239 169 q 251 87 239 107 q 294 67 264 67 q 382 104 333 67 q 477 222 431 142 q 553 429 524 303 m 715 1001 q 737 994 726 999 q 757 986 747 990 q 676 856 725 900 q 569 813 626 813 q 528 820 547 813 q 483 843 508 828 q 432 873 453 863 q 388 883 411 883 q 292 804 331 883 q 250 819 272 808 q 331 945 283 900 q 439 990 379 990 q 482 983 463 990 q 524 960 501 975 q 569 931 549 944 q 615 918 590 918 q 715 1001 674 918 z "},"ṹ":{"ha":814,"x_min":17,"x_max":800,"o":"m 553 429 l 601 638 q 669 644 635 640 q 738 651 704 647 l 742 646 l 628 154 q 622 129 626 144 q 618 100 618 114 q 624 79 618 88 q 643 71 629 71 q 703 96 667 71 q 768 157 739 121 q 800 129 786 144 q 698 25 753 67 q 576 -17 643 -17 q 503 9 525 -17 q 481 74 481 35 q 496 160 481 113 l 489 160 q 371 26 433 68 q 239 -17 308 -17 q 133 23 168 -17 q 97 119 97 63 q 106 197 97 150 q 128 295 115 243 q 155 397 142 347 q 177 487 168 447 q 186 547 186 526 q 161 579 186 579 q 110 558 142 579 q 49 504 79 536 q 31 518 39 511 q 17 533 24 525 q 131 631 72 599 q 242 664 190 664 q 308 639 289 664 q 328 576 328 614 q 315 481 328 540 q 283 354 301 421 q 252 228 265 288 q 239 135 239 169 q 251 87 239 107 q 294 67 264 67 q 382 104 333 67 q 477 222 431 142 q 553 429 524 303 m 707 960 q 728 953 718 957 q 749 944 739 949 q 667 815 717 858 q 561 771 618 771 q 519 778 539 771 q 475 801 500 786 q 424 831 444 821 q 379 842 403 842 q 283 763 322 842 q 242 778 264 767 q 323 903 275 858 q 431 949 371 949 q 474 941 454 949 q 515 918 493 933 q 561 890 540 903 q 607 876 582 876 q 707 960 665 876 m 751 1274 l 753 1268 l 504 1004 q 487 1009 501 1004 q 468 1019 472 1014 l 608 1281 q 631 1285 617 1283 q 661 1286 646 1286 q 712 1283 686 1286 q 751 1274 738 1279 z "},"ü":{"ha":814,"x_min":17,"x_max":800,"o":"m 553 429 l 601 638 q 669 644 635 640 q 738 651 704 647 l 742 646 l 628 154 q 622 129 626 144 q 618 100 618 114 q 624 79 618 88 q 643 71 629 71 q 703 96 667 71 q 768 157 739 121 q 800 129 786 144 q 698 25 753 67 q 576 -17 643 -17 q 503 9 525 -17 q 481 74 481 35 q 496 160 481 113 l 489 160 q 371 26 433 68 q 239 -17 308 -17 q 133 23 168 -17 q 97 119 97 63 q 106 197 97 150 q 128 295 115 243 q 155 397 142 347 q 177 487 168 447 q 186 547 186 526 q 161 579 186 579 q 110 558 142 579 q 49 504 79 536 q 31 518 39 511 q 17 533 24 525 q 131 631 72 599 q 242 664 190 664 q 308 639 289 664 q 328 576 328 614 q 315 481 328 540 q 283 354 301 421 q 252 228 265 288 q 239 135 239 169 q 251 87 239 107 q 294 67 264 67 q 382 104 333 67 q 477 222 431 142 q 553 429 524 303 m 361 828 q 305 851 326 828 q 283 907 283 874 q 310 974 283 946 q 375 1001 338 1001 q 431 979 411 1001 q 451 922 451 957 q 426 856 451 883 q 361 828 400 828 m 624 828 q 567 851 589 828 q 546 907 546 874 q 573 974 546 946 q 638 1001 600 1001 q 694 979 674 1001 q 714 922 714 957 q 688 856 714 883 q 624 828 663 828 z "},"ū":{"ha":814,"x_min":17,"x_max":800,"o":"m 553 429 l 601 638 q 669 644 635 640 q 738 651 704 647 l 742 646 l 628 154 q 622 129 626 144 q 618 100 618 114 q 624 79 618 88 q 643 71 629 71 q 703 96 667 71 q 768 157 739 121 q 800 129 786 144 q 698 25 753 67 q 576 -17 643 -17 q 503 9 525 -17 q 481 74 481 35 q 496 160 481 113 l 489 160 q 371 26 433 68 q 239 -17 308 -17 q 133 23 168 -17 q 97 119 97 63 q 106 197 97 150 q 128 295 115 243 q 155 397 142 347 q 177 487 168 447 q 186 547 186 526 q 161 579 186 579 q 110 558 142 579 q 49 504 79 536 q 31 518 39 511 q 17 533 24 525 q 131 631 72 599 q 242 664 190 664 q 308 639 289 664 q 328 576 328 614 q 315 481 328 540 q 283 354 301 421 q 252 228 265 288 q 239 135 239 169 q 251 87 239 107 q 294 67 264 67 q 382 104 333 67 q 477 222 431 142 q 553 429 524 303 m 306 911 l 689 911 q 676 842 686 875 l 293 842 q 306 911 296 879 z "},"ŭ":{"ha":814,"x_min":17,"x_max":800,"o":"m 553 429 l 601 638 q 669 644 635 640 q 738 651 704 647 l 742 646 l 628 154 q 622 129 626 144 q 618 100 618 114 q 624 79 618 88 q 643 71 629 71 q 703 96 667 71 q 768 157 739 121 q 800 129 786 144 q 698 25 753 67 q 576 -17 643 -17 q 503 9 525 -17 q 481 74 481 35 q 496 160 481 113 l 489 160 q 371 26 433 68 q 239 -17 308 -17 q 133 23 168 -17 q 97 119 97 63 q 106 197 97 150 q 128 295 115 243 q 155 397 142 347 q 177 487 168 447 q 186 547 186 526 q 161 579 186 579 q 110 558 142 579 q 49 504 79 536 q 31 518 39 511 q 17 533 24 525 q 131 631 72 599 q 242 664 190 664 q 308 639 289 664 q 328 576 328 614 q 315 481 328 540 q 283 354 301 421 q 252 228 265 288 q 239 135 239 169 q 251 87 239 107 q 294 67 264 67 q 382 104 333 67 q 477 222 431 142 q 553 429 524 303 m 340 1019 q 339 1008 339 1011 q 339 999 339 1004 q 375 890 339 922 q 474 858 411 858 q 590 896 542 858 q 664 1019 638 933 q 704 1011 688 1017 q 691 942 704 985 q 650 854 678 899 q 576 779 622 810 q 464 749 531 749 q 363 777 401 749 q 308 851 325 806 q 292 946 292 897 q 293 975 292 958 q 297 1013 294 992 q 319 1017 308 1015 q 340 1019 329 1018 z "},"ý":{"ha":708,"x_min":-119,"x_max":675,"o":"m 51 -293 q 188 -216 121 -287 q 335 -19 256 -144 q 255 247 289 140 q 196 418 221 353 q 152 517 171 483 q 118 563 133 551 q 89 574 103 574 q 52 560 72 574 q 0 511 32 547 q -17 525 -10 518 q -32 540 -25 532 q 74 638 25 614 q 164 661 124 661 q 209 651 188 661 q 252 612 231 642 q 299 524 274 582 q 354 369 324 465 q 425 129 385 274 q 531 339 489 243 q 583 479 572 435 q 533 526 553 499 q 513 586 513 554 q 533 642 513 618 q 589 667 554 667 q 653 634 632 667 q 675 553 675 601 q 644 429 675 510 q 560 247 613 349 q 447 39 508 146 q 296 -190 365 -104 q 163 -313 226 -275 q 31 -351 99 -351 q -81 -317 -42 -351 q -119 -247 -119 -282 q -101 -199 -119 -219 q -51 -179 -82 -179 q 3 -201 -28 -179 q 51 -293 35 -222 m 635 1024 l 636 1018 l 388 754 q 370 759 385 754 q 351 769 356 764 l 492 1031 q 515 1035 500 1033 q 544 1036 529 1036 q 595 1033 569 1036 q 635 1024 621 1029 z "},"ÿ":{"ha":708,"x_min":-119,"x_max":675,"o":"m 51 -293 q 188 -216 121 -287 q 335 -19 256 -144 q 255 247 289 140 q 196 418 221 353 q 152 517 171 483 q 118 563 133 551 q 89 574 103 574 q 52 560 72 574 q 0 511 32 547 q -17 525 -10 518 q -32 540 -25 532 q 74 638 25 614 q 164 661 124 661 q 209 651 188 661 q 252 612 231 642 q 299 524 274 582 q 354 369 324 465 q 425 129 385 274 q 531 339 489 243 q 583 479 572 435 q 533 526 553 499 q 513 586 513 554 q 533 642 513 618 q 589 667 554 667 q 653 634 632 667 q 675 553 675 601 q 644 429 675 510 q 560 247 613 349 q 447 39 508 146 q 296 -190 365 -104 q 163 -313 226 -275 q 31 -351 99 -351 q -81 -317 -42 -351 q -119 -247 -119 -282 q -101 -199 -119 -219 q -51 -179 -82 -179 q 3 -201 -28 -179 q 51 -293 35 -222 m 289 828 q 233 851 254 828 q 211 907 211 874 q 238 974 211 946 q 303 1001 265 1001 q 359 979 339 1001 q 379 922 379 957 q 353 856 379 883 q 289 828 328 828 m 551 828 q 495 851 517 828 q 474 907 474 874 q 501 974 474 946 q 565 1001 528 1001 q 622 979 601 1001 q 642 922 642 957 q 616 856 642 883 q 551 828 590 828 z "},"ẏ":{"ha":708,"x_min":-119,"x_max":675,"o":"m 51 -293 q 188 -216 121 -287 q 335 -19 256 -144 q 255 247 289 140 q 196 418 221 353 q 152 517 171 483 q 118 563 133 551 q 89 574 103 574 q 52 560 72 574 q 0 511 32 547 q -17 525 -10 518 q -32 540 -25 532 q 74 638 25 614 q 164 661 124 661 q 209 651 188 661 q 252 612 231 642 q 299 524 274 582 q 354 369 324 465 q 425 129 385 274 q 531 339 489 243 q 583 479 572 435 q 533 526 553 499 q 513 586 513 554 q 533 642 513 618 q 589 667 554 667 q 653 634 632 667 q 675 553 675 601 q 644 429 675 510 q 560 247 613 349 q 447 39 508 146 q 296 -190 365 -104 q 163 -313 226 -275 q 31 -351 99 -351 q -81 -317 -42 -351 q -119 -247 -119 -282 q -101 -199 -119 -219 q -51 -179 -82 -179 q 3 -201 -28 -179 q 51 -293 35 -222 m 417 825 q 356 850 379 825 q 332 911 332 875 q 362 983 332 953 q 433 1013 392 1013 q 493 988 471 1013 q 515 928 515 964 q 488 856 515 886 q 417 825 460 825 z "}}}
